<svg width="504" height="503" viewBox="0 0 504 503" fill="none" xmlns="http://www.w3.org/2000/svg">
<path d="M307.506 142.862C307.647 142.862 307.748 143.435 307.727 144.127C307.707 144.82 307.577 145.372 307.426 145.372C307.275 145.372 307.184 144.81 307.204 144.107C307.224 143.405 307.355 142.852 307.506 142.862Z" fill="#E0E0E0"/>
<path d="M309.428 133.113C309.568 133.164 309.287 134.238 308.935 135.553C308.572 136.868 308.261 137.943 308.12 137.913C307.979 137.892 308.059 136.758 308.432 135.413C308.794 134.067 309.297 133.053 309.438 133.103L309.428 133.113Z" fill="#E0E0E0"/>
<path d="M314.317 124.489C314.427 124.579 313.804 125.503 313.029 126.627C312.254 127.752 311.621 128.666 311.49 128.595C311.369 128.525 311.802 127.481 312.596 126.336C313.381 125.192 314.206 124.399 314.307 124.489H314.317Z" fill="#E0E0E0"/>
<path d="M321.751 117.893C321.832 118.013 320.956 118.716 319.87 119.539C318.783 120.363 317.878 121.015 317.777 120.905C317.677 120.804 318.441 119.961 319.548 119.118C320.655 118.274 321.671 117.762 321.741 117.883L321.751 117.893Z" fill="#E0E0E0"/>
<path d="M330.644 113.385C330.694 113.515 329.719 114.077 328.471 114.63C327.214 115.182 326.147 115.533 326.087 115.403C326.017 115.272 326.992 114.72 328.26 114.158C329.527 113.596 330.594 113.254 330.644 113.385Z" fill="#E0E0E0"/>
<path d="M340.181 110.473C340.211 110.614 339.165 111.016 337.837 111.367C336.509 111.718 335.402 111.899 335.362 111.759C335.322 111.618 336.368 111.216 337.706 110.865C339.044 110.504 340.151 110.333 340.181 110.473Z" fill="#E0E0E0"/>
<path d="M349.99 108.626C350.01 108.767 348.933 109.068 347.575 109.299C346.217 109.53 345.1 109.59 345.07 109.449C345.04 109.309 346.126 109.007 347.485 108.777C348.843 108.546 349.969 108.475 349.99 108.626Z" fill="#E0E0E0"/>
<path d="M359.919 107.642C359.919 107.782 358.812 107.973 357.444 108.064C356.076 108.154 354.949 108.104 354.939 107.963C354.919 107.823 356.025 107.632 357.414 107.541C358.792 107.451 359.919 107.501 359.919 107.642Z" fill="#E0E0E0"/>
<path d="M369.868 108.294C369.848 108.435 368.721 108.435 367.363 108.284C366.005 108.134 364.898 107.893 364.909 107.752C364.909 107.612 366.035 107.612 367.413 107.762C368.792 107.913 369.888 108.154 369.868 108.294Z" fill="#E0E0E0"/>
<path d="M379.546 110.684C379.496 110.824 378.389 110.614 377.081 110.232C375.763 109.84 374.727 109.419 374.757 109.278C374.787 109.138 375.894 109.338 377.222 109.73C378.55 110.122 379.586 110.553 379.536 110.684H379.546Z" fill="#E0E0E0"/>
<path d="M388.6 114.83C388.529 114.951 387.483 114.549 386.266 113.917C385.049 113.284 384.113 112.672 384.173 112.541C384.234 112.411 385.28 112.822 386.507 113.455C387.735 114.087 388.67 114.71 388.6 114.83Z" fill="#E0E0E0"/>
<path d="M396.618 120.734C396.517 120.844 395.632 120.172 394.575 119.298C393.519 118.425 392.684 117.682 392.775 117.561C392.855 117.441 393.841 118.013 394.907 118.887C395.974 119.77 396.718 120.624 396.618 120.724V120.734Z" fill="#E0E0E0"/>
<path d="M403.086 128.284C402.965 128.364 402.261 127.501 401.426 126.417C400.601 125.322 399.958 124.409 400.068 124.318C400.179 124.228 401.004 124.991 401.839 126.105C402.674 127.21 403.197 128.214 403.076 128.294L403.086 128.284Z" fill="#E0E0E0"/>
<path d="M407.664 137.119C407.523 137.169 407.03 136.175 406.466 134.92C405.913 133.675 405.491 132.641 405.621 132.571C405.752 132.501 406.376 133.445 406.939 134.71C407.503 135.975 407.784 137.069 407.653 137.119H407.664Z" fill="#E0E0E0"/>
<path d="M410.108 146.748C409.967 146.768 409.716 145.683 409.454 144.338C409.193 142.993 409.022 141.898 409.162 141.858C409.303 141.818 409.706 142.882 409.967 144.238C410.229 145.593 410.249 146.727 410.108 146.748Z" fill="#E0E0E0"/>
<path d="M410.148 156.687C410.008 156.667 410.038 155.553 410.118 154.197C410.199 152.832 410.299 151.728 410.45 151.728C410.591 151.728 410.732 152.852 410.641 154.238C410.561 155.623 410.289 156.717 410.148 156.697V156.687Z" fill="#E0E0E0"/>
<path d="M407.492 166.255C407.362 166.195 407.663 165.121 408.166 163.856C408.609 162.571 409.022 161.526 409.172 161.567C409.303 161.597 409.112 162.711 408.659 164.026C408.146 165.322 407.623 166.315 407.492 166.255Z" fill="#E0E0E0"/>
<path d="M402.07 174.569C401.959 174.468 402.623 173.575 403.458 172.49C404.293 171.406 404.987 170.543 405.108 170.613C405.229 170.693 404.726 171.707 403.871 172.802C403.026 173.906 402.171 174.649 402.07 174.559V174.569Z" fill="#E0E0E0"/>
<path d="M394.274 180.723C394.203 180.592 395.139 179.98 396.276 179.227C397.412 178.474 398.348 177.862 398.438 177.982C398.529 178.092 397.724 178.896 396.567 179.669C395.4 180.442 394.344 180.853 394.284 180.723H394.274Z" fill="#E0E0E0"/>
<path d="M384.757 183.444C384.757 183.293 385.853 183.143 387.191 182.912C388.529 182.681 389.626 182.47 389.666 182.611C389.706 182.741 388.66 183.193 387.282 183.424C385.904 183.665 384.767 183.585 384.757 183.444Z" fill="#E0E0E0"/>
<path d="M375.129 181.325C375.2 181.195 376.226 181.627 377.504 182.098C378.771 182.57 379.837 182.912 379.807 183.052C379.777 183.193 378.64 183.072 377.322 182.58C376.005 182.098 375.069 181.446 375.139 181.325H375.129Z" fill="#E0E0E0"/>
<path d="M367.665 174.83C367.786 174.749 368.51 175.593 369.425 176.597C370.341 177.601 371.105 178.404 371.015 178.514C370.924 178.625 369.979 177.982 369.043 176.948C368.097 175.914 367.554 174.91 367.675 174.83H367.665Z" fill="#E0E0E0"/>
<path d="M364.355 165.573C364.506 165.573 364.637 166.667 364.908 167.992C365.18 169.318 365.472 170.382 365.331 170.442C365.2 170.492 364.667 169.478 364.395 168.103C364.114 166.727 364.214 165.583 364.355 165.583V165.573Z" fill="#E0E0E0"/>
<path d="M367.323 156.266C367.444 156.356 366.86 157.3 366.246 158.505C365.623 159.699 365.19 160.723 365.049 160.673C364.918 160.633 365.13 159.509 365.784 158.264C366.428 157.019 367.222 156.185 367.333 156.266H367.323Z" fill="#E0E0E0"/>
<path d="M375.019 150.061C375.079 150.191 374.133 150.774 372.977 151.487C371.82 152.199 370.894 152.812 370.794 152.691C370.703 152.581 371.508 151.778 372.695 151.045C373.882 150.312 374.958 149.93 375.019 150.061Z" fill="#E0E0E0"/>
<path d="M384.536 147.189C384.556 147.33 383.469 147.601 382.141 147.892C380.803 148.183 379.717 148.404 379.667 148.264C379.626 148.133 380.662 147.681 382.031 147.38C383.389 147.079 384.526 147.049 384.546 147.189H384.536Z" fill="#E0E0E0"/>
<path d="M394.495 146.968C394.485 147.109 393.358 147.189 391.99 147.139C390.622 147.089 389.505 146.928 389.505 146.788C389.505 146.647 390.622 146.567 392.01 146.617C393.398 146.667 394.505 146.828 394.495 146.968Z" fill="#E0E0E0"/>
<path d="M404.263 148.937C404.213 149.077 403.126 148.836 401.799 148.495C400.471 148.153 399.404 147.832 399.434 147.682C399.465 147.541 400.591 147.641 401.929 147.983C403.277 148.334 404.303 148.796 404.263 148.927V148.937Z" fill="#E0E0E0"/>
<path d="M413.297 153.103C413.217 153.223 412.221 152.731 411.013 152.079C409.806 151.426 408.851 150.874 408.911 150.733C408.971 150.603 410.048 150.954 411.265 151.617C412.492 152.27 413.378 152.982 413.297 153.103Z" fill="#E0E0E0"/>
<path d="M420.922 159.479C420.812 159.569 419.947 158.866 418.981 157.902C418.035 156.908 417.241 156.145 417.341 156.015C417.422 155.914 418.387 156.517 419.343 157.521C420.329 158.505 421.033 159.378 420.922 159.469V159.479Z" fill="#E0E0E0"/>
<path d="M426.496 167.701C426.365 167.762 425.772 166.818 425.087 165.643C424.403 164.458 423.87 163.484 423.991 163.404C424.112 163.324 424.846 164.177 425.54 165.382C426.234 166.577 426.627 167.641 426.496 167.701Z" fill="#E0E0E0"/>
<path d="M429.826 177.068C429.685 177.099 429.323 176.044 428.95 174.729C428.568 173.414 428.307 172.34 428.437 172.289C428.568 172.239 429.071 173.253 429.453 174.589C429.846 175.914 429.967 177.038 429.826 177.068Z" fill="#E0E0E0"/>
<path d="M431.073 186.938C430.932 186.938 430.721 185.833 430.62 184.478C430.52 183.112 430.55 181.998 430.691 181.978C430.832 181.958 431.033 183.062 431.144 184.438C431.254 185.813 431.214 186.938 431.073 186.938Z" fill="#E0E0E0"/>
<path d="M430.49 196.867C430.349 196.847 430.349 195.723 430.49 194.367C430.631 193.002 430.862 191.908 431.003 191.918C431.144 191.918 431.154 193.042 431.003 194.418C430.862 195.793 430.631 196.887 430.49 196.867Z" fill="#E0E0E0"/>
<path d="M428.236 206.566C428.095 206.516 428.286 205.411 428.649 204.096C429.011 202.781 429.423 201.737 429.564 201.767C429.705 201.797 429.524 202.901 429.152 204.237C428.779 205.572 428.367 206.616 428.236 206.566Z" fill="#E0E0E0"/>
<path d="M424.393 215.743C424.262 215.672 424.645 214.618 425.238 213.393C425.832 212.158 426.355 211.174 426.496 211.235C426.616 211.285 426.315 212.369 425.711 213.614C425.107 214.859 424.514 215.813 424.393 215.743Z" fill="#E0E0E0"/>
<path d="M419.323 224.317C419.202 224.236 419.705 223.232 420.44 222.078C421.174 220.923 421.868 220.04 421.999 220.11C422.13 220.18 421.627 221.184 420.882 222.359C420.148 223.523 419.444 224.407 419.323 224.327V224.317Z" fill="#E0E0E0"/>
<path d="M413.337 232.279C413.227 232.188 413.83 231.234 414.675 230.16C415.53 229.086 416.305 228.283 416.426 228.363C416.546 228.453 415.943 229.397 415.088 230.481C414.233 231.566 413.448 232.369 413.337 232.279Z" fill="#E0E0E0"/>
<path d="M406.698 239.708C406.597 239.608 407.271 238.714 408.197 237.7C409.132 236.696 409.977 235.953 410.088 236.054C410.199 236.154 409.525 237.047 408.589 238.062C407.653 239.076 406.808 239.808 406.698 239.708Z" fill="#E0E0E0"/>
<path d="M399.605 246.726C399.505 246.626 400.229 245.762 401.215 244.808C402.201 243.854 403.086 243.162 403.197 243.262C403.297 243.363 402.573 244.226 401.587 245.18C400.591 246.134 399.706 246.826 399.605 246.726Z" fill="#E0E0E0"/>
<path d="M392.242 253.443C392.141 253.332 392.895 252.499 393.922 251.585C394.948 250.662 395.853 250.009 395.954 250.109C396.054 250.22 395.3 251.053 394.274 251.967C393.248 252.89 392.342 253.553 392.242 253.443Z" fill="#E0E0E0"/>
<path d="M386.618 258.402C386.527 258.292 386.869 257.83 387.393 257.378C387.916 256.916 388.419 256.635 388.509 256.746C388.6 256.856 388.258 257.318 387.735 257.77C387.211 258.232 386.708 258.513 386.618 258.402Z" fill="#E0E0E0"/>
<path d="M96.5883 237.419C96.709 237.338 97.1114 237.75 97.4836 238.332C97.8558 238.915 98.057 239.447 97.9363 239.527C97.8156 239.607 97.4132 239.196 97.041 238.613C96.6688 238.031 96.4575 237.489 96.5782 237.419H96.5883Z" fill="#E0E0E0"/>
<path d="M91.689 228.624C91.8198 228.564 92.4435 229.507 93.0874 230.732C93.7312 231.957 94.1537 233.011 94.023 233.082C93.8922 233.152 93.2685 232.208 92.6246 230.973C91.9808 229.738 91.5583 228.684 91.689 228.624Z" fill="#E0E0E0"/>
<path d="M87.675 219.397C87.8058 219.347 88.339 220.351 88.8621 221.626C89.3852 222.911 89.6971 223.995 89.5663 224.055C89.4355 224.116 88.9024 223.112 88.3792 221.827C87.8561 220.531 87.5443 219.447 87.675 219.397Z" fill="#E0E0E0"/>
<path d="M84.5968 209.818C84.7376 209.778 85.1702 210.833 85.5525 212.158C85.9448 213.483 86.146 214.598 86.0052 214.648C85.8644 214.688 85.4418 213.644 85.0495 212.308C84.6571 210.973 84.456 209.859 84.5968 209.818Z" fill="#E0E0E0"/>
<path d="M82.5143 199.979C82.6552 199.959 82.9771 201.044 83.2286 202.409C83.4801 203.774 83.5706 204.899 83.4298 204.929C83.2889 204.959 82.967 203.875 82.7155 202.499C82.464 201.134 82.3735 199.999 82.5143 199.979Z" fill="#E0E0E0"/>
<path d="M81.4781 189.97C81.619 189.97 81.8302 191.074 81.9308 192.46C82.0314 193.845 82.0013 194.97 81.8604 194.99C81.7196 195.01 81.5184 193.895 81.4077 192.5C81.2971 191.114 81.3373 189.98 81.4781 189.97Z" fill="#E0E0E0"/>
<path d="M81.5485 179.91C81.6894 179.91 81.7699 181.054 81.7196 182.43C81.6693 183.815 81.5184 184.94 81.3675 184.93C81.2266 184.93 81.1462 183.795 81.1965 182.41C81.2468 181.014 81.3976 179.9 81.5485 179.91Z" fill="#E0E0E0"/>
<path d="M82.7759 169.93C82.9167 169.96 82.8664 171.085 82.6551 172.46C82.4439 173.825 82.1622 174.92 82.0113 174.91C81.8705 174.89 81.9208 173.765 82.132 172.38C82.3433 171.004 82.625 169.91 82.7759 169.93Z" fill="#E0E0E0"/>
<path d="M85.2104 160.171C85.3513 160.211 85.1601 161.336 84.7779 162.661C84.4056 163.996 83.9831 165.051 83.8423 165.01C83.7014 164.98 83.8926 163.856 84.2749 162.521C84.6571 161.175 85.0696 160.121 85.2104 160.171Z" fill="#E0E0E0"/>
<path d="M88.8119 150.774C88.9427 150.834 88.6208 151.918 88.0775 153.193C87.5443 154.468 87.0011 155.462 86.8603 155.412C86.7295 155.362 87.0514 154.278 87.5946 152.992C88.1379 151.707 88.6811 150.713 88.8119 150.774Z" fill="#E0E0E0"/>
<path d="M93.53 141.878C93.6507 141.958 93.198 142.992 92.514 144.197C91.8299 145.402 91.1659 146.326 91.0452 146.255C90.9144 146.185 91.3671 145.151 92.0613 143.936C92.7554 142.721 93.4093 141.798 93.53 141.878Z" fill="#E0E0E0"/>
<path d="M99.2743 133.625C99.385 133.716 98.8115 134.69 97.9866 135.804C97.1617 136.918 96.3971 137.752 96.2764 137.671C96.1557 137.591 96.7291 136.617 97.5641 135.493C98.3991 134.378 99.1636 133.535 99.2743 133.625Z" fill="#E0E0E0"/>
<path d="M105.994 126.136C106.095 126.236 105.401 127.14 104.445 128.133C103.489 129.137 102.624 129.87 102.514 129.77C102.403 129.67 103.097 128.776 104.063 127.772C105.029 126.758 105.894 126.025 105.994 126.136Z" fill="#E0E0E0"/>
<path d="M113.62 119.559C113.71 119.679 112.906 120.473 111.829 121.346C110.753 122.219 109.797 122.832 109.706 122.721C109.616 122.611 110.411 121.818 111.497 120.934C112.584 120.061 113.529 119.438 113.62 119.559Z" fill="#E0E0E0"/>
<path d="M122.04 114.047C122.111 114.178 121.205 114.86 120.028 115.573C118.841 116.296 117.825 116.778 117.744 116.658C117.664 116.537 118.569 115.854 119.756 115.132C120.954 114.409 121.97 113.927 122.04 114.047Z" fill="#E0E0E0"/>
<path d="M131.144 109.74C131.195 109.871 130.209 110.433 128.931 110.975C127.654 111.527 126.577 111.859 126.517 111.728C126.456 111.598 127.442 111.045 128.73 110.493C130.018 109.941 131.094 109.6 131.144 109.74Z" fill="#E0E0E0"/>
<path d="M140.762 106.728C140.792 106.868 139.736 107.28 138.398 107.652C137.06 108.023 135.943 108.204 135.903 108.073C135.862 107.943 136.919 107.521 138.267 107.15C139.615 106.778 140.732 106.587 140.762 106.728Z" fill="#E0E0E0"/>
<path d="M150.681 105.031C150.691 105.172 149.594 105.443 148.226 105.634C146.858 105.824 145.721 105.864 145.691 105.724C145.661 105.583 146.768 105.312 148.146 105.121C149.524 104.931 150.661 104.891 150.671 105.031H150.681Z" fill="#E0E0E0"/>
<path d="M160.751 104.63C160.751 104.77 159.614 104.901 158.236 104.911C156.848 104.911 155.721 104.81 155.711 104.67C155.711 104.529 156.827 104.399 158.226 104.389C159.624 104.389 160.751 104.489 160.751 104.63Z" fill="#E0E0E0"/>
<path d="M170.781 105.553C170.761 105.694 169.624 105.674 168.246 105.503C166.867 105.332 165.771 105.071 165.781 104.931C165.791 104.79 166.928 104.81 168.316 104.991C169.704 105.162 170.811 105.423 170.781 105.563V105.553Z" fill="#E0E0E0"/>
<path d="M180.599 107.822C180.559 107.963 179.432 107.782 178.094 107.421C176.756 107.059 175.7 106.658 175.73 106.517C175.76 106.376 176.877 106.557 178.235 106.919C179.583 107.28 180.65 107.682 180.599 107.822Z" fill="#E0E0E0"/>
<path d="M189.985 111.457C189.925 111.587 188.838 111.246 187.571 110.704C186.293 110.162 185.307 109.609 185.358 109.469C185.408 109.338 186.494 109.67 187.772 110.222C189.06 110.774 190.046 111.326 189.985 111.457Z" fill="#E0E0E0"/>
<path d="M198.748 116.427C198.667 116.547 197.651 116.055 196.464 115.322C195.287 114.589 194.392 113.897 194.452 113.776C194.532 113.636 195.549 114.138 196.736 114.87C197.923 115.603 198.818 116.296 198.738 116.417L198.748 116.427Z" fill="#E0E0E0"/>
<path d="M206.725 122.561C206.625 122.671 205.679 122.039 204.613 121.165C203.546 120.282 202.751 119.479 202.832 119.368C202.912 119.258 203.868 119.88 204.944 120.764C206.021 121.647 206.816 122.46 206.725 122.561Z" fill="#E0E0E0"/>
<path d="M213.888 129.639C213.777 129.74 212.912 128.997 211.956 128.003C211.001 126.999 210.307 126.105 210.407 126.005C210.508 125.904 211.373 126.637 212.339 127.641C213.304 128.655 213.999 129.549 213.888 129.639Z" fill="#E0E0E0"/>
<path d="M220.246 137.45C220.125 137.531 219.35 136.717 218.495 135.623C217.65 134.529 217.047 133.565 217.167 133.475C217.278 133.384 218.063 134.207 218.918 135.312C219.773 136.416 220.366 137.38 220.246 137.46V137.45Z" fill="#E0E0E0"/>
<path d="M225.839 145.814C225.718 145.884 225.014 145 224.26 143.836C223.515 142.671 223.002 141.657 223.123 141.577C223.244 141.497 223.948 142.38 224.702 143.555C225.457 144.729 225.96 145.743 225.839 145.814Z" fill="#E0E0E0"/>
<path d="M230.758 154.589C230.628 154.659 229.994 153.715 229.34 152.49C228.686 151.266 228.254 150.221 228.384 150.151C228.515 150.081 229.149 151.015 229.803 152.25C230.457 153.474 230.889 154.529 230.758 154.589Z" fill="#E0E0E0"/>
<path d="M234.048 161.396C233.917 161.456 233.575 160.994 233.284 160.372C232.992 159.739 232.861 159.187 232.992 159.127C233.123 159.067 233.465 159.528 233.756 160.161C234.048 160.794 234.179 161.346 234.048 161.406V161.396Z" fill="#E0E0E0"/>
<path d="M110.743 282.9C110.682 282.769 111.145 282.428 111.779 282.147C112.413 281.856 112.976 281.735 113.036 281.866C113.087 281.996 112.624 282.338 112 282.619C111.376 282.9 110.813 283.031 110.743 282.9Z" fill="#E0E0E0"/>
<path d="M102.534 288.332C102.443 288.221 103.198 287.408 104.294 286.585C105.391 285.762 106.387 285.25 106.467 285.37C106.548 285.491 105.693 286.183 104.616 287.007C103.54 287.82 102.634 288.452 102.534 288.342V288.332Z" fill="#E0E0E0"/>
<path d="M95.8438 295.53C95.7231 295.45 96.3367 294.526 97.2119 293.472C98.0872 292.418 98.8819 291.645 98.9825 291.745C99.0831 291.845 98.4795 292.769 97.6143 293.803C96.7492 294.847 95.9544 295.621 95.8438 295.53Z" fill="#E0E0E0"/>
<path d="M90.8641 304.004C90.7333 303.944 91.1357 302.91 91.7695 301.705C92.4033 300.49 93.017 299.566 93.1377 299.637C93.2584 299.707 92.856 300.741 92.2323 301.946C91.6086 303.141 90.9949 304.064 90.8641 304.004Z" fill="#E0E0E0"/>
<path d="M87.7253 313.321C87.5845 313.291 87.7655 312.197 88.1378 310.881C88.51 309.566 88.9224 308.532 89.0532 308.582C89.1941 308.633 89.0029 309.717 88.6408 311.022C88.2786 312.317 87.8661 313.351 87.7253 313.321Z" fill="#E0E0E0"/>
<path d="M86.5684 323.08C86.4276 323.08 86.3773 321.976 86.4679 320.61C86.5584 319.245 86.7395 318.151 86.8904 318.171C87.0312 318.191 87.0815 319.295 86.991 320.641C86.9004 321.986 86.7193 323.08 86.5684 323.08Z" fill="#E0E0E0"/>
<path d="M87.5845 332.849C87.4437 332.879 87.0815 331.825 86.8602 330.479C86.6389 329.124 86.6489 328.01 86.7898 328C86.9407 327.99 87.1519 329.064 87.3733 330.399C87.5845 331.734 87.7254 332.829 87.5845 332.859V332.849Z" fill="#E0E0E0"/>
<path d="M90.8842 342.106C90.7534 342.166 90.1498 341.232 89.6167 339.977C89.0835 338.722 88.8219 337.628 88.9628 337.588C89.1036 337.538 89.5664 338.532 90.0995 339.776C90.6227 341.021 91.015 342.046 90.8842 342.116V342.106Z" fill="#E0E0E0"/>
<path d="M96.2059 350.369C96.0953 350.459 95.3509 349.636 94.5561 348.531C93.7513 347.417 93.2081 346.463 93.3288 346.383C93.4495 346.303 94.194 347.126 94.9887 348.23C95.7834 349.325 96.3267 350.288 96.216 350.379L96.2059 350.369Z" fill="#E0E0E0"/>
<path d="M103.127 357.357C103.037 357.467 102.141 356.815 101.135 355.891C100.119 354.967 99.3849 354.134 99.4955 354.034C99.5961 353.933 100.491 354.586 101.487 355.499C102.483 356.413 103.218 357.236 103.127 357.357Z" fill="#E0E0E0"/>
<path d="M111.286 362.879C111.215 363.009 110.209 362.527 109.043 361.825C107.876 361.112 106.99 360.439 107.071 360.319C107.151 360.198 108.157 360.67 109.314 361.373C110.471 362.076 111.346 362.748 111.286 362.879Z" fill="#E0E0E0"/>
<path d="M120.33 366.764C120.29 366.905 119.213 366.624 117.926 366.142C116.648 365.66 115.652 365.168 115.712 365.027C115.773 364.897 116.849 365.168 118.117 365.65C119.384 366.122 120.38 366.624 120.33 366.764Z" fill="#E0E0E0"/>
<path d="M129.957 368.852C129.937 368.993 128.831 368.933 127.482 368.712C126.134 368.491 125.058 368.19 125.098 368.049C125.128 367.909 126.235 367.969 127.573 368.19C128.911 368.411 129.977 368.702 129.957 368.852Z" fill="#E0E0E0"/>
<path d="M139.806 368.943C139.826 369.083 138.73 369.254 137.361 369.314C135.993 369.374 134.887 369.314 134.887 369.164C134.887 369.023 135.983 368.852 137.341 368.792C138.689 368.732 139.796 368.792 139.816 368.943H139.806Z" fill="#E0E0E0"/>
<path d="M149.443 366.955C149.484 367.095 148.448 367.487 147.12 367.828C145.792 368.17 144.695 368.34 144.665 368.2C144.635 368.059 145.671 367.668 146.989 367.326C148.297 366.985 149.393 366.824 149.443 366.955Z" fill="#E0E0E0"/>
<path d="M158.508 363.099C158.578 363.23 157.632 363.812 156.405 364.405C155.168 364.997 154.131 365.378 154.071 365.238C154.011 365.097 154.956 364.515 156.174 363.933C157.391 363.34 158.437 362.969 158.508 363.099Z" fill="#E0E0E0"/>
<path d="M166.706 357.648C166.797 357.758 165.972 358.501 164.875 359.314C163.769 360.118 162.813 360.68 162.733 360.559C162.652 360.439 163.477 359.696 164.564 358.893C165.66 358.09 166.616 357.537 166.706 357.648Z" fill="#E0E0E0"/>
<path d="M173.829 350.861C173.94 350.951 173.255 351.835 172.31 352.819C171.364 353.802 170.509 354.515 170.419 354.415C170.318 354.315 171.002 353.431 171.938 352.457C172.873 351.483 173.728 350.77 173.829 350.861Z" fill="#E0E0E0"/>
<path d="M179.674 342.939C179.794 343.009 179.281 343.993 178.517 345.128C177.752 346.262 177.038 347.116 176.927 347.025C176.817 346.935 177.33 345.961 178.084 344.837C178.839 343.712 179.553 342.869 179.674 342.939Z" fill="#E0E0E0"/>
<path d="M184.04 334.124C184.171 334.174 183.839 335.228 183.285 336.483C182.732 337.738 182.179 338.692 182.058 338.632C181.927 338.572 182.269 337.507 182.812 336.272C183.356 335.038 183.909 334.074 184.04 334.124Z" fill="#E0E0E0"/>
<path d="M186.213 327.026C186.354 327.056 186.333 327.628 186.152 328.311C185.981 328.983 185.73 329.506 185.589 329.465C185.448 329.425 185.478 328.853 185.649 328.18C185.82 327.518 186.072 326.996 186.213 327.026Z" fill="#E0E0E0"/>
<path d="M288.824 36.4203L243.84 48.4751C242.096 48.9424 241.062 50.7322 241.53 52.4727L249.884 83.521C250.352 85.2614 252.145 86.2935 253.889 85.8262L298.873 73.7714C300.617 73.3041 301.651 71.5143 301.183 69.7738L292.83 38.7255C292.362 36.9851 290.568 35.953 288.824 36.4203Z" fill="#F5F5F5"/>
<path d="M290.847 40.3638C290.847 40.3638 290.746 40.5545 290.515 40.8858L289.499 42.3115C288.553 43.5966 287.255 45.3536 285.666 47.5122C284.026 49.711 282.085 52.3114 279.932 55.1828C278.845 56.6286 277.708 58.1346 276.531 59.7008C275.938 60.4839 275.334 61.2771 274.731 62.0903C274.087 62.9437 273.151 63.5963 272.085 63.8875C271.029 64.1887 269.892 64.1284 268.896 63.7369C267.96 63.3353 267.035 62.9437 266.129 62.5622C264.329 61.7891 262.588 61.0462 260.928 60.3333C257.629 58.9076 254.651 57.6225 252.126 56.5282C249.671 55.4438 247.669 54.5603 246.211 53.9178C245.557 53.6166 245.034 53.3756 244.611 53.1848C244.249 53.0142 244.058 52.9138 244.068 52.8937C244.068 52.8736 244.279 52.9439 244.651 53.0844C245.074 53.2551 245.617 53.466 246.291 53.727C247.77 54.3294 249.792 55.1627 252.267 56.1868C254.802 57.251 257.8 58.506 261.109 59.8916C262.769 60.5944 264.52 61.3273 266.32 62.0903C267.226 62.4718 268.141 62.8534 269.077 63.255C269.972 63.6064 270.988 63.6566 271.934 63.3855C272.88 63.1144 273.725 62.5421 274.298 61.7791C274.912 60.9759 275.515 60.1827 276.109 59.3996C277.296 57.8434 278.443 56.3374 279.529 54.9017C281.712 52.0503 283.684 49.4801 285.354 47.3014C286.994 45.193 288.342 43.4561 289.318 42.2011C289.77 41.6388 290.132 41.187 290.414 40.8256C290.666 40.5144 290.807 40.3537 290.827 40.3738L290.847 40.3638Z" fill="#E0E0E0"/>
<path d="M264.6 61.6386C264.721 61.7088 262.206 66.0562 258.987 71.3372C255.757 76.6182 253.041 80.835 252.921 80.7648C252.8 80.6945 255.315 76.3472 258.534 71.0661C261.763 65.7851 264.479 61.5683 264.6 61.6386Z" fill="#E0E0E0"/>
<path d="M277.296 58.2351C277.366 58.1146 281.722 60.6246 287.014 63.8374C292.305 67.0603 296.531 69.7711 296.46 69.8916C296.39 70.012 292.034 67.502 286.742 64.2892C281.451 61.0664 277.225 58.3556 277.296 58.2351Z" fill="#E0E0E0"/>
<path d="M450.831 162.279C437.089 162.279 425.953 151.165 425.953 137.45C425.953 123.736 437.089 112.622 450.831 112.622C464.573 112.622 475.709 123.736 475.709 137.45C475.709 151.165 464.573 162.279 450.831 162.279Z" fill="#EBEBEB"/>
<path d="M447.038 152.46H453.094V137.33H457.319L457.772 132.26H453.094V129.378C453.094 128.184 453.336 127.712 454.493 127.712H457.772V122.451H453.577C449.07 122.451 447.038 124.429 447.038 128.224V132.26H443.889V137.39H447.038V152.46Z" fill="white"/>
<path d="M140.47 429.062C141.154 432.044 139.293 435.006 136.305 435.688C133.317 436.371 130.35 434.514 129.665 431.532C128.981 428.55 130.842 425.588 133.83 424.905C136.818 424.223 139.786 426.08 140.47 429.062Z" fill="#EBEBEB"/>
<path d="M114.314 435.146L155.862 425.619L152.24 422.988C149.997 421.362 148.417 418.972 147.804 416.281L145.218 405.037C143.297 396.693 134.967 391.483 126.597 393.4C118.237 395.318 113.016 403.631 114.938 411.984L117.423 422.797C117.996 425.307 117.714 427.928 116.618 430.257L114.314 435.157V435.146Z" fill="#EBEBEB"/>
<path d="M125.281 388.573L124.751 388.694C123.771 388.919 123.159 389.894 123.384 390.872L124.557 395.97C124.782 396.948 125.759 397.559 126.739 397.335L127.268 397.213C128.249 396.989 128.861 396.014 128.636 395.035L127.463 389.937C127.238 388.959 126.261 388.348 125.281 388.573Z" fill="#EBEBEB"/>
<path d="M155.892 425.709C155.912 425.799 146.687 427.978 135.299 430.588C123.901 433.199 114.646 435.247 114.626 435.156C114.606 435.066 123.831 432.887 135.229 430.277C146.627 427.667 155.882 425.629 155.892 425.709Z" fill="#E0E0E0"/>
<path d="M129.716 431.703C129.716 431.703 132.392 433.048 135.37 432.365C138.911 431.552 140.51 429.223 140.51 429.223L129.706 431.692L129.716 431.703Z" fill="#E0E0E0"/>
<path d="M142.693 403.551C142.562 403.079 142.411 402.587 142.069 402.225C141.727 401.864 141.144 401.693 140.731 401.964C140.228 402.195 139.957 402.737 140.078 403.279C140.48 405.057 141.365 408.992 141.808 411.352C142.17 413.289 142.361 415.408 141.466 417.165C140.772 418.52 139.454 419.474 138.045 420.066C136.637 420.659 135.118 420.93 133.619 421.251C131.728 421.653 129.836 422.155 128.106 423.008C127.643 423.239 127.171 423.51 126.889 423.942C126.607 424.374 126.597 425.016 126.99 425.357C127.352 425.669 127.885 425.618 128.348 425.558C133.176 424.896 138.035 424.143 142.623 422.496C143.578 422.155 144.574 421.733 145.148 420.9C145.802 419.956 145.751 418.711 145.641 417.566C145.168 412.807 144.011 408.149 142.693 403.551Z" fill="#E0E0E0"/>
<g opacity="0.2">
<path d="M122.664 397.004C122.664 397.004 122.684 397.004 122.694 396.994C122.714 396.994 122.724 396.974 122.744 396.964L122.664 397.004Z" fill="white"/>
</g>
<path d="M136.023 394.093C136.003 394.153 135.088 393.762 133.529 393.45C132.754 393.29 131.808 393.179 130.762 393.149C129.716 393.139 128.559 393.199 127.372 393.41C126.185 393.631 125.078 393.962 124.102 394.344C123.137 394.736 122.281 395.167 121.617 395.589C120.259 396.422 119.535 397.105 119.495 397.055C119.485 397.035 119.656 396.864 119.988 396.563C120.149 396.402 120.36 396.221 120.611 396.041C120.863 395.85 121.145 395.619 121.497 395.408C122.161 394.956 123.016 394.505 123.992 394.083C124.977 393.681 126.104 393.33 127.321 393.109C128.539 392.898 129.716 392.838 130.782 392.868C131.848 392.928 132.804 393.049 133.589 393.25C133.981 393.33 134.333 393.45 134.635 393.541C134.947 393.631 135.198 393.732 135.41 393.822C135.822 393.993 136.054 394.103 136.044 394.123L136.023 394.093Z" fill="#E0E0E0"/>
<path d="M117.584 429.403C117.493 429.363 118.026 428.068 118.217 426.371C118.429 424.675 118.217 423.289 118.308 423.279C118.378 423.259 118.75 424.665 118.529 426.411C118.328 428.168 117.644 429.444 117.573 429.403H117.584Z" fill="white"/>
<path d="M136.687 434.484C136.687 434.484 136.406 434.724 135.852 434.885C135.299 435.046 134.474 435.126 133.609 434.885C132.744 434.654 132.07 434.162 131.678 433.751C131.275 433.329 131.124 433.008 131.164 432.988C131.205 432.957 131.416 433.239 131.839 433.59C132.251 433.941 132.895 434.363 133.7 434.584C134.504 434.805 135.269 434.765 135.812 434.674C136.355 434.584 136.677 434.453 136.697 434.494L136.687 434.484Z" fill="white"/>
<path d="M124.535 389.284C124.615 389.334 124.193 389.936 124.153 390.79C124.082 391.643 124.414 392.286 124.334 392.326C124.273 392.386 123.76 391.733 123.831 390.769C123.891 389.806 124.485 389.223 124.535 389.284Z" fill="white"/>
<path d="M39.4172 159.83C40.5641 159.137 41.7813 158.615 43.0388 158.253L43.7833 154.669L49.8494 154.559L50.7247 158.113C51.9922 158.424 53.2296 158.906 54.4066 159.559L57.4749 157.551L61.841 161.757L59.9396 164.88C60.6338 166.024 61.1569 167.239 61.519 168.504L65.1105 169.247L65.2211 175.301L61.6599 176.175C61.348 177.44 60.8651 178.675 60.2112 179.849L62.2232 182.912L58.0081 187.269L54.8694 185.371C53.7225 186.064 52.5053 186.586 51.2377 186.948L50.4933 190.532L44.4271 190.642L43.5519 187.088C42.2843 186.777 41.0469 186.295 39.8699 185.642L36.8016 187.65L32.4356 183.444L34.3369 180.321C33.6428 179.177 33.1197 177.962 32.7575 176.697L29.1661 175.954L29.0554 169.9L32.6167 169.026C32.9285 167.761 33.4114 166.526 34.0653 165.352L32.0533 162.289L36.2684 157.932L39.4072 159.83H39.4172ZM42.6465 167.892C40.1516 170.472 40.222 174.588 42.8074 177.078C45.3929 179.568 49.5175 179.498 52.0123 176.918C54.5072 174.337 54.4368 170.221 51.8514 167.731C49.266 165.241 45.1514 165.311 42.6465 167.892Z" fill="#EBEBEB"/>
<path d="M449.463 304.867C450.579 304.195 451.756 303.683 452.984 303.341L453.708 299.867L459.593 299.767L460.438 303.221C461.676 303.522 462.873 303.994 464.01 304.626L466.987 302.679L471.223 306.765L469.382 309.797C470.056 310.911 470.569 312.096 470.911 313.311L474.391 314.034L474.492 319.907L471.031 320.751C470.73 321.986 470.257 323.18 469.623 324.315L471.575 327.287L467.48 331.514L464.442 329.676C463.325 330.349 462.138 330.861 460.921 331.202L460.197 334.676L454.312 334.777L453.467 331.323C452.229 331.022 451.032 330.55 449.895 329.917L446.918 331.865L442.682 327.779L444.523 324.747C443.849 323.632 443.336 322.457 442.994 321.233L439.513 320.51L439.413 314.636L442.873 313.793C443.175 312.558 443.648 311.363 444.282 310.229L442.33 307.257L446.425 303.03L449.463 304.867ZM452.601 312.699C450.177 315.209 450.247 319.194 452.762 321.614C455.277 324.034 459.271 323.963 461.696 321.453C464.12 318.943 464.05 314.958 461.535 312.538C459.02 310.118 455.026 310.189 452.601 312.699Z" fill="#EBEBEB"/>
<path d="M473.727 455.197C473.727 455.337 374.405 455.458 251.925 455.458C129.444 455.458 30.1016 455.337 30.1016 455.197C30.1016 455.056 129.394 454.936 251.925 454.936C374.455 454.936 473.727 455.056 473.727 455.197Z" fill="#263238"/>
<path d="M306.671 143.745L137.975 158.926C115.491 160.954 99.0226 182.038 101.196 206.033L110.089 304.415C112.252 328.411 132.241 346.212 154.725 344.194L220.205 338.3C222.187 338.119 224.139 338.993 225.416 340.629L243.937 364.153C246.673 367.627 251.794 367.175 253.866 363.26L267.87 336.804C268.845 334.967 270.606 333.762 272.588 333.581L323.421 329.003C345.905 326.975 362.373 305.891 360.2 281.895L351.307 183.514C349.144 159.518 329.155 141.717 306.671 143.735V143.745Z" fill="white"/>
<path d="M306.671 143.745C306.671 143.745 307.395 143.705 308.824 143.645C309.176 143.635 309.578 143.615 310.021 143.595C310.464 143.575 310.947 143.545 311.47 143.595C312.526 143.675 313.743 143.735 315.132 143.866C315.816 143.986 316.54 144.117 317.305 144.247C318.069 144.398 318.884 144.478 319.699 144.749C320.524 144.99 321.389 145.231 322.284 145.492C323.19 145.733 324.075 146.175 325.021 146.527C328.763 148.073 332.908 150.422 336.841 153.956C340.775 157.47 344.487 162.179 347.203 168.002C347.535 168.735 347.867 169.478 348.199 170.221C348.551 170.964 348.752 171.777 349.044 172.56C349.305 173.353 349.607 174.147 349.839 174.97C350.04 175.803 350.231 176.637 350.432 177.49C351.237 180.883 351.509 184.508 351.851 188.223C353.209 203.112 354.748 220.07 356.458 238.804C357.313 248.171 358.198 257.991 359.134 268.221C359.365 270.782 359.597 273.362 359.838 275.972C359.959 277.277 360.08 278.583 360.2 279.908L360.381 281.886L360.472 283.894C360.734 289.245 360.09 294.747 358.4 300.048C356.72 305.339 354.003 310.43 350.321 314.837C346.64 319.255 341.982 322.99 336.62 325.55C333.954 326.865 331.087 327.779 328.159 328.461C327.435 328.692 326.67 328.722 325.936 328.853L323.693 329.174C322.194 329.335 320.685 329.455 319.176 329.596C313.13 330.138 306.993 330.7 300.786 331.252C294.579 331.815 288.291 332.377 281.934 332.949C278.755 333.24 275.566 333.532 272.356 333.823C270.817 334.013 269.399 334.917 268.503 336.182C268.061 336.805 267.729 337.568 267.337 338.27L266.2 340.429C263.152 346.192 260.073 352.005 256.965 357.879C256.19 359.344 255.405 360.82 254.631 362.296C254.238 363.019 253.886 363.812 253.303 364.475C252.75 365.137 252.055 365.7 251.261 366.091C249.681 366.864 247.76 366.884 246.15 366.172C245.335 365.82 244.631 365.268 244.038 364.615C243.444 363.963 242.971 363.29 242.438 362.627C238.243 357.306 234.018 351.935 229.762 346.523C228.696 345.168 227.63 343.813 226.563 342.457C226.03 341.784 225.497 341.082 224.954 340.439C224.4 339.817 223.716 339.315 222.962 338.973C222.197 338.632 221.372 338.471 220.537 338.491C219.702 338.542 218.807 338.642 217.952 338.712C216.212 338.873 214.471 339.023 212.731 339.184C198.778 340.439 184.623 341.714 170.298 343.009C166.716 343.331 163.145 343.652 159.584 343.973C156.033 344.284 152.451 344.706 148.88 344.445C147.985 344.375 147.089 344.335 146.214 344.234L143.578 343.762C143.146 343.682 142.703 343.622 142.271 343.511L140.993 343.14L138.438 342.387L135.973 341.383L134.746 340.881L133.569 340.258L131.225 339.023L129.012 337.568C123.116 333.672 118.479 328.17 115.169 322.106C114.958 321.725 114.726 321.363 114.545 320.972L114.012 319.787L112.956 317.417C112.644 316.614 112.392 315.791 112.111 314.978C111.859 314.154 111.507 313.361 111.336 312.518C110.451 309.205 109.958 305.791 109.676 302.428C107.242 275.45 104.898 249.437 102.664 224.648C102.111 218.453 101.558 212.329 101.015 206.295C100.451 200.231 101.015 194.126 102.765 188.464C106.185 177.108 114.163 167.56 124.173 162.631L126.044 161.707L127.985 160.984C128.629 160.743 129.273 160.492 129.927 160.271L131.919 159.759C132.583 159.599 133.247 159.408 133.911 159.257L135.933 158.966L137.945 158.675L139.947 158.494C145.279 158.022 150.5 157.55 155.63 157.089C165.881 156.175 175.72 155.291 185.116 154.448C222.68 151.105 253.071 148.394 274.087 146.527C284.589 145.603 292.738 144.89 298.281 144.398C301.038 144.157 303.15 143.976 304.569 143.856C305.987 143.735 306.711 143.685 306.711 143.685C306.711 143.685 305.987 143.766 304.569 143.906C303.15 144.037 301.038 144.237 298.281 144.498C292.748 145.011 284.599 145.753 274.097 146.727C253.092 148.635 222.7 151.406 185.146 154.82C175.76 155.673 165.922 156.557 155.671 157.49C150.55 157.952 145.319 158.424 139.987 158.906L137.985 159.087L135.993 159.378L133.991 159.669C133.337 159.82 132.683 160 132.03 160.161L130.058 160.663C129.414 160.874 128.78 161.135 128.136 161.366L126.215 162.089L124.364 163.002C114.465 167.882 106.578 177.329 103.198 188.584C101.467 194.196 100.914 200.231 101.477 206.244C102.021 212.279 102.584 218.403 103.137 224.598C105.381 249.386 107.735 275.4 110.179 302.367C110.461 305.741 110.954 309.084 111.829 312.377C111.99 313.211 112.342 313.994 112.594 314.807C112.875 315.61 113.117 316.423 113.429 317.217L114.475 319.556L114.998 320.731C115.179 321.112 115.41 321.484 115.622 321.855C118.901 327.849 123.479 333.281 129.303 337.126L131.486 338.562L133.8 339.786L134.957 340.399L136.174 340.891L138.609 341.875L141.134 342.618L142.401 342.989C142.824 343.09 143.267 343.15 143.699 343.24L146.295 343.712C147.17 343.823 148.055 343.853 148.93 343.923C152.451 344.194 155.992 343.772 159.554 343.461C163.115 343.14 166.686 342.819 170.268 342.497C184.593 341.212 198.747 339.937 212.701 338.682C214.441 338.521 216.181 338.371 217.922 338.21C218.797 338.14 219.642 338.04 220.537 337.989C221.453 337.959 222.358 338.15 223.193 338.511C224.018 338.883 224.763 339.435 225.366 340.108C225.94 340.801 226.453 341.473 226.996 342.156C228.062 343.511 229.129 344.867 230.195 346.222C234.46 351.634 238.686 357.005 242.871 362.326C243.394 362.979 243.907 363.692 244.45 364.284C244.993 364.876 245.647 365.399 246.392 365.71C247.87 366.372 249.621 366.352 251.069 365.639C251.794 365.278 252.428 364.766 252.941 364.154C253.464 363.551 253.806 362.798 254.208 362.055C254.993 360.579 255.768 359.103 256.542 357.638C259.651 351.764 262.739 345.941 265.787 340.188L266.934 338.029C267.326 337.317 267.648 336.584 268.141 335.881C269.117 334.505 270.656 333.532 272.336 333.321C275.556 333.03 278.755 332.738 281.934 332.447C288.291 331.875 294.579 331.313 300.786 330.75C306.993 330.198 313.12 329.646 319.176 329.104C320.685 328.963 322.194 328.843 323.693 328.682L325.916 328.361C326.65 328.23 327.405 328.2 328.119 327.979C331.016 327.307 333.843 326.403 336.479 325.108C341.781 322.578 346.388 318.883 350.03 314.526C353.681 310.158 356.368 305.128 358.037 299.888C359.717 294.637 360.361 289.185 360.1 283.884L360.019 281.896L359.838 279.918C359.717 278.603 359.607 277.288 359.486 275.982C359.255 273.372 359.023 270.792 358.792 268.231C357.877 258.001 356.991 248.182 356.146 238.814C354.466 220.07 352.947 203.112 351.609 188.223C351.277 184.498 351.006 180.893 350.211 177.52C350.01 176.677 349.818 175.843 349.617 175.02C349.376 174.207 349.084 173.414 348.823 172.62C348.541 171.837 348.34 171.034 347.988 170.291C347.656 169.548 347.324 168.805 347.002 168.082C344.306 162.289 340.624 157.601 336.73 154.087C332.827 150.553 328.713 148.203 324.98 146.647C324.035 146.286 323.159 145.844 322.254 145.603C321.359 145.342 320.494 145.091 319.679 144.85C318.864 144.569 318.049 144.488 317.294 144.338C316.53 144.197 315.806 144.067 315.132 143.946C313.753 143.806 312.536 143.745 311.48 143.655C310.957 143.595 310.474 143.615 310.031 143.635C309.589 143.645 309.196 143.665 308.834 143.675C307.416 143.715 306.681 143.725 306.681 143.725L306.671 143.745Z" fill="#263238"/>
<path d="M394.322 108.618C397.673 89.9182 385.2 72.0474 366.462 68.7029C347.725 65.3584 329.818 77.8067 326.467 96.5069C323.116 115.207 335.589 133.078 354.327 136.422C373.064 139.767 390.971 127.319 394.322 108.618Z" fill="#FF725E"/>
<g opacity="0.3">
<path d="M394.322 108.618C397.673 89.9182 385.2 72.0474 366.462 68.7029C347.725 65.3584 329.818 77.8067 326.467 96.5069C323.116 115.207 335.589 133.078 354.327 136.422C373.064 139.767 390.971 127.319 394.322 108.618Z" fill="black"/>
</g>
<path d="M378.738 127.956C394.887 117.9 399.811 96.6827 389.735 80.5654C379.66 64.448 358.4 59.534 342.251 69.5896C326.101 79.6452 321.177 100.863 331.253 116.98C341.329 133.097 362.588 138.011 378.738 127.956Z" fill="#FF725E"/>
<path d="M383.438 101.298C384.835 88.6492 375.693 77.2649 363.018 75.8707C350.344 74.4764 338.937 83.6002 337.54 96.2493C336.143 108.898 345.285 120.283 357.959 121.677C370.634 123.071 382.041 113.947 383.438 101.298Z" fill="white"/>
<path d="M371.79 99.0477C371.639 105.272 366.448 110.192 360.211 110.041C353.974 109.891 349.044 104.71 349.195 98.4854C349.346 92.2606 354.537 87.341 360.774 87.4916C367.011 87.6422 371.941 92.8229 371.79 99.0477Z" fill="#FF725E"/>
<path d="M385.14 74.1988L384.385 66.8394L392.061 59.0283L392.403 66.9599L385.14 74.1988Z" fill="#455A64"/>
<path d="M401.346 68.7568L393.771 67.9536L385.974 75.072L393.57 76.0659L401.346 68.7568Z" fill="#455A64"/>
<g opacity="0.3">
<path d="M362.001 98.646L388.852 79.2286C387.986 77.8732 386.89 76.5078 385.653 75.1323L362.052 96.8589L362.012 98.646H362.001Z" fill="black"/>
</g>
<path d="M392.745 65.8654C389.083 69.3493 385.411 72.8232 381.749 76.307C375.935 81.8291 370.12 87.3511 364.305 92.8731C362.967 94.1381 361.629 95.4132 360.291 96.6782C359.024 97.883 360.905 99.8408 362.183 98.636C365.844 95.1521 369.516 91.6783 373.178 88.1944C378.993 82.6724 384.807 77.1504 390.622 71.6284C391.96 70.3634 393.298 69.0883 394.636 67.8232C395.904 66.6184 394.022 64.6606 392.745 65.8654Z" fill="#263238"/>
<g opacity="0.2">
<path d="M327.958 226.877C327.525 216.977 325.725 207.088 323.522 197.239C323.008 195.06 322.495 192.881 321.982 190.713C321.449 188.554 320.836 186.426 320.262 184.287C319.156 180.01 317.888 175.813 316.6 171.667C314.126 163.324 310.343 153.233 307.426 145.372C302.305 143.545 295.766 143.274 288.02 144.328L231.432 152.48C219.813 163.846 209.109 172.631 200.266 179.127C200.146 178.344 200.025 177.57 199.914 176.787L151.365 198.855C142.24 204.538 137.542 216.345 143.015 229.959L148.387 244.798L152.109 252.429C156.435 261.284 165.077 265.752 173.155 263.965L172.652 264.165C172.853 264.095 173.054 264.015 173.255 263.945C174.674 263.623 176.072 263.121 177.43 262.398C178.416 262.027 179.392 261.665 180.358 261.294L220.256 312.518C223.173 316.263 228.575 316.143 231.352 312.287L244.198 294.426C246.613 291.063 245.989 286.253 242.81 283.713C234.48 277.087 219.632 264.366 214.21 254.065C214.008 253.633 212.439 250.119 212.268 248.473C214.803 247.429 217.409 246.365 220.085 245.27C223.032 244.658 226.05 244.075 229.149 243.513C235.547 242.389 242.277 241.385 249.299 240.923C256.311 240.441 263.614 240.923 271.109 241.877C286.149 243.734 301.812 247.64 318.361 251.415L319.166 251.555L320.091 251.515C320.715 251.505 321.248 251.144 321.811 250.943C322.284 250.571 322.787 250.22 323.23 249.808L324.377 248.393C325.624 246.314 326.56 244.005 326.992 241.596C327.988 236.806 328.23 231.827 327.948 226.887L327.958 226.877Z" fill="black"/>
</g>
<path d="M162.642 192.911C162.642 192.911 182.953 185.2 214.491 158.564C237.549 139.087 255.093 116.557 262.86 105.854C266.592 100.714 273.573 99.489 278.573 103.314C286.289 109.218 297.426 124.599 311.107 164.669C335.231 235.3 322.284 249.898 316.399 249.205C310.514 248.503 271.38 237.91 246.14 238.463C220.899 239.025 183.054 249.366 183.054 249.366L162.642 192.921V192.911Z" fill="#E0E0E0"/>
<path d="M162.642 192.911C162.642 192.911 162.773 193.243 163.014 193.885C163.256 194.538 163.608 195.492 164.071 196.747C164.996 199.277 166.354 202.992 168.125 207.821C171.646 217.479 176.766 231.565 183.225 249.296L183.024 249.196C194.08 246.264 206.695 243.332 220.718 240.963C227.73 239.808 235.104 238.784 242.81 238.383C250.526 237.961 258.544 238.533 266.733 239.537C274.922 240.561 283.302 242.047 291.853 243.764C296.128 244.617 300.454 245.551 304.81 246.515C306.993 246.997 309.186 247.479 311.389 247.961C312.496 248.202 313.602 248.433 314.709 248.653C315.262 248.764 315.816 248.844 316.369 248.935C316.902 248.975 317.435 248.945 317.948 248.764C318.985 248.443 319.87 247.71 320.604 246.876C321.328 246.023 321.902 245.039 322.395 244.025C323.34 241.957 323.904 239.718 324.286 237.439C325.031 232.871 325 228.162 324.719 223.453C324.075 214.026 322.214 204.548 319.9 195.09C317.818 186.596 315.323 178.313 312.677 170.211C310.021 162.109 307.204 154.197 304.156 146.537C301.098 138.876 297.848 131.447 294.106 124.449C292.245 120.955 290.233 117.571 288.07 114.358C285.897 111.156 283.513 108.124 280.777 105.533C280.103 104.871 279.378 104.268 278.654 103.686C278.302 103.375 277.899 103.154 277.527 102.883C277.125 102.662 276.733 102.421 276.31 102.24C274.64 101.507 272.789 101.156 270.978 101.357C269.177 101.537 267.427 102.15 265.958 103.164L265.405 103.545L264.892 103.977C264.54 104.248 264.238 104.579 263.926 104.901C263.333 105.553 262.809 106.276 262.276 107.009C258.021 112.812 253.685 118.294 249.339 123.465C240.657 133.816 231.945 142.932 223.535 150.753C206.574 166.265 191.263 176.998 180.307 183.695C174.815 187.028 170.388 189.357 167.34 190.823C165.821 191.566 164.634 192.078 163.839 192.419C163.034 192.761 162.622 192.901 162.622 192.901C162.773 192.831 163.095 192.691 163.819 192.369C164.614 192.018 165.781 191.486 167.3 190.723C170.328 189.227 174.734 186.867 180.207 183.514C185.669 180.151 192.198 175.763 199.492 170.291C201.303 168.916 203.204 167.51 205.095 165.974C207.007 164.468 208.978 162.912 210.96 161.245C214.974 157.982 219.079 154.378 223.284 150.482C231.674 142.651 240.345 133.535 249.007 123.184C253.343 118.013 257.659 112.531 261.904 106.738C262.427 106.015 262.96 105.272 263.584 104.59C263.906 104.258 264.218 103.917 264.58 103.626L265.113 103.174L265.687 102.782C267.226 101.728 269.047 101.086 270.928 100.895C272.809 100.684 274.751 101.045 276.501 101.808C276.944 101.999 277.356 102.25 277.769 102.481C278.161 102.762 278.584 103.003 278.936 103.314C279.68 103.907 280.414 104.519 281.099 105.192C283.875 107.822 286.279 110.875 288.462 114.087C290.645 117.32 292.657 120.704 294.529 124.218C298.281 131.236 301.54 138.685 304.609 146.356C307.667 154.037 310.494 161.948 313.15 170.06C315.795 178.173 318.3 186.466 320.383 194.98C322.697 204.457 324.568 213.955 325.212 223.433C325.503 228.162 325.524 232.911 324.769 237.529C324.377 239.838 323.803 242.117 322.827 244.246C322.314 245.29 321.721 246.314 320.956 247.208C320.182 248.091 319.236 248.874 318.079 249.246C317.516 249.447 316.882 249.497 316.288 249.437C315.725 249.336 315.152 249.256 314.588 249.145C313.472 248.925 312.355 248.694 311.258 248.453C309.055 247.971 306.862 247.479 304.679 247.007C300.313 246.043 296.007 245.109 291.732 244.246C283.191 242.529 274.821 241.033 266.652 239.999C258.484 238.985 250.496 238.403 242.81 238.814C235.124 239.206 227.77 240.22 220.759 241.354C206.755 243.694 194.13 246.605 183.084 249.507L182.933 249.547L182.883 249.406C176.485 231.606 171.404 217.469 167.924 207.781C166.193 202.951 164.865 199.237 163.96 196.707C163.517 195.462 163.175 194.508 162.954 193.865C162.733 193.223 162.622 192.911 162.622 192.911H162.642Z" fill="#263238"/>
<g opacity="0.3">
<path d="M306.842 168.836C319.437 206.516 323.2 239.407 315.232 242.298C307.265 245.2 290.595 216.997 277.99 179.317C265.395 141.637 261.632 108.746 269.6 105.855C277.568 102.953 294.237 131.155 306.842 168.836Z" fill="black"/>
</g>
<path d="M271.35 157.139C271.35 157.139 290.304 147.159 298.08 173.685C305.856 200.21 286.571 202.57 286.571 202.57C279.851 189.176 274.731 174.086 271.35 157.139Z" fill="white"/>
<path d="M143.498 221.927L151.294 249.075C152.3 252.569 155.64 254.858 159.262 254.547C161.747 254.336 164.171 255.34 165.761 257.258L210.477 310.892C213.596 314.637 219.39 314.516 222.358 310.661L236.11 292.8C238.696 289.436 238.032 284.627 234.621 282.087C224.521 274.567 205.437 259.226 202.258 248.453C200.236 241.596 200.498 238.232 201.343 236.596C202.46 234.447 202.751 231.967 201.796 229.748L194.894 213.654C193.607 210.642 190.518 208.795 187.249 209.076L150.148 212.269C145.379 212.68 142.17 217.329 143.488 221.927H143.498Z" fill="#FF725E"/>
<path opacity="0.3" d="M165.901 257.418L174.201 267.378L204.039 252.479C204.039 252.479 201.735 247.8 201.926 246.395L165.901 257.418Z" fill="black"/>
<path d="M127.804 228.343L133.559 243.182L137.542 250.812C143.005 261.274 154.936 265.641 164.674 260.762L215.97 241.485C200.629 222.389 192.359 199.889 188.697 175.171L136.738 197.239C126.969 202.921 121.939 214.728 127.804 228.343Z" fill="#FF725E"/>
<path d="M184.02 198.665C184.17 199.026 174.724 203.484 162.924 208.624C151.113 213.765 141.416 217.63 141.265 217.269C141.114 216.907 150.55 212.449 162.36 207.309C174.161 202.168 183.859 198.303 184.02 198.665Z" fill="#263238"/>
<path d="M187.229 206.365C187.38 206.727 177.933 211.184 166.133 216.325C154.322 221.465 144.625 225.331 144.474 224.969C144.323 224.608 153.759 220.15 165.57 215.01C177.37 209.869 187.068 206.004 187.229 206.365Z" fill="#263238"/>
<path d="M190.438 214.066C190.589 214.427 181.142 218.885 169.342 224.026C157.532 229.166 147.844 233.031 147.683 232.67C147.532 232.309 156.968 227.851 168.779 222.71C180.579 217.57 190.277 213.704 190.438 214.066Z" fill="#263238"/>
<path d="M193.647 221.767C193.798 222.128 184.351 226.586 172.551 231.726C160.741 236.867 151.053 240.732 150.892 240.371C150.741 240.009 160.187 235.552 171.988 230.411C183.788 225.271 193.486 221.405 193.647 221.767Z" fill="#263238"/>
<path d="M215.98 241.475C215.98 241.475 215.799 241.586 215.427 241.746C215.005 241.917 214.461 242.138 213.807 242.419C212.329 243.001 210.296 243.814 207.802 244.798C202.731 246.786 195.72 249.537 187.943 252.499C180.167 255.471 173.085 258.041 167.934 259.818C165.358 260.712 163.266 261.405 161.807 261.866C161.123 262.077 160.57 262.258 160.127 262.388C159.745 262.499 159.534 262.559 159.534 262.539C159.534 262.519 159.725 262.439 160.097 262.288C160.53 262.127 161.073 261.927 161.737 261.676C163.236 261.133 165.288 260.38 167.803 259.467C172.924 257.609 179.986 254.979 187.752 252.007C195.498 249.065 202.51 246.405 207.661 244.447C210.176 243.523 212.228 242.77 213.727 242.228C214.401 241.997 214.954 241.796 215.387 241.656C215.769 241.525 215.97 241.475 215.98 241.485V241.475Z" fill="#263238"/>
<path d="M306.027 237.65C306.027 237.65 305.957 237.569 305.836 237.399C305.705 237.208 305.544 236.957 305.333 236.636C304.88 235.933 304.247 234.949 303.442 233.694C301.832 231.114 299.549 227.359 296.883 222.62C291.571 213.152 284.821 199.678 279.177 184.076C276.34 176.285 274.047 168.705 272.266 161.747C271.793 160.01 271.401 158.304 271.018 156.647C270.636 154.99 270.274 153.384 269.912 151.828C269.218 148.715 268.554 145.814 267.99 143.153C266.854 137.842 266.149 133.495 265.807 130.473C265.626 128.967 265.526 127.792 265.465 126.989C265.445 126.617 265.425 126.316 265.405 126.085C265.405 125.884 265.395 125.774 265.405 125.774C265.405 125.774 265.435 125.874 265.455 126.075L265.566 126.979C265.656 127.772 265.787 128.947 265.999 130.443C266.401 133.444 267.165 137.772 268.342 143.063C268.946 145.713 269.61 148.605 270.324 151.717C270.686 153.273 271.069 154.88 271.451 156.526C271.843 158.183 272.246 159.88 272.719 161.607C274.529 168.544 276.823 176.094 279.65 183.875C285.284 199.447 291.963 212.921 297.185 222.419C299.8 227.168 302.033 230.953 303.593 233.563C304.357 234.838 304.971 235.842 305.393 236.555C305.585 236.877 305.736 237.138 305.856 237.338C305.957 237.519 306.007 237.609 305.997 237.62L306.027 237.65Z" fill="#263238"/>
<path d="M198.969 119.82C184.533 119.82 172.833 108.144 172.833 93.7363C172.833 79.3289 184.533 67.6523 198.969 67.6523C213.405 67.6523 225.105 79.3289 225.105 93.7363C225.105 108.144 213.405 119.82 198.969 119.82Z" fill="#455A64"/>
<path d="M198.969 82.0095C202.792 82.0095 203.244 82.0195 204.763 82.0898C206.162 82.15 206.916 82.391 207.429 82.5818C208.093 82.8428 208.576 83.154 209.079 83.656C209.582 84.158 209.894 84.6299 210.155 85.3026C210.357 85.8046 210.588 86.5676 210.648 87.9632C210.719 89.4692 210.729 89.921 210.729 93.7462C210.729 97.5715 210.719 98.0132 210.648 99.5293C210.588 100.925 210.347 101.678 210.155 102.19C209.894 102.863 209.582 103.334 209.079 103.836C208.576 104.338 208.103 104.65 207.429 104.911C206.926 105.112 206.162 105.342 204.763 105.403C203.254 105.473 202.802 105.483 198.969 105.483C195.136 105.483 194.693 105.473 193.174 105.403C191.776 105.342 191.021 105.101 190.508 104.911C189.844 104.65 189.361 104.338 188.858 103.836C188.355 103.334 188.044 102.863 187.782 102.19C187.591 101.688 187.349 100.925 187.289 99.5293C187.219 98.0233 187.209 97.5715 187.209 93.7462C187.209 89.921 187.219 89.4792 187.289 87.9632C187.349 86.5676 187.591 85.8146 187.782 85.3026C188.044 84.64 188.355 84.158 188.858 83.656C189.361 83.154 189.834 82.8428 190.508 82.5818C191.011 82.381 191.776 82.15 193.174 82.0898C194.683 82.0195 195.136 82.0095 198.969 82.0095ZM198.969 79.4292C195.076 79.4292 194.593 79.4493 193.064 79.5196C191.534 79.5898 190.498 79.8308 189.583 80.1822C188.637 80.5436 187.842 81.0356 187.048 81.8288C186.253 82.6219 185.76 83.4251 185.398 84.3588C185.046 85.2725 184.804 86.3066 184.734 87.8327C184.663 89.3588 184.643 89.8407 184.643 93.7262C184.643 97.6116 184.663 98.0936 184.734 99.6196C184.804 101.146 185.046 102.18 185.398 103.093C185.76 104.037 186.253 104.83 187.048 105.624C187.842 106.417 188.647 106.909 189.583 107.27C190.498 107.622 191.534 107.862 193.064 107.933C194.593 108.003 195.076 108.023 198.969 108.023C202.862 108.023 203.345 108.003 204.874 107.933C206.403 107.862 207.439 107.622 208.355 107.27C209.3 106.909 210.095 106.417 210.89 105.624C211.685 104.83 212.178 104.027 212.54 103.093C212.892 102.18 213.133 101.146 213.204 99.6196C213.274 98.0936 213.294 97.6116 213.294 93.7262C213.294 89.8407 213.274 89.3588 213.204 87.8327C213.133 86.3066 212.892 85.2725 212.54 84.3588C212.178 83.4151 211.685 82.6219 210.89 81.8288C210.095 81.0356 209.29 80.5436 208.355 80.1822C207.439 79.8308 206.403 79.5898 204.874 79.5196C203.345 79.4493 202.862 79.4292 198.969 79.4292Z" fill="white"/>
<path d="M198.969 86.3867C194.905 86.3867 191.605 89.6798 191.605 93.736C191.605 97.7922 194.905 101.085 198.969 101.085C203.033 101.085 206.333 97.7922 206.333 93.736C206.333 89.6798 203.033 86.3867 198.969 86.3867ZM198.969 98.495C196.333 98.495 194.19 96.3564 194.19 93.726C194.19 91.0955 196.333 88.957 198.969 88.957C201.604 88.957 203.747 91.0955 203.747 93.726C203.747 96.3564 201.604 98.495 198.969 98.495Z" fill="white"/>
<path d="M208.345 86.0958C208.345 87.0395 207.57 87.8126 206.624 87.8126C205.679 87.8126 204.904 87.0395 204.904 86.0958C204.904 85.152 205.679 84.3789 206.624 84.3789C207.57 84.3789 208.345 85.152 208.345 86.0958Z" fill="white"/>
<path opacity="0.1" d="M291.108 301.574L284.791 287.95C283.634 285.46 285.616 282.649 288.362 282.9L303.341 284.255L318.321 285.611C321.067 285.862 322.506 288.974 320.916 291.223L312.244 303.492L303.573 315.761C301.983 318.01 298.563 317.699 297.406 315.199L291.088 301.574H291.108Z" fill="black"/>
<path d="M283.231 293.713L276.914 280.089C275.757 277.599 277.739 274.788 280.485 275.039L295.464 276.394L310.444 277.749C313.19 278 314.629 281.113 313.039 283.362L304.367 295.631L295.696 307.9C294.106 310.148 290.686 309.837 289.529 307.337L283.211 293.713H283.231Z" fill="#455A64"/>
<path d="M97.0342 237.282L38.3262 222.282C36.5769 221.835 34.7958 222.888 34.3479 224.634L23.8215 265.669C23.3736 267.415 24.4286 269.192 26.1779 269.639L84.886 284.639C86.6352 285.086 88.4164 284.033 88.8642 282.288L99.3907 241.252C99.8385 239.507 98.7835 237.729 97.0342 237.282Z" fill="#FF725E"/>
<path d="M95.9443 242.69C95.9443 242.69 95.7129 242.83 95.2502 243.051C94.7472 243.282 94.0732 243.594 93.2281 243.985C91.4173 244.798 88.8822 245.933 85.7737 247.318C82.6048 248.714 78.8524 250.371 74.6875 252.208C72.5951 253.121 70.402 254.085 68.1284 255.079C66.9916 255.571 65.8347 256.083 64.6577 256.595C63.4304 257.127 62.0119 257.258 60.674 256.937C59.336 256.615 58.1288 255.852 57.2938 254.818C56.5091 253.804 55.7345 252.8 54.98 251.816C53.471 249.848 52.0223 247.951 50.6341 246.144C47.8776 242.529 45.3928 239.266 43.3003 236.515C41.2481 233.794 39.5882 231.576 38.3911 229.999C37.8478 229.256 37.4052 228.664 37.0732 228.212C36.7814 227.801 36.6305 227.58 36.6406 227.57C36.6507 227.56 36.8318 227.76 37.1537 228.152C37.5058 228.584 37.9685 229.166 38.542 229.879C39.7693 231.435 41.4795 233.624 43.582 236.294C45.7047 239.035 48.2197 242.268 51.0063 245.863C52.4046 247.67 53.8633 249.557 55.3723 251.525C56.1268 252.499 56.9015 253.503 57.6861 254.507C58.4608 255.451 59.5674 256.154 60.7947 256.445C63.3298 257.168 65.6235 255.491 67.9172 254.627C70.1907 253.644 72.3938 252.69 74.4863 251.786C78.6612 249.989 82.4337 248.373 85.6227 247.007C88.7615 245.682 91.3167 244.598 93.1476 243.824C94.0027 243.473 94.6868 243.192 95.1999 242.981C95.6727 242.79 95.9242 242.7 95.9342 242.72L95.9443 242.69Z" fill="#263238"/>
<path d="M53.813 249.858C53.8834 249.989 48.4007 253.182 41.5699 256.997C34.7291 260.812 29.1358 263.804 29.0654 263.684C28.9949 263.553 34.4776 260.36 41.3184 256.545C48.1492 252.73 53.7526 249.738 53.823 249.858H53.813Z" fill="#263238"/>
<path d="M69.9089 253.975C70.0397 253.905 73.2388 259.376 77.0616 266.194C80.8844 273.021 83.8823 278.603 83.7615 278.673C83.6308 278.744 80.4317 273.272 76.6089 266.445C72.7861 259.627 69.7882 254.035 69.9089 253.965V253.975Z" fill="#263238"/>
<path d="M440.821 275.209L478.949 218.513L408.78 220.491L419.826 239.115L416.808 252.368L429.282 255.812L440.821 275.209Z" fill="white"/>
<path opacity="0.3" d="M419.826 239.115L478.949 218.513L429.282 255.812L416.808 252.368L419.826 239.115Z" fill="black"/>
<path d="M416.808 252.368C416.738 252.238 430.59 244.557 447.753 235.21C464.915 225.863 478.878 218.383 478.949 218.513C479.019 218.644 465.166 226.325 448.004 235.672C430.842 245.019 416.878 252.499 416.808 252.368Z" fill="#263238"/>
<path d="M429.282 255.812C429.282 255.812 429.353 255.732 429.524 255.601C429.715 255.45 429.956 255.26 430.258 255.019C430.932 254.497 431.888 253.754 433.095 252.82C435.6 250.902 439.191 248.171 443.608 244.798C452.541 238.041 464.824 228.744 478.415 218.473L478.657 218.925L478.446 218.995C462.289 224.587 447.662 229.648 437.039 233.322C431.757 235.119 427.472 236.585 424.474 237.609C423.015 238.091 421.868 238.483 421.043 238.754L420.148 239.035C419.947 239.095 419.836 239.125 419.836 239.115C419.836 239.115 419.937 239.065 420.128 238.985L421.003 238.654C421.808 238.362 422.945 237.951 424.393 237.419C427.381 236.354 431.646 234.838 436.908 232.971C447.521 229.256 462.128 224.146 478.265 218.493L478.476 218.423C478.617 218.373 478.757 218.443 478.808 218.584C478.848 218.694 478.808 218.814 478.717 218.875C465.096 229.105 452.772 238.352 443.819 245.079C439.363 248.392 435.741 251.083 433.216 252.971C431.978 253.874 431.003 254.587 430.319 255.099C430.007 255.32 429.755 255.501 429.554 255.641C429.383 255.762 429.292 255.822 429.282 255.812Z" fill="#263238"/>
<path d="M440.821 275.209C440.821 275.209 440.751 275.109 440.62 274.898C440.479 274.667 440.288 274.346 440.037 273.944C439.503 273.071 438.739 271.806 437.753 270.179C435.741 266.836 432.813 261.996 429.142 255.902L429.242 255.972C425.54 254.958 421.345 253.814 416.758 252.559L416.577 252.509L416.617 252.328C417.532 248.272 418.538 243.804 419.615 239.065L419.645 239.226C416.265 233.543 412.522 227.258 408.579 220.612L408.368 220.25H408.79C419.273 219.939 430.731 219.608 442.652 219.266C455.469 218.915 467.752 218.573 478.959 218.262H479.442L479.17 218.644C467.953 235.22 458.366 249.386 451.575 259.436C448.195 264.406 445.509 268.362 443.658 271.083C442.753 272.418 442.049 273.442 441.556 274.165C441.324 274.496 441.143 274.757 441.012 274.948C440.892 275.119 440.831 275.209 440.831 275.199C440.831 275.199 440.892 275.089 441.012 274.908C441.143 274.707 441.324 274.436 441.556 274.085C442.039 273.352 442.743 272.287 443.648 270.922C445.489 268.161 448.145 264.165 451.495 259.135C458.205 249.095 467.681 234.929 478.757 218.363L478.969 218.744C467.762 219.065 455.489 219.417 442.662 219.778C430.741 220.11 419.283 220.431 408.8 220.722L409.001 220.351C412.935 227.007 416.657 233.302 420.027 238.995L420.067 239.075L420.047 239.165C418.961 243.894 417.935 248.372 416.999 252.418L416.858 252.187C421.426 253.462 425.631 254.637 429.323 255.661L429.383 255.681L429.413 255.742C432.995 261.836 435.831 266.675 437.793 270.018C438.759 271.685 439.513 272.97 440.037 273.864C440.288 274.295 440.479 274.627 440.62 274.868C440.751 275.099 440.821 275.219 440.821 275.219V275.209Z" fill="#263238"/>
<path d="M109.193 197.81L50.7043 110.854L158.336 113.876L141.395 142.45L146.023 162.791L126.899 168.062L109.193 197.81Z" fill="white"/>
<path opacity="0.3" d="M141.395 142.45L50.7043 110.854L126.899 168.062L146.023 162.791L141.395 142.45Z" fill="black"/>
<path d="M146.023 162.791C145.952 162.922 124.555 151.396 98.2379 137.059C71.9109 122.711 50.634 110.985 50.7044 110.864C50.7748 110.744 72.1624 122.26 98.4894 136.607C124.806 150.944 146.093 162.681 146.023 162.801V162.791Z" fill="#263238"/>
<path d="M126.899 168.062C126.899 168.062 126.758 167.972 126.496 167.791C126.215 167.59 125.832 167.309 125.34 166.948C124.303 166.185 122.814 165.08 120.903 163.665C117.05 160.783 111.507 156.647 104.656 151.526C90.9545 141.225 72.0417 127.009 51.147 111.296C51.0364 111.206 51.0062 111.045 51.0967 110.935C51.1672 110.844 51.2879 110.804 51.3885 110.844C51.4891 110.884 51.5997 110.914 51.7104 110.955C76.4882 119.609 98.9119 127.44 115.169 133.113C123.267 135.964 129.816 138.284 134.373 139.89C136.617 140.693 138.377 141.326 139.584 141.757C140.158 141.968 140.611 142.139 140.933 142.259C141.234 142.37 141.385 142.45 141.385 142.45C141.385 142.45 141.224 142.41 140.912 142.31C140.58 142.199 140.128 142.049 139.544 141.858C138.327 141.446 136.556 140.844 134.303 140.081C129.736 138.514 123.157 136.255 115.038 133.464C98.7711 127.822 76.3272 120.041 51.5293 111.447L51.2074 111.336L51.4488 110.884C72.3133 126.637 91.1858 140.894 104.867 151.235C111.668 156.406 117.181 160.592 121.014 163.504C122.895 164.95 124.364 166.074 125.39 166.857C125.873 167.239 126.245 167.53 126.517 167.741C126.768 167.942 126.889 168.052 126.889 168.052L126.899 168.062Z" fill="#263238"/>
<path d="M109.193 197.811C109.193 197.811 109.294 197.62 109.495 197.279C109.706 196.927 109.998 196.415 110.39 195.753C111.185 194.407 112.342 192.439 113.841 189.879C116.849 184.769 121.235 177.339 126.758 167.982L126.788 167.922L126.849 167.902C132.512 166.325 138.951 164.538 145.973 162.59L145.832 162.821C144.413 156.617 142.844 149.759 141.174 142.49L141.154 142.4L141.194 142.32C146.355 133.595 152.079 123.936 158.115 113.736L158.316 114.107C142.23 113.656 124.655 113.174 106.366 112.662C86.6991 112.099 67.8668 111.567 50.6843 111.075L50.8956 110.694C67.9272 136.115 82.494 157.852 92.8055 173.243C97.9563 180.954 102.051 187.078 104.857 191.285C106.256 193.383 107.332 195 108.077 196.104C108.439 196.646 108.71 197.068 108.902 197.359C109.093 197.64 109.183 197.801 109.183 197.801C109.183 197.801 109.093 197.67 108.902 197.399C108.71 197.118 108.429 196.716 108.077 196.184C107.332 195.09 106.256 193.504 104.857 191.435C102.031 187.259 97.916 181.185 92.7351 173.534C82.3431 158.143 67.6656 136.396 50.4932 110.965L50.2216 110.573H50.6944C67.8769 111.065 86.7192 111.587 106.376 112.139C124.666 112.662 142.24 113.164 158.326 113.615H158.749L158.538 113.987C152.481 124.177 146.747 133.826 141.576 142.551L141.607 142.39C143.256 149.659 144.806 156.516 146.214 162.731L146.254 162.912L146.073 162.962C139.051 164.89 132.603 166.657 126.939 168.213L127.04 168.143C121.416 177.51 116.96 184.94 113.891 190.05C112.372 192.57 111.205 194.518 110.4 195.843C110.008 196.486 109.716 196.977 109.505 197.329C109.304 197.66 109.203 197.811 109.203 197.811H109.193Z" fill="#263238"/>
<path d="M79.9991 314.295L30.524 380.208L115.159 382.205L103.026 359.073L107.493 343.3L92.6848 338.371L79.9991 314.295Z" fill="white"/>
<path opacity="0.3" d="M103.026 359.074L30.524 380.208L92.6848 338.371L107.493 343.301L103.026 359.074Z" fill="black"/>
<path d="M107.493 343.301C107.554 343.431 90.371 351.795 69.1243 361.985C47.8675 372.176 30.5844 380.328 30.5241 380.208C30.4637 380.077 47.6361 371.714 68.8929 361.523C90.1396 351.333 107.423 343.18 107.493 343.311V343.301Z" fill="#263238"/>
<path d="M92.6848 338.371C92.6848 338.371 92.5842 338.461 92.383 338.612C92.1516 338.773 91.8498 338.994 91.4675 339.265C90.6325 339.847 89.4354 340.67 87.9063 341.734C84.7776 343.873 80.2808 346.945 74.7377 350.73C63.5711 358.3 48.1693 368.722 31.1578 380.258L30.9365 379.786L31.188 379.716C51.0062 373.983 68.9432 368.792 81.9608 365.027C88.4395 363.18 93.7008 361.674 97.3627 360.63C99.1634 360.128 100.572 359.736 101.558 359.465C102.02 359.345 102.383 359.244 102.654 359.174C102.906 359.114 103.026 359.084 103.037 359.094C103.037 359.094 102.916 359.144 102.674 359.224C102.403 359.305 102.051 359.425 101.598 359.566C100.612 359.867 99.2137 360.288 97.4331 360.831C93.7813 361.915 88.5401 363.471 82.0815 365.389C69.074 369.194 51.1571 374.435 31.349 380.228L31.0975 380.298C30.9566 380.338 30.8158 380.258 30.7755 380.117C30.7454 380.007 30.7856 379.886 30.8761 379.826C47.9278 368.351 63.3498 357.959 74.5466 350.429C80.1299 346.704 84.6569 343.682 87.8057 341.574C89.3549 340.55 90.5722 339.747 91.4273 339.184C91.8297 338.923 92.1415 338.723 92.3729 338.572C92.5842 338.441 92.7049 338.371 92.7049 338.381L92.6848 338.371Z" fill="#263238"/>
<path d="M79.9992 314.295C79.9992 314.295 80.0696 314.415 80.2205 314.687C80.3714 314.968 80.5827 315.369 80.8644 315.881C81.4478 316.966 82.2828 318.532 83.3693 320.56C85.5724 324.696 88.7816 330.72 92.8257 338.291L92.7352 338.21C97.1213 339.656 102.111 341.303 107.554 343.1L107.735 343.16L107.684 343.341C106.326 348.16 104.827 353.481 103.238 359.124L103.218 358.963C106.93 366.021 111.034 373.832 115.38 382.075L115.571 382.447H115.149C102.503 382.145 88.681 381.824 74.2952 381.483C58.833 381.111 44.0146 380.76 30.504 380.428H30.0211L30.3129 380.037C44.8496 360.77 57.2737 344.295 66.0762 332.628C70.4523 326.835 73.933 322.237 76.3273 319.074C77.5043 317.518 78.4198 316.313 79.0536 315.49C79.3554 315.098 79.5867 314.797 79.7578 314.576C79.9187 314.375 79.9891 314.285 79.9891 314.285C79.9891 314.285 79.9087 314.405 79.7477 314.626C79.5767 314.857 79.3453 315.168 79.0435 315.58C78.4097 316.423 77.5043 317.658 76.3273 319.245C73.9431 322.437 70.4824 327.086 66.1265 332.929C57.4044 344.596 45.1011 361.071 30.7052 380.338L30.5141 379.947C44.0246 380.258 58.843 380.609 74.3052 380.961C88.681 381.302 102.503 381.633 115.159 381.934L114.938 382.296C110.612 374.043 106.517 366.222 102.825 359.154L102.785 359.073L102.805 358.993C104.415 353.361 105.924 348.039 107.292 343.22L107.423 343.461C101.99 341.644 97.0107 339.977 92.6245 338.501L92.5641 338.481L92.534 338.421C88.5904 330.851 85.4618 324.837 83.3089 320.7C82.2426 318.632 81.4076 317.036 80.8442 315.942C80.5726 315.409 80.3614 314.998 80.2105 314.707C80.0696 314.425 79.9992 314.275 79.9992 314.275V314.295Z" fill="#263238"/>
<path d="M316.299 351.905L310.071 352.176L287.668 400.709L252.236 418.339L253.927 436.542C253.927 436.542 297.547 428.51 308.422 422.436C319.296 416.362 333.159 376.894 333.159 376.894C333.23 377.175 318.421 351.925 318.421 351.925" fill="#FFBF9D"/>
<path d="M254.309 396.261L249.772 391.492C248.897 390.93 247.87 390.649 246.834 390.679L232.449 391.111C229.732 391.382 227.288 392.858 225.789 395.137L220.558 404.022C220.558 404.022 217.037 410.106 217.489 411.582C218.163 413.811 220.527 413.359 220.527 413.359C220.527 413.359 221.03 416.17 221.966 416.743C223.535 417.697 225.457 416.964 225.457 416.964C225.98 418.038 227.097 418.761 228.294 418.67C228.535 418.65 228.787 418.61 229.038 418.53C230.748 418.018 231.513 414.715 231.513 414.715L238.806 413.369C238.806 413.369 249.279 420.357 252.981 424.945C256.673 429.524 266.351 426.03 266.351 426.03L269.972 408.761L254.319 396.261H254.309Z" fill="#FFBF9D"/>
<path d="M243.706 398.329C243.716 398.43 242.549 398.651 240.557 398.852C238.575 399.072 235.768 399.153 232.609 399.564L232.951 399.313C232.438 400.438 231.805 401.602 231.08 402.747C228.847 406.311 226.211 409.092 224.159 410.92C222.097 412.737 220.608 413.58 220.548 413.49C220.467 413.379 221.805 412.355 223.716 410.448C225.618 408.54 228.123 405.749 230.306 402.265C231.01 401.141 231.634 400.016 232.147 398.942L232.257 398.721L232.489 398.691C235.738 398.329 238.535 398.36 240.517 398.299C242.498 398.259 243.686 398.219 243.696 398.329H243.706Z" fill="#FF9A6C"/>
<path d="M244.038 405.176C244.058 405.267 243.072 405.638 241.331 405.899C239.591 406.15 237.086 406.231 234.289 405.658L234.803 405.367C234.511 406.221 234.169 407.094 233.756 407.968C232.237 411.15 230.094 413.58 228.344 415.056C226.594 416.542 225.306 417.164 225.256 417.074C225.175 416.953 226.322 416.15 227.911 414.584C229.501 413.028 231.473 410.628 232.941 407.576C233.344 406.733 233.676 405.889 233.978 405.076L234.108 404.705L234.491 404.785C239.873 405.98 244.028 404.905 244.058 405.176H244.038Z" fill="#FF9A6C"/>
<path d="M262.297 408.721C258.021 406.733 253.746 404.755 249.46 402.768C247.679 401.944 245.828 401.101 243.877 401.111C241.764 401.111 239.802 402.115 237.931 403.079C235.627 404.263 233.324 405.458 231.03 406.643C230.658 406.834 230.245 407.065 230.115 407.466C229.944 407.988 230.326 408.53 230.708 408.922C234.159 412.406 240.356 412.657 244.078 409.464C245.184 412.476 246.331 415.548 248.404 417.988C250.476 420.438 253.705 422.165 256.864 421.582" fill="#FFBF9D"/>
<path d="M256.864 421.592C256.864 421.592 256.753 421.653 256.522 421.703C256.291 421.763 255.939 421.803 255.476 421.823C254.56 421.843 253.162 421.673 251.613 420.889C250.074 420.126 248.394 418.741 247.066 416.753C245.708 414.775 244.702 412.285 243.706 409.605L244.349 409.775C242.458 411.442 239.702 412.325 236.875 412.104C235.467 412.004 234.028 411.623 232.71 410.94C232.066 410.578 231.422 410.177 230.859 409.665C230.577 409.404 230.286 409.173 230.034 408.821C229.793 408.49 229.531 408.008 229.672 407.426C229.783 406.954 230.155 406.653 230.436 406.472C230.738 406.281 231 406.161 231.271 406.02C231.805 405.739 232.338 405.468 232.871 405.197C233.927 404.655 234.974 404.113 236 403.591C238.052 402.577 239.994 401.382 242.187 400.9C244.4 400.368 246.573 401.05 248.273 401.824C250.013 402.617 251.573 403.38 253.021 404.072C255.798 405.428 258.091 406.542 259.852 407.396C261.451 408.199 262.327 408.671 262.307 408.731C262.276 408.791 261.351 408.42 259.701 407.717C257.91 406.924 255.576 405.9 252.75 404.655C251.271 403.992 249.681 403.279 247.971 402.516C246.271 401.793 244.339 401.221 242.358 401.723C240.376 402.175 238.464 403.35 236.402 404.384C235.376 404.916 234.34 405.458 233.273 406.01C232.74 406.281 232.207 406.562 231.674 406.833C231.131 407.115 230.557 407.386 230.537 407.657C230.426 407.988 230.919 408.58 231.453 409.002C231.956 409.464 232.539 409.835 233.123 410.167C234.32 410.789 235.638 411.141 236.935 411.251C239.531 411.472 242.076 410.669 243.816 409.183L244.259 408.801L244.45 409.354C245.406 412.044 246.351 414.484 247.609 416.412C248.836 418.349 250.375 419.695 251.824 420.498C254.782 422.114 256.884 421.462 256.854 421.622L256.864 421.592Z" fill="#FF9A6C"/>
<path d="M434.242 246.525C435.027 236.786 437.22 227.168 437.512 217.399C437.803 207.63 435.922 197.309 429.584 189.859C423.246 182.409 411.597 178.935 403.247 184.036L401.044 192.218C401.628 230.029 398.599 268.201 399.183 306.012C399.263 310.982 402.976 315.72 404.917 320.289C406.869 324.857 411.134 328.813 416.114 328.843C422.623 328.883 427.331 322.608 429.765 316.584C438.598 294.737 432.361 269.998 434.242 246.515V246.525Z" fill="#263238"/>
<path d="M414.182 194.377C412.925 191.867 411.637 189.327 409.676 187.319C407.714 185.311 404.947 183.895 402.161 184.236C400.853 184.397 399.485 185.04 398.962 186.254C398.439 187.469 399.263 189.186 400.581 189.166L400.843 189.427C403.589 192.208 406.396 194.939 409.253 197.6C409.967 198.272 410.722 198.955 411.637 199.306C412.563 199.658 413.71 199.598 414.404 198.915C415.561 197.77 414.907 195.833 414.172 194.377H414.182Z" fill="#FF725E"/>
<path d="M419.051 204.316C410.118 191.777 397.513 184.056 382.151 182.761C373.49 182.028 369.778 183.584 363.42 184.849C357.062 186.104 351.197 189.066 347.112 194.096C342.263 200.07 338.068 206.837 336.71 214.397C335.322 222.168 335.392 229.868 336.459 236.284C337.747 244.075 342.223 256.153 346.428 262.84L359.627 265.36C370.663 266.484 381.85 267.609 392.795 265.822C403.74 264.034 414.605 258.954 421.013 249.918C429.916 237.368 427.975 216.846 419.041 204.316H419.051Z" fill="#263238"/>
<path d="M401.235 202.981L375.26 190.582L368.228 190.923C352.535 189.919 340.533 206.455 339.567 219.136C338.491 233.222 337.746 250.461 339.276 261.003C342.364 282.197 360.11 285.149 360.11 285.149C360.11 285.149 358.983 296.253 358.38 303.261L399.455 303.08L407.804 210.622C407.935 206.756 405.078 203.443 401.235 202.991V202.981Z" fill="#FFBF9D"/>
<path d="M371.005 258.232C370.934 257.117 370.391 256.103 369.647 255.38C368.178 253.935 365.894 253.654 364.144 254.688C362.393 255.732 361.277 258.031 361.438 260.25C362.293 261.605 363.671 262.569 365.25 262.82C365.492 262.86 365.743 262.88 365.995 262.89C367.202 262.941 368.46 262.619 369.435 261.796C370.421 260.973 371.085 259.607 370.995 258.232H371.005Z" fill="#FF9A6C"/>
<path d="M343.984 238.392C343.913 239.828 345.07 241.063 346.569 241.163C348.058 241.264 349.336 240.189 349.406 238.754C349.476 237.318 348.32 236.083 346.821 235.983C345.322 235.882 344.054 236.966 343.984 238.392Z" fill="#263238"/>
<path d="M343.873 226.505C344.205 226.867 346.287 225.371 349.205 225.411C352.122 225.411 354.255 226.947 354.577 226.585C354.738 226.425 354.396 225.782 353.47 225.1C352.555 224.407 350.995 223.734 349.175 223.714C347.354 223.704 345.815 224.347 344.919 225.019C344.014 225.692 343.702 226.334 343.863 226.495L343.873 226.505Z" fill="#263238"/>
<path d="M361.045 250.581C361.065 250.42 359.245 250.079 356.307 249.667C355.563 249.577 354.858 249.426 354.738 248.914C354.567 248.372 354.889 247.579 355.261 246.715C355.985 244.918 356.75 243.041 357.544 241.063C360.713 233.021 363.027 226.404 362.695 226.284C362.373 226.163 359.536 232.579 356.357 240.621C355.593 242.609 354.858 244.496 354.164 246.304C353.873 247.147 353.37 248.101 353.742 249.225C353.933 249.788 354.476 250.199 354.959 250.33C355.432 250.48 355.854 250.49 356.227 250.52C359.184 250.721 361.025 250.751 361.045 250.591V250.581Z" fill="#263238"/>
<path d="M360.08 285.118C360.08 285.118 374.325 286.223 388.559 277.93C388.559 277.93 380.803 292.498 359.617 290.239L360.07 285.118H360.08Z" fill="#FF9A6C"/>
<path d="M369.627 252.709C369.154 252.679 369.103 255.842 366.357 258.061C363.621 260.279 360.241 259.878 360.21 260.32C360.16 260.52 360.955 260.942 362.383 261.002C363.782 261.073 365.834 260.641 367.514 259.295C369.194 257.94 369.928 256.103 370.049 254.808C370.19 253.482 369.848 252.699 369.627 252.709Z" fill="#263238"/>
<path d="M345.553 216.385C346.036 217.107 348.279 216.656 350.895 216.907C353.521 217.077 355.663 217.871 356.247 217.238C356.508 216.927 356.227 216.234 355.331 215.501C354.446 214.778 352.907 214.095 351.106 213.955C349.305 213.814 347.686 214.236 346.71 214.818C345.714 215.401 345.332 216.043 345.543 216.395L345.553 216.385Z" fill="#263238"/>
<path d="M373.832 239.176C373.812 240.611 372.574 241.776 371.075 241.776C369.576 241.776 368.379 240.631 368.399 239.196C368.419 237.76 369.657 236.595 371.156 236.595C372.655 236.595 373.852 237.75 373.832 239.176Z" fill="#263238"/>
<path d="M383.379 228.051C383.027 228.382 381.045 226.766 378.117 226.625C375.2 226.445 372.977 227.84 372.685 227.459C372.534 227.288 372.916 226.676 373.882 226.043C374.838 225.411 376.437 224.838 378.258 224.939C380.079 225.039 381.578 225.782 382.423 226.515C383.288 227.248 383.56 227.901 383.389 228.051H383.379Z" fill="#263238"/>
<path d="M382.262 218.614C381.658 219.246 379.435 218.443 376.729 218.282C374.023 218.031 371.699 218.473 371.206 217.76C370.995 217.409 371.387 216.766 372.423 216.194C373.439 215.622 375.119 215.19 376.98 215.33C378.842 215.481 380.421 216.154 381.326 216.887C382.252 217.62 382.534 218.312 382.262 218.624V218.614Z" fill="#263238"/>
<path d="M401.768 245.782C401.788 244.206 403.67 240.521 405.229 240.29C409.404 239.698 416.899 240.13 416.828 250.682C416.738 265.099 402.251 262.037 402.221 261.625C402.201 261.304 401.678 251.224 401.768 245.782Z" fill="#FFBF9D"/>
<path d="M406.245 256.374C406.305 256.324 406.497 256.555 406.919 256.746C407.332 256.936 408.046 257.077 408.8 256.796C410.329 256.244 411.627 253.834 411.718 251.234C411.768 249.919 411.496 248.674 411.034 247.629C410.601 246.575 409.917 245.832 409.152 245.692C408.388 245.511 407.845 245.963 407.664 246.374C407.462 246.776 407.553 247.067 407.482 247.087C407.442 247.127 407.171 246.846 407.291 246.254C407.352 245.963 407.523 245.631 407.865 245.35C408.217 245.069 408.72 244.929 409.263 244.989C410.38 245.069 411.376 246.103 411.879 247.238C412.442 248.382 412.774 249.788 412.724 251.264C412.613 254.165 411.104 256.876 409.012 257.469C407.995 257.73 407.15 257.418 406.708 257.067C406.265 256.706 406.185 256.384 406.235 256.364L406.245 256.374Z" fill="#FF9A6C"/>
<path d="M405.812 240.37L401.899 243.904C387.131 227.75 358.842 187.891 360.412 190.26C360.412 190.26 371.528 186.556 383.137 189.347C394.746 192.138 416.617 199.507 415.329 213.312C414.052 227.107 405.812 240.37 405.812 240.37Z" fill="#263238"/>
<path d="M426.938 238.623C426.938 238.623 426.908 238.332 426.778 237.78C426.647 237.228 426.385 236.434 425.953 235.45C425.077 233.493 423.337 230.802 420.399 228.292C417.502 225.722 413.408 223.503 408.69 221.656C403.982 219.768 398.64 218.182 393.469 215.541C388.258 212.981 383.67 209.828 379.787 206.626C375.924 203.403 372.775 200.12 370.351 197.188C367.916 194.256 366.186 191.706 365.019 189.919C364.486 189.076 364.053 188.383 363.711 187.841C363.41 187.369 363.239 187.128 363.218 187.138C363.198 187.148 363.319 187.419 363.581 187.911C363.852 188.403 364.224 189.146 364.778 190.07C365.874 191.907 367.554 194.517 369.949 197.509C372.343 200.501 375.482 203.855 379.355 207.138C383.248 210.391 387.876 213.603 393.137 216.184C398.378 218.864 403.76 220.431 408.438 222.278C413.136 224.075 417.18 226.204 420.068 228.673C422.995 231.093 424.766 233.673 425.701 235.561C426.637 237.469 426.878 238.633 426.949 238.613L426.938 238.623Z" fill="#455A64"/>
<path d="M422.603 240.601C422.603 240.601 422.824 239.436 422.261 237.428C421.717 235.43 420.198 232.669 417.311 230.3C414.454 227.86 410.259 226.184 405.621 224.788C400.954 223.423 395.913 221.746 391.024 219.055C386.135 216.385 381.809 213.252 378.278 209.959C374.727 206.686 371.91 203.353 369.768 200.391C367.595 197.449 366.176 194.839 365.16 193.072C364.717 192.218 364.365 191.526 364.074 190.973C363.822 190.501 363.671 190.251 363.651 190.261C363.631 190.271 363.732 190.542 363.943 191.034C364.194 191.606 364.516 192.319 364.909 193.192C365.854 195.009 367.212 197.68 369.345 200.682C371.458 203.704 374.254 207.108 377.816 210.441C381.357 213.794 385.733 216.987 390.672 219.688C395.612 222.409 400.772 224.105 405.43 225.431C410.068 226.786 414.182 228.372 416.989 230.692C419.836 232.951 421.385 235.581 421.989 237.499C422.633 239.426 422.512 240.601 422.613 240.591L422.603 240.601Z" fill="#455A64"/>
<path d="M403.69 264.657C403.69 264.557 404.927 264.486 407.09 264.075C409.243 263.633 412.331 262.539 415.45 260.129C418.599 257.76 421.506 253.934 423.709 249.216C425.902 244.487 427.401 238.854 427.955 232.86C428.216 229.858 428.186 226.917 427.854 224.106C427.482 221.294 426.828 218.634 425.993 216.164C424.263 211.234 421.788 207.158 419.323 204.076C414.364 197.861 410.058 195.21 410.239 195.02C410.259 194.99 410.521 195.15 411.004 195.492C411.476 195.833 412.221 196.305 413.086 197.018C414.846 198.393 417.291 200.572 419.846 203.664C422.412 206.746 424.997 210.863 426.818 215.883C427.693 218.403 428.377 221.124 428.769 224.005C429.122 226.887 429.162 229.909 428.9 232.971C428.337 239.075 426.778 244.798 424.494 249.617C422.21 254.426 419.152 258.322 415.852 260.691C412.583 263.111 409.374 264.125 407.151 264.466C406.044 264.697 405.159 264.637 404.575 264.697C403.982 264.727 403.68 264.717 403.68 264.687L403.69 264.657Z" fill="#455A64"/>
<path d="M358.702 298.291L399.475 293.894L406.939 300.671L377.836 317.749L364.989 324.385L352.313 320.54L348.289 313L358.702 298.291Z" fill="#FFBF9D"/>
<path d="M303.754 347.829C303.754 347.829 316.53 323.351 319.699 318C325.091 308.884 335.151 303.723 335.151 303.723L358.701 298.281C358.701 298.281 356.257 310.058 370.914 310.871C389.555 311.906 401.135 294.064 401.135 294.064C401.135 294.064 422.401 296.253 428.276 298.713C434.151 301.173 450.761 308.11 453.205 330.158L458.899 366.152L413.961 369.565L414.585 417.486L436.697 455.237H328.24C329.94 455.688 335.916 430.478 331.992 410.559L324.588 392.627C321.63 385.449 319.789 377.838 319.347 370.087C319.055 364.987 319.196 361.122 319.196 361.122C319.196 361.122 307.667 357.166 303.744 347.819L303.754 347.829Z" fill="#FF725E"/>
<path d="M339.155 434.343L414.494 411.774L413.961 369.575L452.33 366.654C452.33 366.654 449.272 388.521 448.819 399.726C448.175 415.85 440.399 438.39 435.208 443.169C430.007 447.958 337.163 453.148 337.163 453.148L339.165 434.323L339.155 434.343Z" fill="#FFBF9D"/>
<path d="M296.43 447.616C297.054 448.64 298.231 449.253 299.408 449.052C299.639 449.012 299.891 448.942 300.142 448.841C301.792 448.169 301.37 444.735 301.37 444.735L309.387 442.787C309.387 442.787 320.473 448.771 324.578 452.978C328.682 457.195 337.988 452.807 337.988 452.807L339.97 435.277L323.974 422.938C323.974 422.938 324.95 423.671 323.733 421.231C322.506 418.792 317.888 420.107 317.888 420.107C317.063 418.912 313.955 418.701 313.955 418.701L300.957 421.221C298.281 421.743 295.977 423.44 294.71 425.85L289.841 435.036C289.841 435.036 287.406 441.572 287.99 442.998C288.875 445.157 291.179 444.484 291.179 444.484C291.179 444.484 292.145 448.58 293.251 448.64C294.358 448.701 296.44 447.616 296.44 447.616H296.43Z" fill="#FFBF9D"/>
<path d="M323.371 433.049C323.371 433.189 321.61 433.159 318.824 433.5C316.037 433.852 312.214 434.645 308.281 436.322C306.319 437.155 304.518 438.119 302.949 439.103C301.43 440.117 299.84 440.97 299.418 442.165C299.207 442.747 299.368 443.309 299.679 443.711C299.991 444.113 300.384 444.364 300.736 444.474C301.45 444.705 301.873 444.474 301.903 444.554C301.933 444.574 301.52 444.946 300.655 444.785C300.233 444.705 299.74 444.474 299.317 444.012C298.895 443.581 298.603 442.767 298.844 441.984C299.066 441.201 299.679 440.558 300.333 440.016C301.007 439.494 301.722 438.962 302.516 438.45C304.096 437.406 305.927 436.402 307.939 435.549C311.963 433.822 315.916 433.109 318.753 432.908C321.61 432.717 323.371 432.958 323.361 433.049H323.371Z" fill="#FF9A6C"/>
<path d="M324.94 441.321C324.94 441.572 319.588 441.763 313.069 442.647C306.54 443.51 301.329 444.745 301.269 444.504C301.239 444.394 302.516 443.952 304.619 443.41C306.721 442.867 309.669 442.255 312.959 441.813C316.248 441.372 319.256 441.181 321.429 441.151C323.602 441.11 324.95 441.211 324.95 441.321H324.94Z" fill="#FF9A6C"/>
<path d="M296.48 447.275C296.48 447.275 296.34 446.793 296.209 445.89C296.088 444.996 295.927 443.691 295.907 442.054C295.907 441.241 295.917 440.338 296.068 439.374C296.199 438.4 296.581 437.356 297.134 436.422C298.181 434.544 299.679 432.567 301.661 431.02C303.633 429.484 305.625 428.169 307.687 427.376C309.729 426.583 311.671 426.272 313.281 426.081C314.9 425.9 316.208 425.83 317.113 425.8C318.019 425.77 318.522 425.78 318.522 425.83C318.542 425.96 316.54 426.181 313.361 426.663C311.782 426.934 309.9 427.296 307.969 428.089C306.047 428.872 304.096 430.187 302.184 431.673C300.273 433.179 298.875 434.986 297.798 436.814C296.661 438.56 296.571 440.478 296.501 442.064C296.43 445.257 296.672 447.265 296.49 447.275H296.48Z" fill="#FF9A6C"/>
<path d="M313.572 422.075C313.582 422.195 311.621 422.406 308.522 423.009C305.544 423.701 300.726 424.294 298.301 428.661C295.615 432.667 293.362 436.422 292.476 439.434C291.531 442.426 291.792 444.434 291.611 444.424C291.571 444.424 291.45 443.942 291.43 443.038C291.4 442.145 291.491 440.819 291.903 439.263C292.668 436.101 294.901 432.205 297.597 428.179C298.291 427.165 299.046 426.201 299.951 425.408C300.846 424.605 301.923 424.093 302.919 423.721C304.941 422.978 306.832 422.657 308.412 422.406C311.58 421.944 313.562 421.954 313.562 422.055L313.572 422.075Z" fill="#FF9A6C"/>
<path d="M321.5 450.417C321.5 450.417 321.198 450.257 320.675 449.885C320.081 449.474 319.307 448.952 318.341 448.299C316.289 446.954 313.24 445.046 309.267 443.038L309.458 443.058C307.064 443.661 304.367 444.333 301.45 445.066L301.702 444.705C301.772 445.367 301.782 446.01 301.702 446.693C301.621 447.365 301.46 448.088 300.937 448.711C300.665 449.012 300.243 449.213 299.901 449.283C299.549 449.403 299.156 449.474 298.764 449.433C297.979 449.383 297.225 449.032 296.662 448.47C296.521 448.329 296.39 448.179 296.269 448.018L296.189 447.897L296.148 447.837L296.128 447.807C296.018 447.767 297.064 448.058 296.621 447.938H296.601L296.35 448.078C296.018 448.239 295.676 448.389 295.334 448.53C294.981 448.67 294.629 448.791 294.247 448.891C294.056 448.942 293.865 448.982 293.654 449.002C293.452 449.022 293.221 449.052 292.889 448.911C292.406 448.62 292.215 448.249 292.014 447.897C291.823 447.546 291.662 447.185 291.521 446.813C291.239 446.08 291.018 445.337 290.817 444.564L291.32 444.855C290.283 445.126 289.016 444.966 288.211 444.062C287.849 443.64 287.537 443.108 287.527 442.476C287.507 441.903 287.597 441.402 287.688 440.889C288.1 438.861 288.754 436.894 289.479 434.886V434.865L289.499 434.835C290.324 433.269 291.199 431.613 292.094 429.936C292.648 428.892 293.191 427.858 293.744 426.833C294.297 425.84 294.77 424.725 295.575 423.801C296.35 422.888 297.315 422.145 298.362 421.623C299.408 421.071 300.605 420.86 301.651 420.669C305.957 419.846 310.061 419.063 313.904 418.33H314.005C314.78 418.39 315.494 418.52 316.218 418.721C316.922 418.942 317.667 419.193 318.2 419.886L317.737 419.775C319.085 419.103 320.685 418.972 321.962 419.685C323.25 420.388 323.904 421.643 324.306 422.838L324.196 422.677C328.783 426.201 332.535 429.072 335.211 431.131C336.449 432.104 337.435 432.878 338.189 433.47C338.863 434.012 339.205 434.313 339.195 434.333C339.175 434.353 338.793 434.112 338.089 433.61C337.314 433.058 336.298 432.325 335.02 431.402C332.304 429.404 328.501 426.603 323.834 423.169L323.763 423.109L323.723 422.998C323.361 421.944 322.717 420.809 321.661 420.267C320.634 419.685 319.226 419.815 318.099 420.388L317.818 420.528L317.627 420.277C317.315 419.866 316.661 419.585 316.017 419.404C315.363 419.223 314.659 419.103 313.955 419.042H314.055C310.222 419.795 306.118 420.599 301.812 421.442C300.716 421.653 299.69 421.834 298.734 422.336C297.778 422.807 296.913 423.48 296.209 424.313C295.495 425.117 295.042 426.161 294.478 427.195C293.935 428.219 293.382 429.263 292.839 430.297C291.953 431.974 291.068 433.631 290.243 435.197L290.263 435.147C289.559 437.104 288.895 439.072 288.503 441.01C288.412 441.492 288.332 441.984 288.342 442.416C288.332 442.787 288.543 443.179 288.815 443.5C289.338 444.132 290.304 444.263 291.088 444.072L291.491 443.972L291.591 444.363C291.772 445.096 291.984 445.829 292.245 446.522C292.497 447.174 292.849 447.968 293.231 448.209C293.251 448.209 293.392 448.249 293.563 448.219C293.724 448.209 293.885 448.168 294.056 448.128C294.388 448.048 294.72 447.927 295.052 447.807C295.384 447.676 295.706 447.536 296.018 447.385L296.249 447.275H296.269C295.827 447.144 296.873 447.425 296.762 447.405L296.782 447.436L296.812 447.486L296.873 447.586C296.963 447.717 297.064 447.837 297.175 447.948C297.617 448.389 298.211 448.67 298.804 448.711C299.106 448.741 299.398 448.691 299.69 448.59C300.011 448.52 300.223 448.409 300.404 448.219C301.118 447.355 301.118 445.909 301.028 444.765L301.007 444.464L301.279 444.403C304.206 443.711 306.913 443.078 309.307 442.506L309.408 442.486L309.498 442.536C313.482 444.634 316.49 446.612 318.502 448.038C319.508 448.761 320.262 449.343 320.755 449.755C321.248 450.166 321.5 450.387 321.49 450.407L321.5 450.417Z" fill="#FF9A6C"/>
<path d="M202.027 452.485L173.547 377.848C172.471 375.037 174.553 372.025 177.561 372.025H269.007C270.676 372.025 272.196 372.989 272.9 374.495L300.283 445.688L357.726 446.662C360.1 446.662 362.021 448.58 362.021 450.949C362.021 453.319 360.1 455.236 357.726 455.236H206.041C204.26 455.236 202.661 454.132 202.027 452.475V452.485Z" fill="#455A64"/>
<path d="M240.728 413.641C240.728 416.944 238.042 419.624 234.732 419.624C231.422 419.624 228.736 416.944 228.736 413.641C228.736 410.337 231.422 407.657 234.732 407.657C238.042 407.657 240.728 410.337 240.728 413.641Z" fill="white"/>
<path d="M330.835 320.791C330.966 320.861 329.749 323.14 328.028 326.945C326.308 330.74 324.186 336.102 322.465 342.216C320.765 348.34 319.799 354.023 319.296 358.159C318.793 362.296 318.653 364.876 318.502 364.876C318.441 364.876 318.411 364.224 318.411 363.059C318.411 361.884 318.482 360.187 318.653 358.099C318.995 353.922 319.86 348.16 321.58 341.985C323.31 335.81 325.554 330.439 327.435 326.684C328.371 324.807 329.185 323.321 329.799 322.317C330.403 321.313 330.765 320.77 330.825 320.801L330.835 320.791Z" fill="#263238"/>
<path d="M458.899 366.162C458.899 366.162 458.577 366.242 457.974 366.302C457.279 366.372 456.384 366.463 455.277 366.563C452.823 366.764 449.423 367.055 445.207 367.406C436.526 368.059 424.524 368.963 410.762 369.997L410.319 370.027L410.289 369.585C409.997 365.017 409.696 360.198 409.384 355.248C408.891 346.614 408.478 338.391 408.348 330.901C407.955 323.361 409.806 316.484 412.764 311.594C415.691 306.624 419.585 303.743 422.421 302.337C423.87 301.655 425.027 301.203 425.842 301.012C426.647 300.781 427.079 300.681 427.079 300.711C427.119 300.831 425.369 301.183 422.582 302.648C419.836 304.134 416.114 307.026 413.317 311.915C410.49 316.755 408.75 323.431 409.183 330.881C409.364 338.351 409.806 346.573 410.289 355.198C410.591 360.148 410.893 364.967 411.174 369.525L410.702 369.113C424.464 368.21 436.475 367.417 445.167 366.834C449.392 366.593 452.793 366.392 455.257 366.252C456.374 366.202 457.269 366.162 457.963 366.131C458.577 366.111 458.899 366.121 458.909 366.141L458.899 366.162Z" fill="#263238"/>
<path d="M374.415 395.478C374.385 395.539 373.862 395.338 372.906 394.926C372.423 394.725 371.85 394.464 371.226 394.083C370.592 393.711 369.838 393.33 369.094 392.778C367.544 391.764 365.844 390.338 364.134 388.581C362.464 386.784 360.804 384.645 359.386 382.196C357.997 379.726 357.001 377.206 356.317 374.846C355.684 372.477 355.321 370.288 355.241 368.441C355.14 367.517 355.201 366.684 355.211 365.951C355.211 365.218 355.271 364.585 355.352 364.073C355.482 363.049 355.583 362.497 355.643 362.497C355.824 362.517 355.533 364.776 355.885 368.381C356.046 370.188 356.468 372.306 357.132 374.605C357.846 376.884 358.842 379.324 360.19 381.734C361.569 384.123 363.168 386.222 364.768 387.999C366.407 389.746 368.017 391.181 369.486 392.246C372.413 394.394 374.506 395.298 374.435 395.468L374.415 395.478Z" fill="#263238"/>
</svg>
