<svg width="600" height="500" viewBox="0 0 600 500" fill="none" xmlns="http://www.w3.org/2000/svg">
<g clip-path="url(#clip0_239_153)">
<path d="M87.8696 453.438C205.034 514.679 394.98 514.693 512.144 453.438C629.308 392.183 629.294 292.9 512.144 231.659C394.994 170.418 205.034 170.418 87.8696 231.659C-29.2946 292.9 -29.2806 392.211 87.8696 453.438Z" fill="#F0F0F0"/>
<path d="M537.02 333.517C537.02 333.517 538.488 326.129 550.402 320.421C561.994 314.824 568.678 316.125 576.634 312.921C584.591 309.717 578.872 294.663 557.058 301.35C537.076 307.479 535.049 324.786 535.049 324.786L537.02 333.517Z" fill="#FE553E"/>
<path opacity="0.2" d="M537.02 333.517C537.02 333.517 538.488 326.129 550.402 320.421C561.994 314.824 568.678 316.125 576.634 312.921C584.591 309.717 578.872 294.663 557.058 301.35C537.076 307.479 535.049 324.786 535.049 324.786L537.02 333.517Z" fill="black"/>
<path d="M534.923 330.747C534.844 330.76 534.764 330.76 534.685 330.747C534.59 330.714 534.502 330.662 534.426 330.595C534.35 330.528 534.289 330.446 534.245 330.355C534.2 330.264 534.175 330.166 534.169 330.065C534.163 329.964 534.177 329.863 534.21 329.767C537.006 321.764 543.998 314.376 553.115 309.871C564.805 304.149 573.125 305.968 573.474 306.052C573.671 306.096 573.842 306.217 573.949 306.387C574.057 306.558 574.092 306.764 574.047 306.961C574.003 307.158 573.882 307.329 573.712 307.436C573.541 307.544 573.335 307.579 573.139 307.535C573.055 307.535 564.958 305.772 553.786 311.242C545.047 315.524 538.265 322.631 535.608 330.271C535.55 330.407 535.455 330.523 535.334 330.608C535.213 330.692 535.07 330.74 534.923 330.747Z" fill="#FAFAFA"/>
<path d="M535.3 324.31C535.3 324.31 536.699 320.113 542.082 311.9C551.367 297.657 566.511 291.43 573.139 283.287C580.27 274.501 567.937 269.072 556.848 272.094C550.5 273.857 544.711 279.65 541.677 283.553C535.248 292.042 531.565 302.294 531.119 312.935L535.3 324.31Z" fill="#FE553E"/>
<path d="M533.217 324.646C533.015 324.639 532.825 324.553 532.686 324.406C532.547 324.26 532.472 324.064 532.476 323.863C533.124 314.62 535.752 305.625 540.18 297.489C548.57 282.42 561.015 277.061 561.547 276.837C561.724 276.796 561.909 276.818 562.071 276.901C562.233 276.984 562.361 277.121 562.431 277.289C562.501 277.456 562.51 277.643 562.456 277.817C562.401 277.99 562.287 278.139 562.134 278.236C553.375 282.624 546.175 289.599 541.509 298.216C537.194 306.136 534.633 314.893 534 323.891C533.998 323.992 533.976 324.091 533.936 324.184C533.896 324.277 533.838 324.361 533.765 324.431C533.692 324.501 533.606 324.556 533.512 324.593C533.418 324.63 533.318 324.648 533.217 324.646Z" fill="#FAFAFA"/>
<path d="M126.617 336.903C116.563 330.145 116.116 311.956 117.57 300.525C119.877 282.336 110.578 278.139 105.838 286.17C103.545 290.073 100.664 298.552 100.986 308.43C101.503 323.905 108.201 342.415 124.422 349.131L126.617 336.903Z" fill="#FE553E"/>
<path opacity="0.2" d="M126.617 336.903C116.563 330.145 116.116 311.956 117.57 300.525C119.877 282.336 110.578 278.139 105.838 286.17C103.545 290.073 100.664 298.552 100.986 308.43C101.503 323.905 108.201 342.415 124.422 349.131L126.617 336.903Z" fill="black"/>
<path d="M124.548 348.096C124.383 348.096 124.224 348.036 124.1 347.928C107.083 333.363 104.412 307.353 109.138 289.318C109.161 289.226 109.202 289.139 109.258 289.063C109.315 288.987 109.385 288.923 109.467 288.874C109.548 288.826 109.638 288.793 109.731 288.779C109.825 288.765 109.92 288.77 110.012 288.793C110.104 288.816 110.19 288.857 110.266 288.913C110.342 288.97 110.407 289.04 110.455 289.122C110.504 289.203 110.536 289.293 110.55 289.386C110.564 289.48 110.559 289.576 110.536 289.667C105.922 307.283 108.481 332.691 125.051 346.865C125.121 346.924 125.178 346.996 125.22 347.078C125.261 347.159 125.286 347.248 125.292 347.34C125.299 347.431 125.287 347.523 125.258 347.609C125.228 347.696 125.182 347.776 125.121 347.844C125.053 347.93 124.965 347.997 124.865 348.041C124.765 348.085 124.656 348.104 124.548 348.096Z" fill="#FAFAFA"/>
<path d="M141.733 370.482C132.979 376.779 112.858 382.221 106.313 371.434C100.231 361.402 104.3 357.023 91.9528 358.757C79.6058 360.492 76.7672 350.894 79.6897 342.779C82.6121 334.664 70.4469 322.925 79.3261 313.775C88.2054 304.624 93.3092 323.653 98.455 325.71C103.601 327.766 106.747 323.331 112.676 326.563C118.605 329.795 119.178 343.017 124.953 343.269C134.405 343.703 150.318 343.633 151.521 352.07C152.723 360.506 141.733 370.482 141.733 370.482Z" fill="#FE553E"/>
<path d="M145.354 366.789H145.284C99.4896 362.004 81.7731 322.016 80.6824 316.195C80.6659 316.104 80.6676 316.009 80.6874 315.918C80.7073 315.827 80.7449 315.741 80.7982 315.664C80.8514 315.587 80.9192 315.522 80.9977 315.471C81.0762 315.421 81.1639 315.386 81.2557 315.37C81.3475 315.353 81.4417 315.355 81.5328 315.375C81.624 315.395 81.7103 315.432 81.7869 315.486C81.8635 315.539 81.9289 315.607 81.9793 315.685C82.0297 315.764 82.0642 315.852 82.0807 315.944C83.1434 321.666 100.496 360.716 145.452 365.403C145.544 365.412 145.633 365.439 145.715 365.483C145.796 365.526 145.869 365.585 145.927 365.657C145.986 365.729 146.029 365.811 146.056 365.9C146.082 365.988 146.091 366.081 146.081 366.173C146.057 366.347 145.97 366.506 145.835 366.62C145.701 366.734 145.53 366.794 145.354 366.789Z" fill="#FAFAFA"/>
<path d="M95.2807 348.88C92.3907 348.879 89.5055 348.645 86.6531 348.18C86.4717 348.146 86.3111 348.042 86.2064 347.89C86.1016 347.737 86.0611 347.55 86.0938 347.368C86.1089 347.278 86.1421 347.191 86.1914 347.113C86.2406 347.036 86.305 346.969 86.3807 346.917C86.4564 346.864 86.5418 346.828 86.6318 346.809C86.7219 346.791 86.8147 346.791 86.9048 346.809C92.1273 347.669 97.4553 347.669 102.678 346.809C102.861 346.771 103.052 346.808 103.209 346.91C103.366 347.012 103.476 347.172 103.517 347.354C103.535 347.444 103.536 347.537 103.518 347.627C103.501 347.718 103.466 347.804 103.415 347.88C103.364 347.957 103.299 348.023 103.223 348.074C103.147 348.126 103.061 348.162 102.971 348.18C100.439 348.677 97.8615 348.911 95.2807 348.88Z" fill="#FAFAFA"/>
<path d="M108.942 353.063H108.789C108.609 353.023 108.453 352.914 108.354 352.759C108.254 352.605 108.22 352.417 108.257 352.237C109.669 346.007 110.005 339.581 109.25 333.237C109.22 333.052 109.266 332.862 109.376 332.71C109.486 332.557 109.652 332.455 109.837 332.426C110.023 332.396 110.212 332.441 110.364 332.551C110.516 332.662 110.619 332.828 110.648 333.013C111.459 339.551 111.118 346.181 109.641 352.601C109.59 352.743 109.495 352.865 109.369 352.949C109.243 353.032 109.093 353.072 108.942 353.063Z" fill="#FAFAFA"/>
<path d="M23.2399 298.314L45.1933 285.638C46.2497 285.106 47.4157 284.83 48.5982 284.83C49.7806 284.83 50.9467 285.106 52.0031 285.638L54.7997 287.247C55.7935 287.892 56.6208 288.763 57.2137 289.79C57.8067 290.816 58.1486 291.968 58.2116 293.151V318.504C58.1464 319.687 57.8036 320.838 57.2108 321.864C56.618 322.89 55.792 323.762 54.7997 324.408L32.8602 337.085C31.8038 337.616 30.6378 337.893 29.4553 337.893C28.2729 337.893 27.1069 337.616 26.0505 337.085L23.2538 335.476C22.2626 334.829 21.4381 333.957 20.8476 332.931C20.2571 331.905 19.9173 330.754 19.856 329.571V304.219C19.919 303.038 20.2581 301.889 20.8458 300.864C21.4335 299.838 22.2535 298.965 23.2399 298.314Z" fill="#FE553E"/>
<path opacity="0.5" d="M23.2399 298.314L45.1933 285.638C46.2497 285.106 47.4157 284.83 48.5982 284.83C49.7806 284.83 50.9467 285.106 52.0031 285.638L54.7997 287.247C55.7935 287.892 56.6208 288.763 57.2137 289.79C57.8067 290.816 58.1486 291.968 58.2116 293.151V318.504C58.1464 319.687 57.8036 320.838 57.2108 321.864C56.618 322.89 55.792 323.762 54.7997 324.408L32.8602 337.085C31.8038 337.616 30.6378 337.893 29.4553 337.893C28.2729 337.893 27.1069 337.616 26.0505 337.085L23.2538 335.476C22.2626 334.829 21.4381 333.957 20.8476 332.931C20.2571 331.905 19.9173 330.754 19.856 329.571V304.219C19.919 303.038 20.2581 301.889 20.8458 300.864C21.4335 299.838 22.2535 298.965 23.2399 298.314Z" fill="#FAFAFA"/>
<path d="M58.1836 293.151C58.1836 290.969 56.6595 290.087 54.7717 291.179L32.8323 303.855C31.84 304.502 31.0139 305.373 30.4212 306.399C29.8284 307.425 29.4855 308.576 29.4204 309.759V335.112C29.4204 337.281 30.9446 338.162 32.8323 337.085L54.7717 324.408C55.764 323.762 56.5901 322.89 57.1829 321.864C57.7756 320.838 58.1185 319.687 58.1836 318.504V293.151Z" fill="#FE553E"/>
<path d="M19.842 329.571C19.8991 330.759 20.2368 331.915 20.8275 332.947C21.4182 333.978 22.245 334.854 23.2399 335.504L26.0365 337.113C26.996 337.595 28.0467 337.868 29.1193 337.913C30.1919 337.959 31.262 337.777 32.259 337.379C30.651 337.994 29.4624 337.085 29.4624 335.14V309.759C29.4995 308.571 29.8466 307.414 30.4692 306.401L20.8768 300.805C20.2667 301.822 19.9251 302.977 19.884 304.163L19.842 329.571Z" fill="#FE553E"/>
<path opacity="0.1" d="M19.842 329.571C19.8991 330.759 20.2368 331.915 20.8275 332.947C21.4182 333.978 22.245 334.854 23.2399 335.504L26.0365 337.113C26.996 337.595 28.0467 337.868 29.1193 337.913C30.1919 337.959 31.262 337.777 32.259 337.379C30.651 337.994 29.4624 337.085 29.4624 335.14V309.759C29.4995 308.571 29.8466 307.414 30.4692 306.401L20.8768 300.805C20.2667 301.822 19.9251 302.977 19.884 304.163L19.842 329.571Z" fill="black"/>
<path d="M34.5102 311.494L53.1776 300.679C53.667 300.385 54.0726 300.679 54.0726 301.197V313.789C54.0565 314.104 53.9672 314.411 53.8119 314.685C53.6565 314.96 53.4394 315.194 53.1776 315.37L34.5102 326.269C34.0068 326.563 33.6013 326.269 33.6013 325.738V313.145C33.608 312.817 33.6942 312.495 33.8525 312.208C34.0108 311.92 34.2365 311.675 34.5102 311.494Z" fill="#FAFAFA"/>
<path d="M33.6013 312.026L44.7458 315.65L54.0725 300.147L45.0535 316.951L33.6013 312.026Z" fill="#E0E0E0"/>
<path d="M23.2399 234.331L45.1934 221.655C46.2478 221.117 47.4146 220.836 48.5982 220.836C49.7819 220.836 50.9487 221.117 52.0031 221.655L54.7997 223.264C55.7892 223.911 56.6116 224.784 57.1997 225.81C57.7878 226.836 58.125 227.987 58.1836 229.168V254.521C58.1208 255.703 57.7788 256.853 57.1857 257.877C56.5926 258.901 55.7654 259.769 54.7718 260.411L32.8323 273.088C31.7779 273.626 30.6111 273.906 29.4274 273.906C28.2438 273.906 27.077 273.626 26.0226 273.088L23.2259 271.493C22.2341 270.838 21.4106 269.958 20.8226 268.925C20.2347 267.891 19.8987 266.734 19.842 265.546V240.236C19.9067 239.054 20.2479 237.904 20.8381 236.878C21.4283 235.853 22.251 234.98 23.2399 234.331Z" fill="#FE553E"/>
<path opacity="0.5" d="M23.2399 234.331L45.1934 221.655C46.2478 221.117 47.4146 220.836 48.5982 220.836C49.7819 220.836 50.9487 221.117 52.0031 221.655L54.7997 223.264C55.7892 223.911 56.6116 224.784 57.1997 225.81C57.7878 226.836 58.125 227.987 58.1836 229.168V254.521C58.1208 255.703 57.7788 256.853 57.1857 257.877C56.5926 258.901 55.7654 259.769 54.7718 260.411L32.8323 273.088C31.7779 273.626 30.6111 273.906 29.4274 273.906C28.2438 273.906 27.077 273.626 26.0226 273.088L23.2259 271.493C22.2341 270.838 21.4106 269.958 20.8226 268.925C20.2347 267.891 19.8987 266.734 19.842 265.546V240.236C19.9067 239.054 20.2479 237.904 20.8381 236.878C21.4283 235.853 22.251 234.98 23.2399 234.331Z" fill="#FAFAFA"/>
<path d="M58.1836 229.168C58.1836 226.986 56.6595 226.104 54.7717 227.196L32.8323 239.872C31.8384 240.517 31.0112 241.388 30.4182 242.414C29.8252 243.441 29.4833 244.593 29.4204 245.776V271.143C29.4204 273.312 30.9446 274.193 32.8323 273.102L54.7717 260.425C55.7653 259.783 56.5926 258.915 57.1857 257.891C57.7788 256.867 58.1208 255.717 58.1836 254.535V229.168Z" fill="#FE553E"/>
<path d="M19.842 265.546C19.9067 266.728 20.2479 267.878 20.8381 268.903C21.4283 269.929 22.251 270.801 23.2399 271.451L26.0365 273.046C26.9939 273.533 28.0444 273.811 29.1175 273.859C30.1907 273.907 31.2618 273.725 32.259 273.325C30.651 273.927 29.4624 273.032 29.4624 271.087V245.776C29.4995 244.588 29.8466 243.431 30.4692 242.418L20.8768 236.822C20.2667 237.839 19.9251 238.994 19.884 240.18L19.842 265.546Z" fill="#FE553E"/>
<path opacity="0.1" d="M19.842 265.546C19.9067 266.728 20.2479 267.878 20.8381 268.903C21.4283 269.929 22.251 270.801 23.2399 271.451L26.0365 273.046C26.9939 273.533 28.0444 273.811 29.1175 273.859C30.1907 273.907 31.2618 273.725 32.259 273.325C30.651 273.927 29.4624 273.032 29.4624 271.087V245.776C29.4995 244.588 29.8466 243.431 30.4692 242.418L20.8768 236.822C20.2667 237.839 19.9251 238.994 19.884 240.18L19.842 265.546Z" fill="black"/>
<path d="M43.5852 259.95L41.3199 259.698C38.2436 259.446 34.5801 258.299 34.5801 253.835C34.6687 252.215 35.1377 250.638 35.9492 249.233C36.7606 247.828 37.8916 246.634 39.2504 245.748C41.264 244.587 42.9699 245.063 43.6271 246.742C44.2897 244.251 45.8484 242.094 48.0038 240.683C50.5907 239.2 52.6742 240.403 52.6742 243.384C52.6742 247.693 49.0386 253.178 45.9763 256.969L43.5852 259.95Z" fill="#FAFAFA"/>
<path d="M23.2399 170.404L45.1933 157.728C46.2477 157.19 47.4145 156.909 48.5982 156.909C49.7818 156.909 50.9486 157.19 52.0031 157.728L54.7997 159.337C55.7933 159.979 56.6205 160.847 57.2136 161.871C57.8067 162.895 58.1487 164.045 58.2116 165.227V190.58C58.1498 191.764 57.8083 192.916 57.2152 193.943C56.6221 194.969 55.7943 195.84 54.7997 196.484L32.8602 209.16C31.8058 209.698 30.639 209.979 29.4553 209.979C28.2717 209.979 27.1049 209.698 26.0505 209.16L23.2538 207.565C22.2649 206.916 21.4422 206.044 20.852 205.018C20.2618 203.993 19.9206 202.843 19.856 201.661V176.266C19.9255 175.093 20.2675 173.952 20.855 172.935C21.4424 171.917 22.259 171.051 23.2399 170.404Z" fill="#FE553E"/>
<path opacity="0.5" d="M23.2399 170.404L45.1933 157.728C46.2477 157.19 47.4145 156.909 48.5982 156.909C49.7818 156.909 50.9486 157.19 52.0031 157.728L54.7997 159.337C55.7933 159.979 56.6205 160.847 57.2136 161.871C57.8067 162.895 58.1487 164.045 58.2116 165.227V190.58C58.1498 191.764 57.8083 192.916 57.2152 193.943C56.6221 194.969 55.7943 195.84 54.7997 196.484L32.8602 209.16C31.8058 209.698 30.639 209.979 29.4553 209.979C28.2717 209.979 27.1049 209.698 26.0505 209.16L23.2538 207.565C22.2649 206.916 21.4422 206.044 20.852 205.018C20.2618 203.993 19.9206 202.843 19.856 201.661V176.266C19.9255 175.093 20.2675 173.952 20.855 172.935C21.4424 171.917 22.259 171.051 23.2399 170.404Z" fill="#FAFAFA"/>
<path d="M32.8323 209.119C30.9446 210.21 29.4204 209.328 29.4204 207.16V181.807C29.4822 180.623 29.8236 179.471 30.4167 178.444C31.0098 177.418 31.8376 176.547 32.8323 175.903L54.7717 163.226C56.6595 162.135 58.1836 163.017 58.1836 165.185V190.538C58.1218 191.722 57.7804 192.874 57.1873 193.901C56.5942 194.927 55.7664 195.798 54.7717 196.442" fill="#FE553E"/>
<path d="M19.842 201.619C19.9067 202.801 20.2479 203.951 20.8381 204.976C21.4283 206.002 22.251 206.874 23.2399 207.523L26.0365 209.119C26.9939 209.606 28.0444 209.883 29.1175 209.932C30.1907 209.98 31.2618 209.798 32.259 209.398C30.651 210 29.4624 209.105 29.4624 207.16V181.807C29.4995 180.619 29.8466 179.461 30.4692 178.449L20.8768 172.853C20.2667 173.87 19.9251 175.025 19.884 176.21L19.842 201.619Z" fill="#FE553E"/>
<path opacity="0.1" d="M19.842 201.619C19.9067 202.801 20.2479 203.951 20.8381 204.976C21.4283 206.002 22.251 206.874 23.2399 207.523L26.0365 209.119C26.9939 209.606 28.0444 209.883 29.1175 209.932C30.1907 209.98 31.2618 209.798 32.259 209.398C30.651 210 29.4624 209.105 29.4624 207.16V181.807C29.4995 180.619 29.8466 179.461 30.4692 178.449L20.8768 172.853C20.2667 173.87 19.9251 175.025 19.884 176.21L19.842 201.619Z" fill="black"/>
<path d="M39.7959 185.795C39.7959 185.795 42.3548 179.89 42.5925 179.037C42.7196 177.575 42.7196 176.105 42.5925 174.643C42.5925 174.084 44.9277 172.503 45.6828 174.126C46.4092 175.852 46.5468 177.77 46.0743 179.582L51.7654 176.266C52.968 175.567 53.4574 176.546 53.4714 177.33C53.4323 178.223 53.109 179.081 52.5485 179.778C52.5485 179.778 53.6951 179.443 53.6951 180.968C53.661 181.504 53.5197 182.028 53.2795 182.509C53.0393 182.989 52.7051 183.417 52.2968 183.766C52.2968 183.766 52.6603 184.046 52.6743 185.165C52.5057 186.262 51.9381 187.259 51.0802 187.963C51.2692 188.405 51.3553 188.883 51.3319 189.362C51.2616 190.032 51.0368 190.677 50.6752 191.245C50.3137 191.813 49.8253 192.289 49.2485 192.636L39.9217 198.107L39.7959 185.795Z" fill="#FAFAFA"/>
<path d="M34.3983 202.948L38.4953 200.556L38.4394 186.284L34.3284 188.677L34.3983 202.948Z" fill="#FAFAFA"/>
<path d="M11.2283 95.4935L44.8716 76.0593C46.4878 75.2384 48.2747 74.8105 50.0873 74.8105C51.8998 74.8105 53.6868 75.2384 55.303 76.0593L59.4979 78.5078C61.0209 79.4976 62.2885 80.8336 63.1973 82.4067C64.1062 83.9799 64.6305 85.7458 64.7276 87.5603V126.429C64.623 128.234 64.095 129.989 63.1865 131.552C62.2779 133.115 61.0143 134.442 59.4979 135.425L25.9385 154.901C24.3198 155.723 22.5306 156.15 20.7158 156.15C18.901 156.15 17.1118 155.723 15.4931 154.901L11.2982 152.453C9.77937 151.46 8.51568 150.123 7.60952 148.55C6.70336 146.977 6.18023 145.213 6.08252 143.4V104.532C6.17237 102.727 6.68489 100.969 7.57874 99.3991C8.47258 97.829 9.72271 96.4912 11.2283 95.4935Z" fill="#FE553E"/>
<path opacity="0.1" d="M11.2283 95.4935L44.8716 76.0593C46.4878 75.2384 48.2747 74.8105 50.0873 74.8105C51.8998 74.8105 53.6868 75.2384 55.303 76.0593L59.4979 78.5078C61.0209 79.4976 62.2885 80.8336 63.1973 82.4067C64.1062 83.9799 64.6305 85.7458 64.7276 87.5603V126.429C64.623 128.234 64.095 129.989 63.1865 131.552C62.2779 133.115 61.0143 134.442 59.4979 135.425L25.9385 154.901C24.3198 155.723 22.5306 156.15 20.7158 156.15C18.901 156.15 17.1118 155.723 15.4931 154.901L11.2982 152.453C9.77937 151.46 8.51568 150.123 7.60952 148.55C6.70336 146.977 6.18023 145.213 6.08252 143.4V104.532C6.17237 102.727 6.68489 100.969 7.57874 99.3991C8.47258 97.829 9.72271 96.4912 11.2283 95.4935Z" fill="black"/>
<path d="M64.7836 87.3225C64.7836 85.3776 63.8328 80.5366 58.8408 83.6007C53.8488 86.6649 29.3225 100.53 25.9386 102.545C23.5905 103.834 21.7363 105.867 20.667 108.324L23.3378 111.01L64.7836 87.3225Z" fill="#FE553E"/>
<path opacity="0.2" d="M64.7836 87.3225C64.7836 85.3776 63.8328 80.5366 58.8408 83.6007C53.8488 86.6649 29.3225 100.53 25.9386 102.545C23.5905 103.834 21.7363 105.867 20.667 108.324L23.3378 111.01L64.7836 87.3225Z" fill="black"/>
<path d="M25.9387 154.901C23.0442 156.566 20.709 155.223 20.709 151.893V113.039C20.8039 111.222 21.3272 109.453 22.2361 107.877C23.1451 106.302 24.4138 104.964 25.9387 103.972L59.4981 84.5382C62.3925 82.8732 64.7277 84.2304 64.7277 87.5603V126.429C64.6231 128.234 64.0952 129.989 63.1867 131.552C62.2781 133.115 61.0145 134.442 59.4981 135.425" fill="#FE553E"/>
<path opacity="0.1" d="M25.9387 154.901C23.0442 156.566 20.709 155.223 20.709 151.893V113.039C20.8039 111.222 21.3272 109.453 22.2361 107.877C23.1451 106.302 24.4138 104.964 25.9387 103.972L59.4981 84.5382C62.3925 82.8732 64.7277 84.2304 64.7277 87.5603V126.429C64.6231 128.234 64.0952 129.989 63.1867 131.552C62.2781 133.115 61.0145 134.442 59.4981 135.425" fill="black"/>
<path d="M6.01272 143.4C6.11043 145.213 6.63356 146.977 7.53971 148.55C8.44587 150.123 9.70957 151.46 11.2284 152.453L15.4233 154.901C16.895 155.643 18.5072 156.064 20.1535 156.137C21.7999 156.209 23.4428 155.931 24.9738 155.321C22.5128 156.259 20.639 154.873 20.639 151.893V113.039C20.7027 111.219 21.2323 109.446 22.1772 107.89L7.48094 99.3972C6.53986 100.954 6.01499 102.727 5.95679 104.546L6.01272 143.4Z" fill="#FE553E"/>
<path opacity="0.2" d="M6.01272 143.4C6.11043 145.213 6.63356 146.977 7.53971 148.55C8.44587 150.123 9.70957 151.46 11.2284 152.453L15.4233 154.901C16.895 155.643 18.5072 156.064 20.1535 156.137C21.7999 156.209 23.4428 155.931 24.9738 155.321C22.5128 156.259 20.639 154.873 20.639 151.893V113.039C20.7027 111.219 21.2323 109.446 22.1772 107.89L7.48094 99.3972C6.53986 100.954 6.01499 102.727 5.95679 104.546L6.01272 143.4Z" fill="black"/>
<path d="M43.7531 99.4391L48.1158 107.134L57.904 103.133C58.8269 102.755 59.2044 103.846 58.5332 104.994L51.4718 117.026L53.1357 127.296C53.2896 128.276 52.3247 129.633 51.4997 129.619L42.7183 129.353L33.9789 139.707C33.1539 140.686 32.1891 140.434 32.3429 139.273L34.0349 127.03L27.0433 123.155C26.3721 122.791 26.7497 121.266 27.6726 120.58L37.4607 113.305L41.8234 100.558C42.145 99.3972 43.3336 98.7116 43.7531 99.4391Z" fill="#FAFAFA"/>
<path d="M516.745 276.991C499.965 284.98 472.838 284.98 456.086 276.991C439.334 269.002 439.306 256.004 456.086 248.071C472.866 240.138 499.993 240.082 516.745 248.071C533.496 256.06 533.44 269.002 516.745 276.991Z" fill="#E0E0E0"/>
<path d="M135.286 369.741C135.436 371.776 136.062 373.746 137.114 375.494C138.165 377.242 139.614 378.717 141.341 379.801L310.998 477.741C312.874 478.694 314.948 479.19 317.052 479.19C319.156 479.19 321.231 478.694 323.107 477.741L555.226 343.633C557.056 342.667 558.587 341.219 559.655 339.446C560.724 337.674 561.288 335.643 561.288 333.573C561.288 331.503 560.724 329.472 559.655 327.699C558.587 325.927 557.056 324.479 555.226 323.513L385.584 225.572C383.707 224.62 381.633 224.124 379.529 224.124C377.425 224.124 375.351 224.62 373.474 225.572L141.355 359.681C139.625 360.763 138.174 362.238 137.12 363.986C136.065 365.733 135.437 367.705 135.286 369.741Z" fill="#37474F"/>
<path d="M205.286 322.743L141.341 359.681C139.512 360.647 137.98 362.095 136.912 363.867C135.844 365.64 135.279 367.671 135.279 369.741C135.279 371.811 135.844 373.842 136.912 375.614C137.98 377.387 139.512 378.835 141.341 379.801L310.998 477.741C312.864 478.716 314.948 479.198 317.053 479.14V322.743H205.286Z" fill="#263238"/>
<path d="M129.609 359.891C127.921 358.748 126.527 357.222 125.54 355.437C124.554 353.652 124.003 351.659 123.932 349.621V147.038C124.044 144.935 124.65 142.889 125.702 141.065C126.755 139.242 128.223 137.693 129.987 136.545L362.106 2.50602C363.858 1.40635 365.876 0.805159 367.944 0.767039C370.012 0.728919 372.051 1.25532 373.843 2.28966C375.634 3.32401 377.11 4.82721 378.112 6.63775C379.114 8.4483 379.604 10.4978 379.529 12.5659V215.079C379.416 217.181 378.809 219.228 377.757 221.051C376.705 222.874 375.238 224.424 373.474 225.572L141.355 359.681C139.552 360.639 137.548 361.157 135.507 361.194C133.466 361.23 131.445 360.784 129.609 359.891Z" fill="#455A64"/>
<path d="M152.332 156.413L125.764 141.022C124.679 142.826 124.072 144.878 124.002 146.982V349.621C123.929 351.687 124.419 353.734 125.42 355.543C126.422 357.351 127.896 358.853 129.685 359.886C131.474 360.92 133.511 361.447 135.576 361.411C137.642 361.375 139.659 360.777 141.411 359.681L167.881 344.388L152.332 156.413Z" fill="#263238"/>
<path d="M135.286 153.614V356.183C135.286 360.045 137.999 361.612 141.341 359.681L373.46 225.572C375.224 224.424 376.691 222.874 377.743 221.051C378.795 219.228 379.402 217.181 379.515 215.079V12.5099C379.515 8.64827 376.802 7.08122 373.46 9.01205L141.341 143.107C139.578 144.259 138.111 145.811 137.059 147.637C136.008 149.462 135.4 151.51 135.286 153.614Z" fill="#37474F"/>
<path d="M141.341 366.677L310.998 464.687C312.874 465.64 314.949 466.136 317.053 466.136C319.157 466.136 321.231 465.64 323.107 464.687L555.226 330.579C558.582 328.648 558.582 325.514 555.226 323.583L385.584 225.572C383.707 224.62 381.633 224.124 379.529 224.124C377.425 224.124 375.351 224.62 373.474 225.572L141.355 359.681C137.999 361.612 137.999 364.746 141.341 366.677Z" fill="#455A64"/>
<path d="M144.599 154.356L370.216 24.0249C372.216 22.8636 373.852 23.8011 373.852 26.1237V201.479C373.781 202.74 373.416 203.967 372.784 205.061C372.153 206.154 371.273 207.084 370.216 207.775L144.599 338.106C142.586 339.267 140.964 338.33 140.964 336.007V160.61C141.037 159.355 141.405 158.136 142.036 157.049C142.668 155.963 143.546 155.04 144.599 154.356Z" fill="#FAFAFA"/>
<path d="M161.029 361.43L376.495 236.906C377.433 236.43 378.47 236.182 379.522 236.182C380.574 236.182 381.611 236.43 382.549 236.906L393.582 243.272C393.947 243.396 394.264 243.631 394.489 243.945C394.714 244.259 394.835 244.635 394.835 245.021C394.835 245.407 394.714 245.783 394.489 246.097C394.264 246.41 393.947 246.646 393.582 246.77L178.075 371.28C177.136 371.756 176.099 372.004 175.047 372.004C173.995 372.004 172.958 371.756 172.02 371.28L161.029 364.886C160.678 364.753 160.376 364.517 160.163 364.208C159.949 363.9 159.835 363.533 159.835 363.158C159.835 362.783 159.949 362.416 160.163 362.108C160.376 361.799 160.678 361.562 161.029 361.43Z" fill="#263238"/>
<path d="M189.429 377.842L404.894 253.318C405.833 252.842 406.87 252.594 407.921 252.594C408.973 252.594 410.011 252.842 410.949 253.318L478.739 292.494C479.104 292.618 479.421 292.853 479.646 293.167C479.871 293.481 479.991 293.857 479.991 294.243C479.991 294.629 479.871 295.005 479.646 295.319C479.421 295.632 479.104 295.868 478.739 295.992L263.525 420.32C262.584 420.796 261.545 421.044 260.491 421.044C259.437 421.044 258.397 420.796 257.457 420.32L189.443 381.312C189.08 381.19 188.765 380.958 188.541 380.647C188.318 380.337 188.196 379.965 188.195 379.582C188.193 379.199 188.311 378.826 188.533 378.514C188.754 378.202 189.067 377.967 189.429 377.842Z" fill="#263238"/>
<path d="M382.577 309.368L389.331 305.464C389.611 305.296 389.597 305.016 389.331 304.848L381.529 300.343C381.362 300.257 381.178 300.212 380.99 300.212C380.803 300.212 380.618 300.257 380.452 300.343L373.712 304.247C373.418 304.401 373.432 304.68 373.712 304.862L381.515 309.368C381.679 309.451 381.861 309.495 382.046 309.495C382.231 309.495 382.413 309.451 382.577 309.368ZM369.265 293.879L362.526 297.727C362.232 297.895 362.246 298.174 362.526 298.356L370.328 302.862C370.496 302.944 370.68 302.987 370.866 302.987C371.053 302.987 371.237 302.944 371.405 302.862L378.159 298.958C378.438 298.79 378.424 298.51 378.159 298.342L370.356 293.823C370.182 293.747 369.993 293.712 369.804 293.722C369.615 293.731 369.43 293.785 369.265 293.879ZM347.466 306.471L336.056 313.117C335.762 313.285 335.79 313.565 336.056 313.747L343.858 318.252C344.026 318.335 344.21 318.378 344.396 318.378C344.583 318.378 344.767 318.335 344.935 318.252L356.345 311.662C356.625 311.494 356.611 311.214 356.345 311.047L348.542 306.527C348.379 306.436 348.197 306.383 348.011 306.373C347.824 306.364 347.637 306.397 347.466 306.471ZM359.407 299.574L352.653 303.477C352.374 303.631 352.388 303.911 352.653 304.093L360.456 308.598C360.623 308.684 360.807 308.729 360.994 308.729C361.182 308.729 361.366 308.684 361.533 308.598L368.273 304.694C368.566 304.527 368.552 304.247 368.273 304.079L360.47 299.574C360.305 299.49 360.123 299.446 359.939 299.446C359.754 299.446 359.572 299.49 359.407 299.574ZM332.937 314.866L326.198 318.714C325.904 318.882 325.932 319.162 326.198 319.344L334 323.849C334.167 323.935 334.351 323.98 334.538 323.98C334.726 323.98 334.91 323.935 335.077 323.849L341.831 319.959C342.11 319.791 342.096 319.511 341.831 319.344L334.028 314.824C333.856 314.746 333.667 314.709 333.478 314.716C333.288 314.723 333.103 314.775 332.937 314.866ZM323.079 320.561L316.339 324.45C316.046 324.618 316.06 324.898 316.339 325.08L324.142 329.585C324.309 329.668 324.494 329.711 324.68 329.711C324.867 329.711 325.051 329.668 325.219 329.585L331.972 325.682C332.252 325.514 332.238 325.234 331.972 325.066L324.17 320.547C324 320.464 323.812 320.422 323.623 320.425C323.434 320.427 323.247 320.474 323.079 320.561ZM353.772 338.89L360.512 334.986C360.792 334.818 360.778 334.538 360.512 334.37L352.667 329.907C352.501 329.821 352.316 329.776 352.129 329.776C351.942 329.776 351.757 329.821 351.591 329.907L344.851 333.811C344.557 333.965 344.585 334.244 344.851 334.426L352.653 338.932C352.829 339.018 353.023 339.06 353.218 339.053C353.413 339.045 353.604 338.989 353.772 338.89ZM343.9 344.584L350.654 340.681C350.934 340.513 350.92 340.247 350.654 340.065L342.809 335.504C342.643 335.418 342.458 335.373 342.271 335.373C342.084 335.373 341.899 335.418 341.733 335.504L334.965 339.435C334.671 339.589 334.699 339.869 334.965 340.051L342.767 344.556C342.939 344.656 343.132 344.711 343.33 344.716C343.528 344.721 343.724 344.675 343.9 344.584ZM334.042 350.279L340.796 346.375C341.076 346.221 341.062 345.941 340.796 345.759L332.993 341.254C332.827 341.168 332.642 341.124 332.455 341.124C332.268 341.124 332.083 341.168 331.917 341.254L325.177 345.13C324.883 345.298 324.897 345.578 325.177 345.746L332.979 350.251C333.142 350.339 333.323 350.387 333.507 350.392C333.692 350.397 333.875 350.358 334.042 350.279ZM324.254 355.973L331.008 352.07C331.287 351.916 331.273 351.636 331.008 351.454L323.205 346.949C323.039 346.863 322.854 346.818 322.667 346.818C322.479 346.818 322.295 346.863 322.128 346.949L315.277 350.894C314.983 351.062 314.997 351.342 315.277 351.51L323.079 356.015C323.253 356.1 323.444 356.14 323.637 356.132C323.829 356.125 324.017 356.07 324.184 355.973H324.254ZM372.719 315.062L379.459 311.159C379.753 310.991 379.739 310.725 379.459 310.543L371.656 306.038C371.49 305.952 371.305 305.907 371.118 305.907C370.931 305.907 370.746 305.952 370.58 306.038L363.84 309.941C363.546 310.109 363.56 310.375 363.84 310.557L371.643 315.062C371.809 315.148 371.994 315.193 372.181 315.193C372.368 315.193 372.553 315.148 372.719 315.062ZM363.63 333.251L378.676 324.548C378.956 324.38 378.942 324.101 378.676 323.933L359.729 312.991C359.562 312.906 359.378 312.861 359.191 312.861C359.003 312.861 358.819 312.906 358.652 312.991L350.878 317.483C350.584 317.651 350.598 317.93 350.878 318.112L360.917 323.905C361.225 324.087 361.239 324.366 360.917 324.52L354.695 328.13C354.415 328.284 354.429 328.564 354.695 328.746L362.498 333.251C362.677 333.335 362.873 333.373 363.071 333.363C363.268 333.353 363.46 333.296 363.63 333.195V333.251ZM313.221 326.255L306.481 330.159C306.188 330.313 306.202 330.593 306.481 330.775L314.284 335.28C314.451 335.363 314.636 335.406 314.822 335.406C315.009 335.406 315.193 335.363 315.361 335.28L322.114 331.376C322.394 331.208 322.38 330.928 322.114 330.761L314.312 326.255C314.144 326.167 313.957 326.121 313.767 326.121C313.577 326.121 313.389 326.167 313.221 326.255ZM303.433 331.95L296.679 335.854C296.4 336.021 296.414 336.287 296.679 336.469L304.482 340.974C304.648 341.06 304.833 341.105 305.02 341.105C305.207 341.105 305.392 341.06 305.558 340.974L312.298 337.071C312.592 336.903 312.578 336.623 312.298 336.455L304.496 331.95C304.322 331.854 304.127 331.804 303.929 331.804C303.731 331.804 303.537 331.854 303.363 331.95H303.433ZM254.157 395.821C254.323 395.907 254.508 395.952 254.695 395.952C254.882 395.952 255.067 395.907 255.233 395.821L261.987 391.917C262.267 391.75 262.253 391.47 261.987 391.302L254.185 386.797C254.018 386.711 253.834 386.666 253.646 386.666C253.459 386.666 253.274 386.711 253.108 386.797L246.368 390.7C246.074 390.868 246.088 391.134 246.368 391.316L254.157 395.821ZM224.499 377.478L217.745 381.382C217.465 381.536 217.479 381.816 217.745 381.997L225.547 386.503C225.715 386.585 225.899 386.628 226.086 386.628C226.272 386.628 226.457 386.585 226.624 386.503L233.364 382.599C233.657 382.431 233.643 382.151 233.364 381.983L225.561 377.478C225.397 377.395 225.215 377.351 225.03 377.351C224.845 377.351 224.663 377.395 224.499 377.478ZM240.369 390.84C240.536 390.926 240.72 390.971 240.908 390.971C241.095 390.971 241.28 390.926 241.446 390.84L248.186 386.936C248.48 386.769 248.452 386.503 248.186 386.321L240.397 381.816C240.231 381.73 240.046 381.685 239.859 381.685C239.672 381.685 239.487 381.73 239.321 381.816L232.567 385.719C232.287 385.887 232.301 386.153 232.567 386.335L240.369 390.84ZM271.51 399.235L278.263 395.331C278.543 395.163 278.529 394.884 278.263 394.716L270.461 390.196C270.294 390.114 270.109 390.071 269.923 390.071C269.736 390.071 269.552 390.114 269.384 390.196L262.644 394.1C262.351 394.254 262.365 394.534 262.644 394.716L270.447 399.221C270.604 399.313 270.781 399.368 270.963 399.38C271.145 399.392 271.327 399.362 271.496 399.291L271.51 399.235ZM260.575 404.902C260.741 404.987 260.926 405.032 261.113 405.032C261.301 405.032 261.485 404.987 261.652 404.902L268.405 400.998C268.685 400.83 268.671 400.55 268.405 400.382L260.603 395.877C260.436 395.791 260.252 395.746 260.065 395.746C259.877 395.746 259.693 395.791 259.526 395.877L252.73 399.865C252.437 400.019 252.451 400.298 252.73 400.48L260.575 404.902ZM234.287 371.882L227.533 375.771C227.253 375.939 227.267 376.219 227.533 376.401L235.335 380.906C235.503 380.989 235.687 381.032 235.874 381.032C236.06 381.032 236.245 380.989 236.412 380.906L243.152 377.003C243.446 376.835 243.432 376.555 243.152 376.387L235.419 371.882C235.245 371.79 235.05 371.742 234.853 371.742C234.656 371.742 234.461 371.79 234.287 371.882ZM283.647 343.339L276.893 347.243C276.614 347.411 276.627 347.69 276.893 347.858L284.696 352.363C284.862 352.449 285.047 352.494 285.234 352.494C285.421 352.494 285.606 352.449 285.772 352.363L292.512 348.46C292.806 348.306 292.778 348.026 292.512 347.844L284.724 343.339C284.556 343.256 284.372 343.213 284.185 343.213C283.999 343.213 283.814 343.256 283.647 343.339ZM244.201 366.131L237.461 370.021C237.167 370.189 237.181 370.468 237.461 370.65L245.263 375.156C245.431 375.238 245.615 375.281 245.802 375.281C245.988 375.281 246.173 375.238 246.34 375.156L253.094 371.266C253.374 371.098 253.36 370.818 253.094 370.636L245.291 366.131C245.122 366.046 244.935 366.002 244.746 366.002C244.557 366.002 244.37 366.046 244.201 366.131ZM293.505 337.644L286.751 341.548C286.472 341.716 286.486 341.982 286.751 342.164L294.554 346.669C294.72 346.755 294.905 346.8 295.092 346.8C295.279 346.8 295.464 346.755 295.63 346.669L302.37 342.765C302.664 342.597 302.65 342.332 302.37 342.15L294.568 337.644C294.403 337.561 294.221 337.517 294.036 337.517C293.852 337.517 293.67 337.561 293.505 337.644ZM273.775 349.034L267.035 352.937C266.741 353.105 266.769 353.385 267.035 353.553L274.838 358.072C275.005 358.155 275.189 358.198 275.376 358.198C275.563 358.198 275.747 358.155 275.914 358.072L282.654 354.182C282.948 354.014 282.92 353.735 282.654 353.553L274.838 349.061C274.674 348.977 274.494 348.93 274.31 348.925C274.125 348.92 273.943 348.957 273.775 349.034ZM263.917 354.742L257.177 358.632C256.883 358.8 256.911 359.079 257.177 359.247L265.049 363.767C265.214 363.849 265.396 363.892 265.581 363.892C265.765 363.892 265.947 363.849 266.112 363.767L272.866 359.877C273.146 359.709 273.132 359.429 272.866 359.247L265.049 354.756C264.877 354.658 264.683 354.606 264.485 354.603C264.287 354.601 264.092 354.649 263.917 354.742ZM254.059 360.437L247.319 364.326C247.025 364.494 247.053 364.774 247.319 364.956L255.121 369.461C255.289 369.544 255.473 369.587 255.66 369.587C255.847 369.587 256.031 369.544 256.198 369.461L262.952 365.571C263.232 365.404 263.218 365.124 262.952 364.942L255.149 360.437C254.98 360.352 254.793 360.307 254.604 360.307C254.415 360.307 254.228 360.352 254.059 360.437ZM304.468 367.362L311.194 363.487C311.487 363.319 311.473 363.039 311.194 362.857L303.391 358.352C303.225 358.266 303.04 358.221 302.853 358.221C302.665 358.221 302.481 358.266 302.314 358.352L295.561 362.241C295.281 362.409 295.295 362.689 295.561 362.871L303.363 367.376C303.535 367.461 303.725 367.504 303.917 367.502C304.109 367.5 304.298 367.452 304.468 367.362ZM391.065 281.287L384.311 285.134C384.032 285.288 384.046 285.568 384.311 285.75L392.114 290.255C392.281 290.338 392.465 290.381 392.652 290.381C392.839 290.381 393.023 290.338 393.19 290.255L399.93 286.352C400.224 286.184 400.21 285.904 399.93 285.736L392.128 281.231C391.959 281.156 391.774 281.122 391.59 281.131C391.405 281.141 391.225 281.194 391.065 281.287ZM379.123 288.184L372.384 292.13C372.09 292.298 372.104 292.578 372.384 292.76L380.172 297.265C380.339 297.351 380.523 297.396 380.711 297.396C380.898 297.396 381.082 297.351 381.249 297.265L388.003 293.375C388.282 293.207 388.268 292.928 388.003 292.76L380.2 288.24C380.037 288.149 379.855 288.096 379.668 288.087C379.482 288.077 379.295 288.11 379.123 288.184ZM400.923 275.592L394.169 279.538C393.89 279.706 393.904 279.985 394.169 280.167L401.972 284.673C402.139 284.755 402.323 284.798 402.51 284.798C402.697 284.798 402.881 284.755 403.049 284.673L409.788 280.769C410.082 280.601 410.068 280.321 409.788 280.153L401.986 275.634C401.823 275.547 401.643 275.498 401.459 275.491C401.275 275.483 401.092 275.518 400.923 275.592ZM349.885 328.256L356.639 324.311C356.918 324.143 356.904 323.863 356.639 323.695L348.836 319.19C348.67 319.104 348.485 319.059 348.298 319.059C348.11 319.059 347.926 319.104 347.759 319.19L341.006 323.079C340.726 323.247 340.74 323.527 341.006 323.709L348.808 328.214C348.972 328.303 349.155 328.354 349.342 328.361C349.528 328.368 349.714 328.332 349.885 328.256ZM411.872 269.912C411.704 269.829 411.52 269.786 411.333 269.786C411.147 269.786 410.963 269.829 410.795 269.912L404.055 273.801C403.762 273.969 403.776 274.249 404.055 274.431L411.858 278.936C412.024 279.022 412.209 279.067 412.396 279.067C412.584 279.067 412.768 279.022 412.935 278.936L419.688 275.046C419.968 274.879 419.954 274.599 419.688 274.417L411.872 269.912ZM314.326 361.668L321.066 357.778C321.359 357.61 321.345 357.33 321.066 357.149L313.263 352.643C313.096 352.561 312.912 352.518 312.725 352.518C312.538 352.518 312.354 352.561 312.186 352.643L305.405 356.491C305.125 356.659 305.139 356.939 305.405 357.107L313.207 361.626C313.377 361.722 313.567 361.776 313.761 361.783C313.956 361.791 314.15 361.751 314.326 361.668ZM435.238 291.822L441.991 287.919C442.271 287.751 442.257 287.471 441.991 287.303L434.189 282.798C434.022 282.712 433.838 282.667 433.651 282.667C433.463 282.667 433.279 282.712 433.112 282.798L426.358 286.701C426.079 286.855 426.093 287.135 426.358 287.317L434.161 291.822C434.327 291.908 434.512 291.953 434.699 291.953C434.887 291.953 435.071 291.908 435.238 291.822ZM414.263 291.081L421.003 287.177C421.296 287.009 421.282 286.729 421.003 286.561L413.2 282.056C413.034 281.97 412.849 281.925 412.662 281.925C412.475 281.925 412.29 281.97 412.124 282.056L405.37 285.96C405.09 286.114 405.104 286.394 405.37 286.575L413.172 291.081C413.337 291.164 413.519 291.208 413.704 291.208C413.888 291.208 414.07 291.164 414.235 291.081H414.263ZM423.058 276.348C422.891 276.265 422.707 276.222 422.52 276.222C422.333 276.222 422.149 276.265 421.982 276.348L415.242 280.251C414.948 280.405 414.962 280.685 415.242 280.867L423.044 285.372C423.212 285.455 423.396 285.498 423.583 285.498C423.769 285.498 423.954 285.455 424.121 285.372L430.875 281.469C431.155 281.301 431.141 281.021 430.875 280.853L423.058 276.348ZM425.128 275.158L444.033 286.1C444.2 286.182 444.385 286.225 444.571 286.225C444.758 286.225 444.942 286.182 445.11 286.1L451.863 282.196C452.143 282.028 452.129 281.748 451.863 281.58L432.846 270.653C432.679 270.57 432.495 270.527 432.308 270.527C432.121 270.527 431.937 270.57 431.77 270.653L425.03 274.543C424.75 274.697 424.764 274.976 425.072 275.158H425.128ZM402.265 287.751L395.512 291.654C395.232 291.808 395.246 292.088 395.512 292.27L403.314 296.775C403.481 296.861 403.665 296.906 403.853 296.906C404.04 296.906 404.224 296.861 404.391 296.775L411.131 292.872C411.424 292.704 411.41 292.424 411.131 292.256L403.328 287.751C403.159 287.653 402.968 287.6 402.772 287.595C402.577 287.59 402.384 287.634 402.21 287.723L402.265 287.751ZM327.973 330.593L321.22 334.496C320.94 334.664 320.954 334.93 321.22 335.112L329.022 339.617C329.189 339.703 329.373 339.748 329.56 339.748C329.748 339.748 329.932 339.703 330.099 339.617L336.839 335.714C337.132 335.546 337.118 335.28 336.839 335.098L329.036 330.593C328.871 330.509 328.689 330.466 328.505 330.466C328.32 330.466 328.138 330.509 327.973 330.593ZM424.275 297.489C424.441 297.575 424.626 297.62 424.813 297.62C425.001 297.62 425.185 297.575 425.352 297.489L432.091 293.585C432.385 293.417 432.371 293.151 432.091 292.97L424.289 288.464C424.122 288.378 423.938 288.334 423.75 288.334C423.563 288.334 423.379 288.378 423.212 288.464L416.458 292.368C416.179 292.536 416.193 292.802 416.458 292.984L424.275 297.489ZM337.831 324.898L331.078 328.802C330.798 328.956 330.812 329.236 331.078 329.417L338.88 333.923C339.047 334.009 339.231 334.053 339.419 334.053C339.606 334.053 339.79 334.009 339.957 333.923L346.697 330.019C346.99 329.851 346.976 329.571 346.697 329.403L338.894 324.898C338.733 324.819 338.556 324.778 338.377 324.778C338.197 324.778 338.02 324.819 337.859 324.898H337.831ZM263.945 390.071C264.112 390.153 264.296 390.196 264.483 390.196C264.67 390.196 264.854 390.153 265.022 390.071L271.775 386.167C272.055 385.999 272.041 385.719 271.775 385.551L263.973 381.046C263.806 380.96 263.622 380.915 263.434 380.915C263.247 380.915 263.063 380.96 262.896 381.046L256.156 384.95C255.863 385.104 255.877 385.383 256.156 385.565L263.945 390.071ZM249.123 376.079L242.369 379.983C242.089 380.137 242.103 380.416 242.369 380.598L250.171 385.104C250.339 385.186 250.523 385.229 250.71 385.229C250.897 385.229 251.081 385.186 251.248 385.104L257.988 381.2C258.282 381.032 258.268 380.752 257.988 380.584L250.185 376.079C250.014 376.008 249.829 375.979 249.644 375.993C249.459 376.008 249.281 376.066 249.123 376.163V376.079ZM274.838 384.474L281.591 380.57C281.871 380.402 281.857 380.123 281.591 379.955L273.789 375.449C273.622 375.364 273.438 375.319 273.251 375.319C273.063 375.319 272.879 375.364 272.712 375.449L265.972 379.339C265.679 379.507 265.707 379.787 265.972 379.969L273.775 384.474C273.94 384.556 274.122 384.599 274.306 384.599C274.491 384.599 274.673 384.556 274.838 384.474ZM284.71 378.779L291.45 374.876C291.743 374.708 291.715 374.428 291.45 374.246L283.647 369.741C283.48 369.658 283.295 369.615 283.109 369.615C282.922 369.615 282.738 369.658 282.57 369.741L275.83 373.631C275.551 373.798 275.565 374.078 275.83 374.26L283.633 378.765C283.806 378.855 283.998 378.902 284.192 378.902C284.387 378.902 284.579 378.855 284.752 378.765L284.71 378.779ZM294.498 373.071L301.238 369.181C301.531 369.013 301.503 368.734 301.238 368.552L293.449 364.046C293.282 363.964 293.097 363.921 292.911 363.921C292.724 363.921 292.54 363.964 292.372 364.046L285.619 367.936C285.339 368.104 285.353 368.384 285.619 368.566L293.421 373.071C293.604 373.17 293.809 373.221 294.017 373.219C294.225 373.217 294.429 373.161 294.61 373.057L294.498 373.071ZM258.981 370.482L252.227 374.372C251.947 374.54 251.961 374.82 252.227 375.002L260.03 379.507C260.197 379.59 260.381 379.633 260.568 379.633C260.755 379.633 260.939 379.59 261.106 379.507L267.846 375.603C268.14 375.435 268.126 375.156 267.846 374.988L260.058 370.482C259.89 370.4 259.706 370.357 259.519 370.357C259.332 370.357 259.148 370.4 258.981 370.482ZM268.839 364.788L262.085 368.678C261.805 368.845 261.819 369.125 262.085 369.307L269.888 373.812C270.054 373.898 270.239 373.943 270.426 373.943C270.613 373.943 270.798 373.898 270.964 373.812L277.718 369.923C277.998 369.755 277.984 369.475 277.718 369.293L269.916 364.788C269.749 364.703 269.566 364.658 269.379 364.655C269.192 364.653 269.007 364.693 268.839 364.774V364.788ZM308.285 341.996L301.531 345.899C301.238 346.067 301.266 346.347 301.531 346.515L309.334 351.02C309.5 351.106 309.685 351.151 309.872 351.151C310.06 351.151 310.244 351.106 310.411 351.02L317.15 347.117C317.444 346.963 317.416 346.683 317.15 346.501L309.348 341.996C309.184 341.911 309.003 341.866 308.818 341.863C308.634 341.861 308.451 341.901 308.285 341.982V341.996ZM298.413 347.704L291.617 351.58C291.324 351.748 291.352 352.028 291.617 352.196L299.406 356.715C299.573 356.798 299.758 356.84 299.944 356.84C300.131 356.84 300.315 356.798 300.483 356.715L307.236 352.825C307.516 352.657 307.502 352.377 307.236 352.196L299.434 347.69C299.275 347.613 299.1 347.574 298.924 347.574C298.747 347.574 298.572 347.613 298.413 347.69V347.704ZM318.185 336.287L311.431 340.191C311.152 340.359 311.166 340.639 311.431 340.807L319.234 345.312C319.4 345.398 319.585 345.442 319.772 345.442C319.96 345.442 320.144 345.398 320.311 345.312L327.05 341.408C327.344 341.254 327.316 340.974 327.05 340.793L319.262 336.287C319.095 336.201 318.911 336.157 318.724 336.157C318.536 336.157 318.352 336.201 318.185 336.287ZM278.739 359.079L271.999 362.969C271.705 363.137 271.719 363.417 271.999 363.599L279.802 368.104C279.969 368.187 280.153 368.23 280.34 368.23C280.527 368.23 280.711 368.187 280.878 368.104L287.632 364.214C287.912 364.046 287.898 363.767 287.632 363.585L279.83 359.079C279.655 358.987 279.461 358.939 279.263 358.939C279.066 358.939 278.872 358.987 278.697 359.079H278.739ZM288.597 353.385L281.829 357.274C281.536 357.442 281.55 357.722 281.829 357.904L289.632 362.409C289.799 362.492 289.983 362.535 290.17 362.535C290.357 362.535 290.541 362.492 290.708 362.409L297.462 358.52C297.742 358.352 297.728 358.072 297.462 357.89L289.66 353.385C289.49 353.294 289.3 353.247 289.107 353.247C288.915 353.247 288.725 353.294 288.555 353.385H288.597ZM281.396 393.596L288.15 389.693C288.429 389.525 288.415 389.245 288.15 389.077L280.347 384.558C280.18 384.475 279.995 384.432 279.809 384.432C279.622 384.432 279.438 384.475 279.27 384.558L272.53 388.448C272.237 388.615 272.265 388.895 272.53 389.077L280.319 393.582C280.48 393.661 280.656 393.703 280.835 393.705C281.014 393.707 281.191 393.67 281.354 393.596H281.396ZM223.548 387.748L215.745 383.243C215.579 383.157 215.394 383.112 215.207 383.112C215.019 383.112 214.835 383.157 214.668 383.243L207.915 387.146C207.635 387.3 207.649 387.58 207.915 387.762L215.717 392.267C215.884 392.353 216.068 392.398 216.256 392.398C216.443 392.398 216.627 392.353 216.794 392.267L223.534 388.364C223.827 388.196 223.799 387.916 223.506 387.748H223.548ZM238.314 392.085L230.511 387.58C230.345 387.494 230.16 387.449 229.973 387.449C229.786 387.449 229.601 387.494 229.435 387.58L219.059 393.582C218.779 393.75 218.793 394.016 219.059 394.198L226.862 398.703C227.028 398.789 227.213 398.834 227.4 398.834C227.587 398.834 227.772 398.789 227.938 398.703L238.314 392.701C238.607 392.533 238.58 392.267 238.272 392.085H238.314ZM211.578 379.031L203.776 374.526C203.609 374.44 203.425 374.395 203.237 374.395C203.05 374.395 202.865 374.44 202.699 374.526L194.393 379.325C194.099 379.493 194.127 379.773 194.393 379.955L202.196 384.46C202.363 384.543 202.547 384.586 202.734 384.586C202.921 384.586 203.105 384.543 203.272 384.46L211.564 379.661C211.914 379.493 211.914 379.213 211.536 379.031H211.578ZM217.94 375.352C218.107 375.437 218.292 375.482 218.479 375.482C218.666 375.482 218.851 375.437 219.017 375.352L225.757 371.448C226.051 371.28 226.037 371.014 225.757 370.832L217.954 366.327C217.788 366.241 217.603 366.196 217.416 366.196C217.229 366.196 217.044 366.241 216.878 366.327L210.124 370.231C209.844 370.399 209.858 370.664 210.124 370.846L217.94 375.352ZM252.017 397.066L244.215 392.561C244.048 392.475 243.864 392.43 243.676 392.43C243.489 392.43 243.304 392.475 243.138 392.561L230.162 400.061C229.882 400.228 229.896 400.508 230.162 400.676L237.964 405.181C238.131 405.267 238.315 405.312 238.503 405.312C238.69 405.312 238.874 405.267 239.041 405.181L252.017 397.682C252.339 397.472 252.325 397.206 252.017 397.066ZM258.491 406.203L250.689 401.698C250.522 401.612 250.338 401.567 250.151 401.567C249.963 401.567 249.779 401.612 249.612 401.698L241.278 406.427C240.999 406.595 241.013 406.874 241.278 407.042L249.081 411.561C249.248 411.644 249.432 411.687 249.619 411.687C249.806 411.687 249.99 411.644 250.158 411.561L258.463 406.762C258.813 406.609 258.799 406.343 258.491 406.161V406.203ZM291.212 333.041C291.376 333.127 291.558 333.172 291.743 333.172C291.928 333.172 292.111 333.127 292.275 333.041L299.028 329.138C299.308 328.984 299.294 328.704 299.028 328.522L291.226 324.017C291.059 323.931 290.875 323.886 290.687 323.886C290.5 323.886 290.316 323.931 290.149 324.017L283.409 327.92C283.116 328.088 283.144 328.368 283.409 328.536L291.212 333.041ZM271.482 344.444C271.649 344.527 271.833 344.57 272.02 344.57C272.207 344.57 272.391 344.527 272.558 344.444L279.312 340.541C279.592 340.387 279.578 340.107 279.312 339.925L271.51 335.42C271.342 335.337 271.158 335.294 270.971 335.294C270.785 335.294 270.6 335.337 270.433 335.42L263.651 339.267C263.358 339.435 263.372 339.715 263.651 339.883L271.482 344.444ZM227.757 369.699C227.924 369.782 228.108 369.825 228.295 369.825C228.482 369.825 228.666 369.782 228.833 369.699L235.573 365.795C235.867 365.627 235.853 365.348 235.573 365.18L227.743 360.688C227.576 360.603 227.392 360.558 227.204 360.558C227.017 360.558 226.832 360.603 226.666 360.688L219.912 364.592C219.632 364.746 219.646 365.026 219.912 365.208L227.757 369.699ZM281.34 338.736C281.506 338.822 281.691 338.866 281.878 338.866C282.065 338.866 282.25 338.822 282.416 338.736L289.17 334.832C289.45 334.678 289.436 334.398 289.17 334.216L281.368 329.711C281.201 329.625 281.017 329.581 280.829 329.581C280.642 329.581 280.458 329.625 280.291 329.711L273.551 333.615C273.258 333.783 273.286 334.063 273.551 334.23L281.34 338.736ZM261.624 350.139C261.791 350.221 261.975 350.265 262.162 350.265C262.349 350.265 262.533 350.221 262.7 350.139L269.454 346.249C269.734 346.081 269.72 345.801 269.454 345.62L261.61 341.1C261.443 341.014 261.259 340.97 261.071 340.97C260.884 340.97 260.699 341.014 260.533 341.1L253.863 344.962C253.569 345.13 253.583 345.41 253.863 345.592L261.624 350.139ZM263.903 406.86C263.736 406.774 263.552 406.73 263.365 406.73C263.177 406.73 262.993 406.774 262.826 406.86L252.465 412.863C252.185 413.031 252.199 413.31 252.465 413.492L260.295 418.054C260.463 418.136 260.647 418.179 260.834 418.179C261.02 418.179 261.205 418.136 261.372 418.054L271.747 412.065C272.027 411.897 272.013 411.617 271.747 411.436L263.903 406.86ZM247.473 358.24C247.639 358.326 247.824 358.371 248.011 358.371C248.198 358.371 248.383 358.326 248.549 358.24L255.261 354.392C255.541 354.224 255.527 353.944 255.261 353.763L247.459 349.257C247.291 349.175 247.107 349.132 246.92 349.132C246.734 349.132 246.55 349.175 246.382 349.257L239.642 353.147C239.349 353.315 239.363 353.595 239.642 353.777L247.473 358.24ZM237.615 363.934C237.782 364.017 237.966 364.06 238.153 364.06C238.34 364.06 238.524 364.017 238.691 363.934L245.445 360.031C245.725 359.863 245.711 359.583 245.445 359.415L237.643 354.91C237.476 354.824 237.292 354.779 237.104 354.779C236.917 354.779 236.732 354.824 236.566 354.91L229.812 358.8C229.532 358.967 229.546 359.247 229.812 359.429L237.615 363.934ZM446.578 301.364C446.41 301.282 446.226 301.239 446.04 301.239C445.853 301.239 445.669 301.282 445.501 301.364L428.889 310.963C428.61 311.131 428.624 311.41 428.889 311.578L436.692 316.098C436.859 316.18 437.043 316.223 437.23 316.223C437.417 316.223 437.601 316.18 437.769 316.098L454.366 306.499C454.66 306.345 454.646 306.066 454.366 305.884L446.578 301.364ZM424.778 313.957C424.612 313.871 424.427 313.826 424.24 313.826C424.053 313.826 423.868 313.871 423.702 313.957L416.962 317.86C416.668 318.028 416.682 318.308 416.962 318.476L424.764 322.981C424.931 323.067 425.115 323.112 425.303 323.112C425.49 323.112 425.674 323.067 425.841 322.981L432.595 319.078C432.874 318.924 432.86 318.644 432.595 318.462L424.778 313.957ZM291.226 387.888L297.966 383.998C298.245 383.83 298.231 383.551 297.966 383.369L290.121 378.877C289.954 378.795 289.77 378.752 289.583 378.752C289.396 378.752 289.212 378.795 289.044 378.877L282.305 382.767C282.011 382.935 282.039 383.215 282.305 383.397L290.107 387.902C290.28 387.993 290.473 388.039 290.668 388.037C290.864 388.034 291.055 387.983 291.226 387.888ZM405.062 325.346C404.896 325.26 404.711 325.215 404.524 325.215C404.336 325.215 404.152 325.26 403.985 325.346L397.232 329.236C396.952 329.403 396.966 329.683 397.232 329.865L405.034 334.37C405.202 334.453 405.386 334.496 405.572 334.496C405.759 334.496 405.943 334.453 406.111 334.37L412.851 330.481C413.144 330.313 413.13 330.033 412.851 329.851L405.062 325.346ZM456.436 295.67C456.269 295.584 456.085 295.539 455.898 295.539C455.71 295.539 455.526 295.584 455.359 295.67L448.605 299.574C448.326 299.741 448.34 300.021 448.605 300.189L456.408 304.694C456.574 304.78 456.759 304.825 456.946 304.825C457.134 304.825 457.318 304.78 457.485 304.694L464.225 300.791C464.518 300.637 464.504 300.357 464.225 300.175L456.436 295.67ZM474.097 294.481L455.219 283.539C455.053 283.453 454.868 283.409 454.681 283.409C454.494 283.409 454.309 283.453 454.143 283.539L447.403 287.443C447.109 287.597 447.123 287.877 447.403 288.059L466.35 299C466.516 299.086 466.701 299.131 466.888 299.131C467.076 299.131 467.26 299.086 467.427 299L474.18 295.096C474.418 294.928 474.404 294.663 474.097 294.481ZM368.217 346.697C368.049 346.614 367.865 346.571 367.678 346.571C367.492 346.571 367.307 346.614 367.14 346.697L358.834 351.496C358.554 351.65 358.568 351.93 358.834 352.112L366.637 356.617C366.803 356.703 366.988 356.748 367.175 356.748C367.362 356.748 367.547 356.703 367.713 356.617L376.005 351.818C376.299 351.65 376.285 351.37 376.005 351.188L368.217 346.697ZM393.121 332.314C392.953 332.231 392.769 332.188 392.582 332.188C392.395 332.188 392.211 332.231 392.044 332.314L381.668 338.316C381.389 338.484 381.403 338.764 381.668 338.932L389.499 343.339C389.665 343.425 389.85 343.47 390.037 343.47C390.225 343.47 390.409 343.425 390.576 343.339L400.951 337.337C401.231 337.183 401.217 336.903 400.951 336.721L393.121 332.314ZM345.382 359.891C345.216 359.805 345.031 359.76 344.844 359.76C344.657 359.76 344.472 359.805 344.306 359.891L288.821 391.875C288.527 392.043 288.555 392.323 288.821 392.505L296.623 397.01C296.791 397.093 296.975 397.136 297.162 397.136C297.348 397.136 297.533 397.093 297.7 397.01L353.213 364.942C353.506 364.774 353.492 364.494 353.213 364.312L345.382 359.891ZM286.737 393.764C286.57 393.682 286.386 393.639 286.199 393.639C286.012 393.639 285.828 393.682 285.661 393.764L277.355 398.465C277.075 398.633 277.089 398.899 277.355 399.081L285.157 403.586C285.324 403.672 285.508 403.717 285.696 403.717C285.883 403.717 286.067 403.672 286.234 403.586L294.54 398.787C294.819 398.619 294.805 398.34 294.54 398.172L286.737 393.764ZM356.792 353.301C356.626 353.215 356.441 353.17 356.254 353.17C356.067 353.17 355.882 353.215 355.716 353.301L347.424 358.1C347.13 358.268 347.144 358.548 347.424 358.73L355.226 363.235C355.394 363.318 355.578 363.361 355.765 363.361C355.951 363.361 356.136 363.318 356.303 363.235L364.609 358.436C364.889 358.268 364.875 358.002 364.609 357.82L356.792 353.301ZM275.327 400.368C275.161 400.282 274.976 400.238 274.789 400.238C274.601 400.238 274.417 400.282 274.25 400.368L265.944 405.167C265.651 405.335 265.679 405.615 265.944 405.797L273.747 410.302C273.914 410.385 274.099 410.428 274.285 410.428C274.472 410.428 274.656 410.385 274.824 410.302L283.227 405.461C283.521 405.293 283.507 405.027 283.227 404.846L275.327 400.368ZM379.627 340.107C379.459 340.024 379.275 339.981 379.089 339.981C378.902 339.981 378.718 340.024 378.55 340.107L370.244 344.906C369.965 345.074 369.979 345.354 370.244 345.536L378.047 350.041C378.213 350.127 378.398 350.172 378.585 350.172C378.772 350.172 378.957 350.127 379.123 350.041L387.429 345.256C387.709 345.088 387.695 344.808 387.429 344.626L379.627 340.107ZM414.92 319.721C414.753 319.639 414.569 319.596 414.382 319.596C414.195 319.596 414.011 319.639 413.843 319.721L407.09 323.625C406.81 323.793 406.824 324.073 407.09 324.241L414.892 328.76C415.06 328.842 415.244 328.886 415.431 328.886C415.617 328.886 415.801 328.842 415.969 328.76L422.723 324.87C423.002 324.702 422.988 324.422 422.723 324.241L414.92 319.721ZM436.524 304.023L443.264 300.119C443.558 299.951 443.544 299.685 443.264 299.504L435.433 294.928C435.267 294.842 435.082 294.798 434.895 294.798C434.708 294.798 434.523 294.842 434.357 294.928L427.603 298.832C427.323 299 427.337 299.28 427.603 299.448L435.405 303.953C435.577 304.046 435.769 304.095 435.965 304.095C436.16 304.095 436.352 304.046 436.524 303.953V304.023ZM392.435 303.743L399.189 299.839C399.469 299.671 399.455 299.392 399.189 299.224L391.387 294.719C391.22 294.633 391.036 294.588 390.848 294.588C390.661 294.588 390.476 294.633 390.31 294.719L383.57 298.622C383.276 298.776 383.29 299.056 383.57 299.238L391.373 303.743C391.543 303.813 391.728 303.843 391.912 303.831C392.096 303.818 392.275 303.765 392.435 303.673V303.743ZM370.062 342.402L389.779 330.998C390.058 330.845 390.044 330.565 389.779 330.383L381.976 325.878C381.81 325.792 381.625 325.747 381.438 325.747C381.25 325.747 381.066 325.792 380.899 325.878L361.183 337.267C360.89 337.435 360.917 337.714 361.183 337.896L368.986 342.402C369.164 342.48 369.359 342.515 369.554 342.503C369.748 342.491 369.937 342.432 370.104 342.332L370.062 342.402ZM425.547 309.689C425.714 309.775 425.898 309.82 426.086 309.82C426.273 309.82 426.458 309.775 426.624 309.689L433.364 305.8C433.657 305.632 433.63 305.352 433.364 305.17L425.561 300.665C425.394 300.582 425.21 300.539 425.023 300.539C424.836 300.539 424.652 300.582 424.485 300.665L417.731 304.569C417.451 304.736 417.465 305.016 417.731 305.184L425.547 309.689ZM415.479 303.281L422.219 299.378C422.513 299.224 422.499 298.944 422.219 298.762L414.417 294.257C414.25 294.171 414.066 294.126 413.878 294.126C413.691 294.126 413.507 294.171 413.34 294.257L406.586 298.16C406.307 298.328 406.321 298.608 406.586 298.776L414.389 303.281C414.568 303.366 414.766 303.405 414.964 303.392C415.162 303.38 415.354 303.318 415.521 303.211L415.479 303.281ZM360.19 348.054L366.944 344.15C367.224 343.983 367.21 343.703 366.944 343.535L359.142 339.03C358.975 338.944 358.791 338.899 358.603 338.899C358.416 338.899 358.231 338.944 358.065 339.03L351.325 342.933C351.031 343.087 351.059 343.367 351.325 343.549L359.114 348.054C359.283 348.15 359.473 348.204 359.668 348.211C359.863 348.219 360.056 348.179 360.232 348.096L360.19 348.054ZM403.748 322.24C403.914 322.326 404.099 322.371 404.286 322.371C404.473 322.371 404.658 322.326 404.824 322.24L411.578 318.336C411.858 318.182 411.844 317.902 411.578 317.721L403.776 313.215C403.609 313.129 403.425 313.085 403.237 313.085C403.05 313.085 402.865 313.129 402.699 313.215L395.959 317.119C395.665 317.287 395.679 317.567 395.959 317.734L403.748 322.24ZM310.9 376.527L317.64 372.637C317.933 372.469 317.906 372.189 317.64 372.008L309.795 367.474C309.628 367.392 309.444 367.349 309.257 367.349C309.07 367.349 308.886 367.392 308.719 367.474L301.965 371.378C301.685 371.546 301.699 371.826 301.965 372.008L309.767 376.513C309.948 376.61 310.151 376.66 310.356 376.657C310.562 376.655 310.763 376.6 310.942 376.499L310.9 376.527ZM320.758 370.832L327.498 366.943C327.792 366.775 327.778 366.495 327.498 366.313L319.695 361.808C319.528 361.725 319.344 361.682 319.157 361.682C318.97 361.682 318.786 361.725 318.619 361.808L311.865 365.711C311.585 365.879 311.599 366.159 311.865 366.327L319.667 370.832C319.843 370.924 320.039 370.969 320.237 370.964C320.435 370.959 320.629 370.904 320.8 370.804L320.758 370.832ZM301.042 382.221L307.782 378.332C308.075 378.164 308.047 377.884 307.782 377.702L300.007 373.169C299.841 373.083 299.656 373.038 299.469 373.038C299.282 373.038 299.097 373.083 298.93 373.169L292.177 377.058C291.897 377.226 291.911 377.506 292.177 377.688L299.979 382.193C300.15 382.281 300.34 382.326 300.532 382.326C300.724 382.326 300.913 382.281 301.084 382.193L301.042 382.221ZM340.558 359.415L347.312 355.512C347.592 355.344 347.578 355.078 347.312 354.896L339.509 350.391C339.343 350.305 339.158 350.26 338.971 350.26C338.784 350.26 338.599 350.305 338.433 350.391L331.693 354.294C331.399 354.462 331.413 354.728 331.693 354.91L339.495 359.415C339.66 359.499 339.842 359.542 340.027 359.542C340.211 359.542 340.393 359.499 340.558 359.415ZM330.7 365.11L337.454 361.206C337.734 361.052 337.72 360.772 337.454 360.59L329.651 356.085C329.485 355.999 329.3 355.955 329.113 355.955C328.926 355.955 328.741 355.999 328.575 356.085L321.821 359.989C321.541 360.157 321.555 360.437 321.821 360.604L329.623 365.11C329.784 365.189 329.961 365.23 330.141 365.23C330.32 365.23 330.497 365.189 330.658 365.11H330.7ZM350.346 353.693L357.1 349.789C357.38 349.621 357.366 349.355 357.1 349.173L349.298 344.668C349.131 344.582 348.946 344.537 348.759 344.537C348.572 344.537 348.387 344.582 348.221 344.668L341.481 348.572C341.187 348.74 341.215 349.006 341.481 349.187L349.284 353.693C349.448 353.776 349.63 353.82 349.815 353.82C350 353.82 350.182 353.776 350.346 353.693ZM395.456 269.422C395.622 269.508 395.807 269.553 395.994 269.553C396.181 269.553 396.366 269.508 396.532 269.422L403.286 265.518C403.566 265.35 403.552 265.085 403.286 264.903L401.203 263.699C401.036 263.613 400.852 263.569 400.664 263.569C400.477 263.569 400.293 263.613 400.126 263.699L393.386 267.589C393.107 267.757 393.121 268.037 393.386 268.219L395.456 269.422ZM346.948 300.763C347.116 300.846 347.3 300.889 347.487 300.889C347.673 300.889 347.858 300.846 348.025 300.763L354.765 296.873C355.059 296.705 355.045 296.425 354.765 296.244L346.962 291.738C346.796 291.652 346.611 291.608 346.424 291.608C346.237 291.608 346.052 291.652 345.886 291.738L339.16 295.656C338.88 295.824 338.894 296.104 339.16 296.286L346.948 300.763ZM366.665 289.36C366.831 289.446 367.016 289.49 367.203 289.49C367.39 289.49 367.575 289.446 367.741 289.36L374.495 285.47C374.775 285.302 374.761 285.022 374.495 284.841L366.693 280.335C366.525 280.253 366.341 280.21 366.154 280.21C365.967 280.21 365.783 280.253 365.616 280.335L358.862 284.239C358.582 284.407 358.596 284.687 358.862 284.854L366.665 289.36ZM334.965 307.745C335.131 307.83 335.316 307.875 335.503 307.875C335.691 307.875 335.875 307.83 336.042 307.745L342.781 303.855C343.075 303.687 343.061 303.407 342.781 303.225L334.965 298.734C334.797 298.651 334.613 298.608 334.427 298.608C334.24 298.608 334.056 298.651 333.888 298.734L327.134 302.624C326.855 302.792 326.869 303.071 327.134 303.253L334.965 307.745ZM356.862 295.152C357.03 295.235 357.214 295.278 357.401 295.278C357.587 295.278 357.772 295.235 357.939 295.152L364.679 291.263C364.973 291.095 364.959 290.815 364.679 290.633L356.876 286.128C356.71 286.042 356.525 285.997 356.338 285.997C356.151 285.997 355.966 286.042 355.8 286.128L348.948 289.961C348.668 290.129 348.682 290.409 348.948 290.577L356.862 295.152ZM315.221 319.134C315.388 319.216 315.572 319.259 315.759 319.259C315.946 319.259 316.13 319.216 316.297 319.134L323.037 315.23C323.317 315.062 323.303 314.782 323.037 314.614L315.235 310.109C315.068 310.023 314.884 309.978 314.696 309.978C314.509 309.978 314.325 310.023 314.158 310.109L307.418 313.999C307.125 314.167 307.153 314.446 307.418 314.628L315.221 319.134ZM325.079 313.439C325.245 313.525 325.43 313.57 325.617 313.57C325.805 313.57 325.989 313.525 326.156 313.439L332.895 309.55C333.189 309.382 333.161 309.102 332.895 308.92L325.107 304.415C324.939 304.332 324.755 304.289 324.568 304.289C324.382 304.289 324.198 304.332 324.03 304.415L317.276 308.304C316.997 308.472 317.011 308.752 317.276 308.934L325.079 313.439ZM375.768 280.839C375.934 280.925 376.119 280.97 376.306 280.97C376.493 280.97 376.678 280.925 376.844 280.839L383.584 276.949C383.878 276.781 383.864 276.502 383.584 276.32L381.501 275.116C381.333 275.034 381.149 274.991 380.962 274.991C380.776 274.991 380.591 275.034 380.424 275.116L373.684 279.006C373.39 279.174 373.404 279.454 373.684 279.636L375.768 280.839ZM405.342 263.755C405.508 263.841 405.693 263.886 405.88 263.886C406.067 263.886 406.252 263.841 406.418 263.755L413.172 259.852C413.452 259.684 413.438 259.404 413.172 259.236L411.103 258.033C410.935 257.95 410.751 257.907 410.564 257.907C410.378 257.907 410.194 257.95 410.026 258.033L403.272 261.936C402.993 262.104 403.007 262.384 403.272 262.552L405.342 263.755ZM421.73 273.228C421.897 273.31 422.082 273.353 422.268 273.353C422.455 273.353 422.639 273.31 422.807 273.228L429.56 269.338C429.84 269.17 429.826 268.89 429.56 268.708L421.66 264.217C421.493 264.134 421.308 264.091 421.122 264.091C420.935 264.091 420.751 264.134 420.583 264.217L413.843 268.107C413.55 268.275 413.564 268.554 413.843 268.736L421.73 273.228ZM446.382 298.258L453.122 294.355C453.416 294.187 453.402 293.921 453.122 293.739L445.319 289.234C445.153 289.148 444.968 289.103 444.781 289.103C444.594 289.103 444.409 289.148 444.243 289.234L437.489 293.137C437.209 293.305 437.223 293.571 437.489 293.753L445.291 298.258C445.46 298.347 445.647 298.393 445.837 298.393C446.027 298.393 446.214 298.347 446.382 298.258ZM385.626 275.144C385.792 275.23 385.977 275.275 386.164 275.275C386.351 275.275 386.536 275.23 386.702 275.144L393.456 271.241C393.736 271.087 393.722 270.807 393.456 270.625L391.373 269.422C391.205 269.339 391.021 269.296 390.834 269.296C390.648 269.296 390.463 269.339 390.296 269.422L383.556 273.311C383.262 273.479 383.29 273.759 383.556 273.941L385.626 275.144ZM305.349 324.828C305.516 324.911 305.7 324.954 305.887 324.954C306.074 324.954 306.258 324.911 306.425 324.828L313.179 320.925C313.459 320.757 313.445 320.477 313.179 320.309L305.377 315.804C305.21 315.718 305.026 315.673 304.838 315.673C304.651 315.673 304.466 315.718 304.3 315.804L297.56 319.707C297.267 319.861 297.294 320.141 297.56 320.323L305.349 324.828Z" fill="#E0E0E0"/>
<path d="M345.438 386.153L419.283 343.493L464.728 369.741L390.883 412.401L345.438 386.153Z" fill="#263238"/>
<path d="M197.119 133.173L417.143 6.05985C421.45 3.56936 424.974 5.61212 424.974 10.5791V181.108C424.9 182.368 424.533 183.594 423.902 184.687C423.27 185.78 422.392 186.71 421.338 187.404L195.721 317.734C193.721 318.882 192.085 317.944 192.085 315.636V141.889C192.186 140.144 192.694 138.446 193.568 136.933C194.442 135.419 195.658 134.131 197.119 133.173Z" fill="#F5F5F5"/>
<path d="M424.974 14.6646V10.5791C424.974 5.61212 421.45 3.58336 417.143 6.05985L197.119 133.173C195.658 134.131 194.442 135.419 193.568 136.933C192.694 138.446 192.186 140.144 192.085 141.889V149.207L424.974 14.6646Z" fill="#263238"/>
<path d="M392.155 23.969C391.38 24.4876 390.736 25.1801 390.275 25.9913C389.814 26.8025 389.548 27.7102 389.499 28.6421C389.499 30.3631 390.715 31.0627 392.197 30.1952C392.984 29.6883 393.639 29.0015 394.108 28.1914C394.578 27.3813 394.848 26.4711 394.896 25.536C394.854 23.8151 393.693 23.1155 392.155 23.969Z" fill="#E0E0E0"/>
<path d="M402.853 17.7987C402.065 18.3086 401.41 18.9981 400.941 19.8104C400.472 20.6228 400.202 21.5349 400.154 22.4719C400.154 24.1928 401.356 24.8784 402.853 24.025C403.645 23.5071 404.303 22.8082 404.772 21.986C405.241 21.1637 405.508 20.2417 405.551 19.2958C405.551 17.6308 404.335 16.9313 402.853 17.7987Z" fill="#E0E0E0"/>
<path d="M413.55 11.6145C412.764 12.1261 412.11 12.8159 411.641 13.6279C411.172 14.4399 410.902 15.3512 410.851 16.2876C410.851 18.0086 412.053 18.7082 413.55 17.8407C414.332 17.3306 414.983 16.6427 415.45 15.833C415.916 15.0234 416.185 14.1148 416.234 13.1815C416.234 11.4606 415.032 10.761 413.55 11.6145Z" fill="#E0E0E0"/>
<path d="M192.085 149.207V182.017L424.96 47.4887V14.6646L192.085 149.207Z" fill="#FE553E"/>
<path opacity="0.1" d="M192.085 149.207V182.017L424.96 47.4887V14.6646L192.085 149.207Z" fill="black"/>
<path d="M207.341 164.919C206.558 165.163 205.726 165.206 204.922 165.045V148.969C204.916 148.664 204.983 148.361 205.118 148.088C205.284 147.824 205.515 147.607 205.789 147.458L206.992 146.772C207.299 146.591 207.523 146.535 207.663 146.618C207.803 146.702 207.872 146.912 207.872 147.262V152.551C208.319 151.858 208.855 151.228 209.467 150.676C210.116 150.086 210.829 149.57 211.592 149.137C213.354 148.116 214.71 147.878 215.675 148.451C216.64 149.025 217.073 150.326 217.073 152.341C217.097 154.602 216.518 156.829 215.395 158.791C214.2 160.814 212.486 162.48 210.431 163.618C209.466 164.193 208.426 164.631 207.341 164.919ZM213.186 158.357C213.844 157.058 214.166 155.615 214.123 154.16C214.123 152.761 213.871 151.921 213.382 151.571C212.892 151.222 212.067 151.362 210.907 152.033C210.079 152.52 209.36 153.173 208.795 153.95C208.215 154.673 207.89 155.569 207.872 156.496V162.009C208.242 162.049 208.616 162.001 208.963 161.869C209.448 161.711 209.917 161.505 210.361 161.254C211.559 160.576 212.538 159.572 213.186 158.357Z" fill="#FAFAFA"/>
<path d="M219.604 157.686C219.464 157.588 219.394 157.392 219.394 157.056V140.602C219.386 140.295 219.458 139.991 219.604 139.721C219.763 139.451 219.996 139.232 220.275 139.091L221.52 138.377C221.828 138.196 222.051 138.154 222.191 138.224C222.331 138.294 222.401 138.517 222.401 138.867V155.321C222.414 155.618 222.347 155.913 222.205 156.175C222.041 156.449 221.804 156.672 221.52 156.818L220.275 157.532C219.954 157.714 219.73 157.812 219.604 157.686Z" fill="#FAFAFA"/>
<path d="M226.358 152.565C225.253 151.963 224.708 150.606 224.708 148.465C224.702 146.347 225.273 144.267 226.358 142.449C227.5 140.536 229.125 138.958 231.07 137.874C233.098 136.698 234.678 136.475 235.783 137.006C236.887 137.538 237.447 138.965 237.447 141.106C237.455 143.226 236.879 145.308 235.783 147.122C234.642 149.039 233.017 150.622 231.07 151.711C229.029 152.887 227.463 153.166 226.358 152.565ZM233.601 146.576C234.198 145.419 234.497 144.129 234.468 142.827C234.468 141.428 234.175 140.518 233.601 140.112C233.028 139.707 232.203 139.833 231.07 140.476C230.004 141.076 229.127 141.963 228.539 143.037C227.935 144.182 227.631 145.463 227.658 146.758C227.658 148.176 227.952 149.109 228.539 149.557C229.127 149.976 229.938 149.864 231.07 149.235C232.145 148.621 233.023 147.713 233.601 146.618V146.576Z" fill="#FAFAFA"/>
<path d="M243.082 148.675C242.457 148.93 241.785 149.049 241.11 149.025C240.859 149.025 240.803 148.843 240.928 148.535L241.6 146.814C241.652 146.647 241.749 146.498 241.879 146.381C241.957 146.36 242.039 146.36 242.117 146.381C243.317 146.289 244.473 145.889 245.473 145.219C246.421 144.702 247.217 143.945 247.78 143.023C248.308 141.985 248.559 140.828 248.507 139.665C248.094 140.432 247.576 141.138 246.969 141.763C246.338 142.399 245.623 142.945 244.844 143.386C243.096 144.394 241.725 144.632 240.747 144.1C239.768 143.568 239.278 142.281 239.278 140.28C239.26 138.072 239.866 135.904 241.026 134.026C242.287 132.04 244.028 130.404 246.088 129.269C247.022 128.714 248.029 128.295 249.081 128.024C249.851 127.795 250.664 127.742 251.458 127.87V137.174C251.48 139.245 251 141.29 250.059 143.135C249.068 144.983 247.562 146.504 245.725 147.514C244.879 147.977 243.995 148.366 243.082 148.675ZM247.682 138.322C248.216 137.527 248.503 136.592 248.507 135.635V130.808C248.117 130.84 247.735 130.935 247.375 131.088C246.89 131.277 246.423 131.506 245.976 131.773C244.806 132.395 243.836 133.337 243.18 134.489C242.524 135.641 242.209 136.955 242.271 138.28C242.271 139.679 242.537 140.462 243.082 140.812C243.627 141.162 244.48 140.994 245.571 140.364C246.427 139.861 247.151 139.161 247.682 138.322Z" fill="#FAFAFA"/>
<path d="M231.839 173.566V288.898C231.839 289.668 232.245 290.059 232.734 289.765C233.018 289.528 233.245 289.23 233.4 288.894C233.555 288.557 233.633 288.191 233.629 287.821V172.489C233.629 171.719 233.224 171.341 232.734 171.635C232.45 171.869 232.221 172.164 232.066 172.498C231.911 172.833 231.834 173.198 231.839 173.566Z" fill="#FE553E"/>
<path d="M163.686 218.311L214.43 188.929C216.108 187.963 217.465 188.747 217.465 190.678V226.398C217.408 227.45 217.103 228.473 216.576 229.385C216.049 230.297 215.313 231.071 214.43 231.645L163.686 260.957C162.022 261.922 160.666 261.139 160.666 259.208V223.572C160.721 222.519 161.023 221.495 161.548 220.581C162.073 219.667 162.805 218.889 163.686 218.311Z" fill="#E0E0E0"/>
<path d="M217.507 190.734C217.507 188.803 216.108 188.019 214.472 188.985L163.728 218.367C162.849 218.944 162.118 219.719 161.593 220.63C161.069 221.542 160.765 222.564 160.708 223.614V226.65L217.507 193.784V190.734Z" fill="#FE553E"/>
<path d="M166.329 229.882L189.051 216.758V239.732L166.329 252.856V229.882Z" fill="#FAFAFA"/>
<path d="M166.343 249.512L174.858 234.373C174.925 234.22 175.031 234.088 175.166 233.989C175.3 233.89 175.458 233.829 175.624 233.81C175.79 233.792 175.957 233.817 176.11 233.884C176.263 233.951 176.395 234.057 176.494 234.191L179.473 237.465L184.604 225.614C184.912 224.901 185.513 224.831 186.003 225.475L189.107 229.882V239.676L166.384 252.8L166.343 249.512Z" fill="#FE553E"/>
<path d="M194.742 215.457C194.742 216.548 195.553 216.968 196.56 216.38L209.956 208.643C210.475 208.314 210.91 207.868 211.225 207.341C211.541 206.814 211.729 206.22 211.774 205.607C211.774 204.515 210.963 204.096 209.97 204.683L196.532 212.379C196.01 212.712 195.576 213.165 195.264 213.701C194.953 214.236 194.774 214.838 194.742 215.457Z" fill="#FAFAFA"/>
<path d="M194.742 224.971C194.742 226.062 195.553 226.482 196.56 225.908L209.956 218.157C210.476 217.83 210.912 217.385 211.228 216.857C211.544 216.329 211.731 215.734 211.774 215.121C211.774 214.03 210.963 213.624 209.97 214.197L196.532 221.865C196.009 222.203 195.574 222.662 195.263 223.202C194.951 223.742 194.773 224.348 194.742 224.971Z" fill="#FAFAFA"/>
<path d="M194.742 234.345C194.742 235.451 195.553 235.856 196.56 235.283L209.956 227.531C210.476 227.207 210.912 226.765 211.228 226.239C211.544 225.714 211.731 225.121 211.774 224.509C211.774 223.418 210.963 222.998 209.97 223.572L196.532 231.323C196.017 231.65 195.586 232.094 195.275 232.62C194.964 233.145 194.782 233.736 194.742 234.345Z" fill="#FAFAFA"/>
<path d="M163.686 273.605L214.43 244.293C216.108 243.328 217.465 244.111 217.465 246.042V281.762C217.408 282.814 217.103 283.838 216.576 284.749C216.049 285.661 215.313 286.435 214.43 287.009L163.686 316.391C162.022 317.357 160.666 316.573 160.666 314.642V278.852C160.723 277.802 161.027 276.78 161.551 275.869C162.076 274.957 162.807 274.182 163.686 273.605Z" fill="#E0E0E0"/>
<path d="M217.507 246.042C217.507 244.111 216.108 243.328 214.472 244.293L163.728 273.605C162.849 274.182 162.118 274.957 161.593 275.869C161.069 276.78 160.765 277.802 160.708 278.852V281.902L217.507 249.078V246.042Z" fill="#FE553E"/>
<path d="M166.329 285.176L189.051 272.052V295.026L166.329 308.15V285.176Z" fill="#FAFAFA"/>
<path d="M166.343 304.82L174.858 289.682C174.925 289.529 175.031 289.396 175.166 289.297C175.3 289.199 175.458 289.137 175.624 289.118C175.79 289.1 175.957 289.126 176.11 289.192C176.263 289.259 176.395 289.365 176.494 289.5L179.473 292.76L184.604 280.909C184.912 280.195 185.513 280.139 186.003 280.769L189.107 285.176V294.97L166.384 308.094L166.343 304.82Z" fill="#FE553E"/>
<path d="M194.742 270.751C194.742 271.842 195.553 272.262 196.56 271.688L209.956 263.937C210.476 263.613 210.912 263.17 211.228 262.645C211.544 262.12 211.731 261.527 211.774 260.915C211.774 259.81 210.963 259.404 209.97 259.978L196.532 267.729C196.017 268.056 195.586 268.5 195.275 269.025C194.964 269.551 194.782 270.142 194.742 270.751Z" fill="#FAFAFA"/>
<path d="M194.742 280.195C194.742 281.301 195.553 281.706 196.56 281.133L209.956 273.381C210.476 273.058 210.912 272.615 211.228 272.089C211.544 271.564 211.731 270.971 211.774 270.359C211.774 269.268 210.963 268.848 209.97 269.422L196.532 277.173C196.017 277.5 195.586 277.944 195.275 278.47C194.964 278.995 194.782 279.586 194.742 280.195Z" fill="#FAFAFA"/>
<path d="M194.742 289.654C194.742 290.745 195.553 291.165 196.56 290.577L209.956 282.84C210.475 282.511 210.91 282.065 211.225 281.538C211.541 281.011 211.729 280.417 211.774 279.804C211.774 278.712 210.963 278.292 209.97 278.88L196.532 286.617C196.018 286.949 195.589 287.396 195.278 287.924C194.967 288.451 194.784 289.043 194.742 289.654Z" fill="#FAFAFA"/>
<path d="M251.919 219.64L407.928 129.521C409.592 128.555 410.949 129.339 410.949 131.27V176.784C410.891 177.834 410.588 178.856 410.063 179.767C409.538 180.679 408.807 181.454 407.928 182.031L251.919 272.15C250.241 273.116 248.885 272.332 248.885 270.401V224.887C248.942 223.835 249.246 222.812 249.774 221.9C250.301 220.988 251.036 220.214 251.919 219.64Z" fill="#E0E0E0"/>
<path d="M410.949 131.228C410.949 129.297 409.55 128.513 407.928 129.479L251.919 219.64C251.036 220.214 250.301 220.988 249.774 221.9C249.246 222.812 248.942 223.835 248.885 224.887V227.923L410.949 134.306V131.228Z" fill="#FE553E"/>
<path d="M287.422 210.182L255.904 228.371C255.202 228.834 254.618 229.454 254.198 230.183C253.778 230.912 253.534 231.728 253.485 232.568V263.741C253.485 265.28 254.576 265.91 255.904 265.14L287.422 246.952C288.125 246.49 288.71 245.869 289.13 245.14C289.55 244.411 289.794 243.594 289.841 242.754V211.581C289.785 210.042 288.695 209.412 287.422 210.182Z" fill="#FAFAFA"/>
<path d="M264.546 237.563L253.429 261.349V263.811C253.429 265.35 254.52 265.98 255.848 265.21L287.366 247.021C288.069 246.559 288.654 245.939 289.074 245.21C289.494 244.481 289.738 243.664 289.785 242.824V231.967L283.828 220.773C283.101 219.374 282.025 219.444 281.423 220.871L272.041 242.908L267.482 237.227C267.33 236.948 267.099 236.721 266.817 236.574C266.535 236.428 266.216 236.369 265.901 236.405C265.585 236.441 265.288 236.57 265.046 236.777C264.805 236.983 264.631 237.257 264.546 237.563Z" fill="#FE553E"/>
<path d="M257.079 237.283C258.662 236.25 259.98 234.858 260.925 233.219C261.871 231.581 262.416 229.742 262.518 227.853C262.558 226.855 262.268 225.872 261.693 225.055L255.848 228.427C255.146 228.89 254.562 229.51 254.142 230.239C253.722 230.968 253.478 231.784 253.429 232.624V237.815C254.035 238.028 254.684 238.091 255.319 237.999C255.955 237.906 256.559 237.661 257.079 237.283Z" fill="#FE553E"/>
<path d="M304.02 203.326L401.426 147.066C402.825 146.283 403.845 146.814 403.845 148.241C403.781 149.047 403.529 149.826 403.109 150.516C402.688 151.207 402.112 151.788 401.426 152.215L304.02 208.489C302.622 209.258 301.601 208.727 301.601 207.3C301.665 206.494 301.918 205.715 302.338 205.025C302.758 204.334 303.334 203.753 304.02 203.326Z" fill="#FAFAFA"/>
<path d="M304.02 216.45L401.426 160.19C402.825 159.407 403.845 159.938 403.845 161.366C403.781 162.171 403.529 162.95 403.109 163.64C402.688 164.331 402.112 164.912 401.426 165.339L304.02 221.613C302.622 222.382 301.601 221.851 301.601 220.424C301.666 219.618 301.919 218.84 302.339 218.15C302.759 217.46 303.335 216.878 304.02 216.45Z" fill="#FAFAFA"/>
<path d="M304.02 229.574L401.426 173.314C402.825 172.531 403.845 173.062 403.845 174.489C403.78 175.297 403.527 176.077 403.107 176.77C402.687 177.462 402.112 178.047 401.426 178.477L304.02 234.765C302.622 235.534 301.601 235.003 301.601 233.576C301.662 232.765 301.913 231.981 302.333 231.286C302.754 230.591 303.331 230.004 304.02 229.574Z" fill="#FAFAFA"/>
<path d="M463.385 75.6955L449.094 75.2618C448.13 74.4503 433.112 57.4926 433.112 57.4926C433.112 57.4926 427.714 66.0134 427.616 66.5591C427.519 67.1048 442.341 82.9571 443.809 84.5522C444.221 85.0881 444.75 85.522 445.356 85.8204C445.962 86.1188 446.629 86.2737 447.305 86.2731C451.178 86.497 465.678 87.5184 465.678 87.5184L463.385 75.6955Z" fill="#F28F8F"/>
<path d="M483.703 92.1356L461.665 90.4986L463.371 75.6956L486.122 76.1993L483.703 92.1356Z" fill="#FE553E"/>
<path opacity="0.2" d="M483.703 92.1356L461.665 90.4986L463.371 75.6956L486.122 76.1993L483.703 92.1356Z" fill="black"/>
<path d="M280.319 140.826L436.328 50.7067C437.992 49.7413 439.348 50.5248 439.348 52.4557V97.984C439.29 99.0339 438.986 100.055 438.461 100.966C437.937 101.878 437.206 102.653 436.328 103.231L280.319 193.35C278.641 194.315 277.284 193.532 277.284 191.601V146.073C277.341 145.021 277.646 143.997 278.173 143.086C278.701 142.174 279.436 141.4 280.319 140.826Z" fill="#E0E0E0"/>
<path d="M439.348 52.4557C439.348 50.5248 437.95 49.7413 436.328 50.7067L280.319 140.826C279.436 141.4 278.701 142.174 278.173 143.086C277.646 143.997 277.341 145.021 277.284 146.073V149.109L439.348 55.4918V52.4557Z" fill="#FE553E"/>
<path d="M315.766 131.382L284.248 149.571C283.544 150.031 282.957 150.651 282.537 151.38C282.117 152.109 281.874 152.928 281.829 153.768V184.927C281.829 186.466 282.92 187.096 284.248 186.326L315.766 168.137C316.47 167.677 317.056 167.057 317.477 166.328C317.897 165.599 318.139 164.781 318.185 163.94V132.781C318.185 131.228 317.094 130.612 315.766 131.382Z" fill="#FAFAFA"/>
<path d="M293.015 158.763L281.829 182.479V184.941C281.829 186.48 282.92 187.11 284.248 186.34L315.766 168.151C316.47 167.691 317.056 167.071 317.477 166.342C317.897 165.613 318.139 164.795 318.185 163.954V153.194L312.228 142.001C311.501 140.602 310.424 140.686 309.823 142.099L300.44 164.178L295.882 158.483C295.723 158.229 295.497 158.025 295.228 157.892C294.96 157.76 294.66 157.705 294.362 157.734C294.064 157.763 293.78 157.875 293.542 158.057C293.304 158.239 293.122 158.483 293.015 158.763Z" fill="#FE553E"/>
<path d="M285.478 158.483C287.062 157.446 288.379 156.051 289.324 154.41C290.269 152.77 290.815 150.93 290.918 149.039C290.955 148.041 290.666 147.058 290.093 146.241L284.248 149.627C283.544 150.087 282.957 150.707 282.537 151.436C282.117 152.165 281.874 152.983 281.829 153.824V159.001C282.434 159.216 283.082 159.282 283.717 159.191C284.353 159.101 284.957 158.858 285.478 158.483Z" fill="#FE553E"/>
<path d="M332.42 124.512L429.826 68.2661C431.224 67.4965 432.245 68.0142 432.245 69.4414C432.181 70.2488 431.928 71.0299 431.508 71.7224C431.088 72.4148 430.512 72.9992 429.826 73.4289L332.42 129.689C331.091 130.458 330.001 129.941 330.001 128.513C330.064 127.704 330.316 126.92 330.736 126.226C331.156 125.531 331.733 124.944 332.42 124.512Z" fill="#FAFAFA"/>
<path d="M332.42 137.636L429.826 81.3761C431.224 80.6066 432.245 81.1383 432.245 82.5514C432.181 83.3588 431.928 84.14 431.508 84.8324C431.088 85.5248 430.512 86.1092 429.826 86.539L332.42 142.799C331.091 143.582 330.001 143.051 330.001 141.624C330.066 140.816 330.319 140.036 330.739 139.343C331.159 138.651 331.734 138.066 332.42 137.636Z" fill="#FAFAFA"/>
<path d="M332.42 150.816L429.826 94.5561C431.224 93.7866 432.245 94.3183 432.245 95.7314C432.181 96.5388 431.928 97.32 431.508 98.0124C431.088 98.7048 430.512 99.2892 429.826 99.719L332.42 155.979C331.091 156.762 330.001 156.231 330.001 154.804C330.066 153.996 330.319 153.216 330.739 152.523C331.159 151.831 331.734 151.246 332.42 150.816Z" fill="#FAFAFA"/>
<path d="M511.837 248.644H503.587V260.677H511.837V248.644Z" fill="#FFA8A7"/>
<path d="M482.821 233.724L474.575 234.008L474.989 246.033L483.234 245.749L482.821 233.724Z" fill="#FFA8A7"/>
<path d="M511.305 131.228C511.305 139.119 512.326 190.146 512.326 190.146C512.522 192.413 514.647 196.596 514.186 205.327C513.57 217.164 512.536 250.1 512.536 250.1C512.536 250.1 508.676 253.947 503.209 250.1C503.209 250.1 495.728 205.397 494.246 193.672C492.959 183.43 490.764 155.601 490.764 155.601L483.185 188.285C483.185 188.285 484.584 195.98 484.835 201.423C485.087 206.866 483.437 238.235 483.437 238.235C482.102 239.074 480.57 239.548 478.995 239.61C477.42 239.671 475.856 239.318 474.46 238.585C474.46 238.585 467.804 192.79 466.895 187.809C465.986 182.828 472.698 131.228 472.698 131.228H511.305Z" fill="#455A64"/>
<path d="M498.888 76.563H499C502.533 77.4673 505.662 79.5266 507.892 82.4138C510.121 85.3011 511.322 88.8508 511.305 92.4993V131.228C505.516 137.524 485.339 140.462 472.698 131.228V90.9323C472.698 84.4962 476.264 76.7589 486.136 76.1852L498.888 76.563Z" fill="#FE553E"/>
<path d="M501.657 43.627C502.323 43.5494 502.998 43.6251 503.63 43.8481C504.263 44.0712 504.836 44.4359 505.306 44.9143C506.873 46.5093 506.537 49.4755 505.306 56.2754L500.468 56.835L501.657 43.627Z" fill="#263238"/>
<path d="M473.495 41.6822C472.452 41.6865 471.419 41.477 470.461 41.0666C468.978 40.2131 468.601 41.8921 469.412 43.3612C469.947 44.4107 470.742 45.3054 471.721 45.9595C472.701 46.6136 473.831 47.0052 475.005 47.0969C475.005 46.887 476.403 43.3192 476.403 43.3192L473.495 41.6822Z" fill="#263238"/>
<path d="M499.392 56.835C500.119 57.2687 501.14 55.8836 502.02 54.9601C502.37 54.5633 502.814 54.2618 503.311 54.0838C503.809 53.9057 504.343 53.8571 504.864 53.9424C505.386 54.0278 505.877 54.2442 506.292 54.5715C506.707 54.8988 507.032 55.3262 507.236 55.8136C508.704 58.9057 505.376 63.0192 503.419 64.3764C502.87 64.8526 502.185 65.1428 501.462 65.2057C500.739 65.2685 500.014 65.1007 499.392 64.7262L498.888 76.563C498.023 78.4616 496.7 80.1154 495.038 81.3756C493.376 82.6358 491.427 83.4629 489.366 83.7826C482.374 84.734 483.856 78.9975 486.136 76.1853V71.8899C484.399 72.2593 482.615 72.3491 480.85 72.1557C479.941 71.9178 477.788 69.3574 476.39 66.3772C474.823 63.0892 472.195 57.2548 474.53 47.3907C477.033 36.7992 488.401 36.4774 495.183 40.7448C501.965 45.0122 499.392 56.835 499.392 56.835Z" fill="#FFA8A7"/>
<path d="M499.392 58.0523C499.755 58.0523 501.126 55.7717 502.02 54.9602C503.265 53.8408 501.657 43.627 501.657 43.627C501.657 43.627 502.915 39.7654 500.468 37.1909C498.021 34.6165 493.281 35.0642 489.813 34.9383C485.557 34.9641 481.34 34.1165 477.424 32.4478C472.516 30.3071 472.139 30.0553 471.537 32.224C470.936 34.3926 470.684 39.3316 473.635 42.6616L476.068 43.5571C476.068 43.5571 477.396 44.7324 481.983 45.292C486.218 45.6118 490.474 45.5274 494.693 45.0402C496.022 44.8583 496.315 46.1595 497.028 49.6854C497.658 52.7775 498.189 58.0243 499.392 58.0523Z" fill="#263238"/>
<path d="M501.657 44.4805L505.992 42.1579C505.853 41.8649 505.657 41.6031 505.415 41.3882C505.173 41.1733 504.889 41.0099 504.582 40.9079C504.275 40.8058 503.95 40.7673 503.628 40.7946C503.305 40.8219 502.991 40.9144 502.706 41.0666C502.126 41.3919 501.694 41.928 501.498 42.5636C501.303 43.1992 501.36 43.8856 501.657 44.4805Z" fill="#263238"/>
<path d="M486.15 71.8898C489.113 71.3237 492.02 70.4902 494.833 69.3994C496.149 68.7019 497.228 67.631 497.937 66.3212C497.599 67.635 496.999 68.8673 496.176 69.945C494.526 72.0437 486.15 73.5968 486.15 73.5968V71.8898Z" fill="#F28F8F"/>
<path d="M487.688 55.226C487.707 55.4789 487.8 55.7207 487.954 55.9217C488.109 56.1226 488.319 56.274 488.558 56.3572C488.798 56.4404 489.056 56.4518 489.302 56.3899C489.548 56.328 489.77 56.1956 489.942 56.009C490.113 55.8223 490.227 55.5896 490.268 55.3393C490.309 55.0891 490.276 54.8322 490.173 54.6004C490.071 54.3686 489.902 54.1718 489.689 54.0344C489.476 53.897 489.228 53.8248 488.974 53.8268C488.797 53.8322 488.623 53.8728 488.462 53.9465C488.301 54.0201 488.157 54.1251 488.037 54.2555C487.917 54.3858 487.824 54.5388 487.764 54.7055C487.705 54.8721 487.679 55.0491 487.688 55.226Z" fill="#263238"/>
<path d="M489.058 50.3569L491.855 51.882C492.052 51.5037 492.095 51.0636 491.975 50.654C491.855 50.2445 491.582 49.8973 491.211 49.6853C491.028 49.5778 490.825 49.5097 490.614 49.4854C490.403 49.4612 490.189 49.4813 489.986 49.5446C489.784 49.6078 489.596 49.7127 489.436 49.8526C489.277 49.9925 489.148 50.1643 489.058 50.3569Z" fill="#263238"/>
<path d="M487.786 63.9707L484.849 65.076C484.912 65.2746 485.015 65.4583 485.15 65.6161C485.286 65.7739 485.453 65.9025 485.64 65.9941C485.827 66.0856 486.03 66.1383 486.238 66.1488C486.446 66.1594 486.654 66.1276 486.849 66.0554C487.244 65.896 487.562 65.59 487.736 65.2015C487.911 64.813 487.929 64.372 487.786 63.9707Z" fill="#F28F8F"/>
<path d="M476.194 51.4763L478.711 49.5314C478.593 49.362 478.442 49.2183 478.266 49.1091C478.091 48.9999 477.896 48.9273 477.692 48.8959C477.488 48.8645 477.28 48.8749 477.08 48.9264C476.88 48.9779 476.693 49.0695 476.529 49.1956C476.193 49.4611 475.971 49.8452 475.909 50.2692C475.846 50.6932 475.948 51.1251 476.194 51.4763Z" fill="#263238"/>
<path d="M476.977 54.8622C476.961 55.0404 476.983 55.2199 477.041 55.3892C477.098 55.5586 477.191 55.714 477.312 55.8457C477.433 55.9773 477.58 56.0823 477.744 56.1538C477.908 56.2254 478.084 56.262 478.263 56.2613C478.543 56.2838 478.824 56.2213 479.068 56.0819C479.312 55.9425 479.509 55.7326 479.632 55.4797C479.755 55.2269 479.799 54.9427 479.759 54.6644C479.718 54.386 479.595 54.1264 479.404 53.9194C479.214 53.7124 478.966 53.5676 478.692 53.5039C478.418 53.4402 478.131 53.4606 477.869 53.5623C477.607 53.6641 477.382 53.8426 477.223 54.0745C477.063 54.3064 476.978 54.5809 476.977 54.8622Z" fill="#263238"/>
<path d="M483.535 53.6449L483.115 61.3962L479.06 60.0251L483.535 53.6449Z" fill="#F28F8F"/>
<path d="M503.601 256.592V255.416C502.804 255.752 500.972 262.762 497.7 265.756C495.085 268.135 491.533 270.877 490.638 273.521C489.743 276.166 495.588 277.803 498.021 277.369C500.818 276.865 505.74 274.879 506.971 273.032C508.201 271.185 508.774 268.456 509.767 267.113C510.76 265.77 513.067 264.245 513.612 262.678C513.774 261.215 513.612 259.734 513.137 258.341C512.76 256.941 512.34 255.276 511.837 255.416V256.312C510.665 257.242 509.207 257.736 507.712 257.711C506.523 257.753 503.587 257.515 503.601 256.592Z" fill="#263238"/>
<path d="M474.893 243.51C474.46 243.51 474.11 244.125 473.159 245.161C471.749 246.59 470.108 247.772 468.307 248.658C465.217 250.197 459.204 252.576 456.492 253.807C454.786 254.577 454.869 256.606 456.617 257.795C458.365 258.984 462.616 259.81 467.72 258.662C470.517 258.047 474.096 255.486 476.389 255.626C478.683 255.766 482.948 255.724 484.639 254.563C486.331 253.402 485.646 250.911 485.171 248.784C484.653 246.448 483.898 242.88 483.129 243.048V243.775C482.136 245.272 477.089 245.888 474.907 244.783L474.893 243.51Z" fill="#263238"/>
<path d="M501.363 81.9358L475.858 108.324C475.858 108.324 453.485 104.322 445.851 102.125C443.445 101.44 441.767 97.8441 441.236 95.1297C441.1 93.7164 440.411 92.414 439.32 91.5059C439.32 91.5059 439.32 93.4787 438.817 96.7108C438.621 98.1099 436.412 98.2918 434.44 98.7256C427.449 100.237 425.072 98.7256 422.177 100.74C419.94 102.335 422.75 106.477 427.854 107.876C435.028 109.849 439.041 108.869 443.348 109.947C446.718 110.786 470.964 118.342 475.579 119.405C478.012 119.937 479.871 119.769 482.57 117.152C485.269 114.536 505.349 96.9626 505.349 96.9626L501.363 81.9358Z" fill="#FFA8A7"/>
<path d="M502.496 81.0263C499.699 80.3127 482.64 100.614 482.64 100.614L492.037 108.506C492.037 108.506 504.202 100.53 506.355 97.3124C508.509 94.0944 510.956 83.139 502.496 81.0263Z" fill="#FE553E"/>
<path d="M492.652 109.037C492.652 109.037 505.488 97.5363 506.09 96.277C507.25 93.8565 506.929 89.3792 506.929 89.3792C506.929 89.3792 508.327 93.2689 506.929 96.277C505.53 99.2852 495.742 107.834 494.19 109.303L492.61 110.786L491.086 109.387L491.995 108.59L492.652 109.037Z" fill="#FE553E"/>
<path opacity="0.2" d="M492.652 109.037C492.652 109.037 505.488 97.5363 506.09 96.277C507.25 93.8565 506.929 89.3792 506.929 89.3792C506.929 89.3792 508.327 93.2689 506.929 96.277C505.53 99.2852 495.742 107.834 494.19 109.303L492.61 110.786L491.086 109.387L491.995 108.59L492.652 109.037Z" fill="black"/>
<path d="M428.162 52.0919C430.958 51.7841 432.818 49.7133 433.447 50.287C433.702 50.5588 433.851 50.9133 433.867 51.2858C433.882 51.6582 433.763 52.0238 433.531 52.3158C432.241 53.2967 430.831 54.11 429.336 54.7363C428.986 56.1584 428.734 57.6029 428.581 59.0597C428.344 61.2004 428.428 65.4818 426.596 66.9369C421.128 71.3302 419.73 64.3624 419.94 59.6893C420.261 53.8828 425.239 52.4137 428.162 52.0919Z" fill="#F28F8F"/>
</g>
<defs>
<clipPath id="clip0_239_153">
<rect width="600" height="498.447" fill="white" transform="translate(0 0.938965)"/>
</clipPath>
</defs>
</svg>
