<svg width="28" height="32" viewBox="0 0 28 32" fill="none" xmlns="http://www.w3.org/2000/svg">
<g clip-path="url(#clip0_239_329)">
<g clip-path="url(#clip1_239_329)">
<path fill-rule="evenodd" clip-rule="evenodd" d="M8.76027 0.909149V8.74609H0.730023C0.327324 8.74609 0 8.427 0 8.03328V3.75921C0 2.18577 1.32426 0.909149 2.92009 0.909149H8.76027ZM3.37635 2.24499C2.26763 2.24499 1.36879 3.12264 1.36879 4.20422V7.23249C1.36879 7.33063 1.45083 7.41024 1.55175 7.41024H5.38392V4.20422C5.38392 3.12219 4.48535 2.24499 3.37635 2.24499Z" fill="url(#paint0_linear_239_329)"/>
<path fill-rule="evenodd" clip-rule="evenodd" d="M9.48995 13.0653C9.47795 13.0653 9.46606 13.0676 9.45497 13.072C9.44388 13.0765 9.43381 13.0831 9.42535 13.0914C9.41688 13.0997 9.41019 13.1096 9.40567 13.1204C9.40114 13.1313 9.39887 13.1429 9.39897 13.1546V15.0243C9.39897 15.0735 9.43986 15.1136 9.48995 15.1136H22.7222C22.7723 15.1136 22.8131 15.0745 22.8131 15.0243V13.1546C22.8131 13.1054 22.7723 13.0653 22.7222 13.0653H9.48995ZM5.56563 0.909149H24.4562C26.0683 0.909149 27.3758 2.18532 27.3758 3.75939V30.4751C27.3758 30.8687 27.0488 31.1882 26.6456 31.1882H6.20531C6.10937 31.1882 6.01437 31.1698 5.92574 31.134C5.8371 31.0981 5.75658 31.0456 5.68876 30.9794C5.62094 30.9132 5.56717 30.8345 5.53051 30.748C5.49385 30.6615 5.47502 30.5688 5.4751 30.4751V0.99874C5.47497 0.987043 5.47721 0.975437 5.4817 0.964591C5.48619 0.953744 5.49283 0.943872 5.50124 0.935543C5.50966 0.927214 5.51968 0.920594 5.53073 0.916064C5.54178 0.911534 5.55364 0.909184 5.56563 0.909149ZM9.48995 17.5181C9.47795 17.5181 9.46606 17.5204 9.45497 17.5248C9.44388 17.5293 9.43381 17.5359 9.42535 17.5442C9.41688 17.5525 9.41019 17.5624 9.40567 17.5732C9.40114 17.5841 9.39887 17.5957 9.39897 17.6074V19.4771C9.39897 19.5263 9.43986 19.5664 9.48995 19.5664H22.7222C22.7723 19.5664 22.8131 19.5273 22.8131 19.4771V17.6074C22.8131 17.5582 22.7723 17.5181 22.7222 17.5181H9.48995ZM9.48995 21.9709C9.47795 21.9709 9.46606 21.9732 9.45497 21.9777C9.44388 21.9821 9.43381 21.9887 9.42535 21.997C9.41688 22.0053 9.41019 22.0152 9.40567 22.0261C9.40114 22.0369 9.39887 22.0485 9.39897 22.0602V23.9299C9.39897 23.9791 9.43986 24.0192 9.48995 24.0192H22.7222C22.7723 24.0192 22.8131 23.9801 22.8131 23.9299V22.0602C22.8131 22.011 22.7723 21.9709 22.7222 21.9709H9.48995ZM9.44387 7.45477C9.43195 7.45481 9.42015 7.45713 9.40915 7.46162C9.39814 7.4661 9.38815 7.47266 9.37975 7.48091C9.37134 7.48917 9.36468 7.49896 9.36015 7.50972C9.35563 7.52048 9.35331 7.53201 9.35335 7.54365V10.0376C9.35335 10.0866 9.3935 10.1265 9.44387 10.1265H17.8406C17.8525 10.1264 17.8643 10.1241 17.8753 10.1196C17.8863 10.1151 17.8963 10.1086 17.9047 10.1003C17.9131 10.0921 17.9198 10.0823 17.9243 10.0715C17.9288 10.0607 17.9311 10.0492 17.9311 10.0376V7.54365C17.9312 7.532 17.9289 7.52044 17.9244 7.50965C17.9199 7.49886 17.9133 7.48905 17.9048 7.48078C17.8964 7.47252 17.8864 7.46596 17.8754 7.4615C17.8644 7.45703 17.8525 7.45475 17.8406 7.45477H9.44387Z" fill="url(#paint1_linear_239_329)"/>
</g>
</g>
<defs>
<linearGradient id="paint0_linear_239_329" x1="4.38014" y1="0.909149" x2="4.38014" y2="8.74609" gradientUnits="userSpaceOnUse">
<stop stop-color="#FE553E"/>
<stop offset="1" stop-color="#252241"/>
</linearGradient>
<linearGradient id="paint1_linear_239_329" x1="16.4254" y1="0.909149" x2="16.4254" y2="31.1882" gradientUnits="userSpaceOnUse">
<stop stop-color="#FE553E"/>
<stop offset="1" stop-color="#252241"/>
</linearGradient>
<clipPath id="clip0_239_329">
<rect width="27.3758" height="30.2791" fill="white" transform="translate(0 0.909149)"/>
</clipPath>
<clipPath id="clip1_239_329">
<rect width="27.3758" height="30.2791" fill="white" transform="translate(0 0.909149)"/>
</clipPath>
</defs>
</svg>
