<svg width="28" height="32" viewBox="0 0 28 32" fill="none" xmlns="http://www.w3.org/2000/svg">
<g clip-path="url(#clip0_266_459)">
<path fill-rule="evenodd" clip-rule="evenodd" d="M8.76027 0.970184V8.80712H0.730023C0.327324 8.80712 0 8.48803 0 8.09432V3.82025C0 2.2468 1.32426 0.970184 2.92009 0.970184H8.76027ZM3.37635 2.30603C2.26763 2.30603 1.36879 3.18367 1.36879 4.26526V7.29352C1.36879 7.39166 1.45083 7.47128 1.55175 7.47128H5.38392V4.26526C5.38392 3.18323 4.48535 2.30603 3.37635 2.30603Z" fill="url(#paint0_linear_266_459)"/>
<path fill-rule="evenodd" clip-rule="evenodd" d="M9.49008 13.1263C9.47807 13.1263 9.46618 13.1286 9.45509 13.1331C9.444 13.1376 9.43393 13.1441 9.42547 13.1525C9.417 13.1608 9.41032 13.1706 9.40579 13.1815C9.40126 13.1923 9.39899 13.2039 9.3991 13.2157V15.0853C9.3991 15.1346 9.43998 15.1746 9.49008 15.1746H22.7223C22.7725 15.1746 22.8133 15.1355 22.8133 15.0853V13.2157C22.8133 13.1664 22.7724 13.1263 22.7223 13.1263H9.49008ZM5.56575 0.970184H24.4564C26.0684 0.970184 27.3759 2.24636 27.3759 3.82042V30.5362C27.3759 30.9297 27.0489 31.2493 26.6457 31.2493H6.20543C6.10949 31.2493 6.01449 31.2308 5.92586 31.195C5.83723 31.1592 5.7567 31.1067 5.68888 31.0404C5.62107 30.9742 5.56729 30.8956 5.53063 30.8091C5.49397 30.7225 5.47514 30.6298 5.47523 30.5362V1.05977C5.47509 1.04808 5.47733 1.03647 5.48182 1.02563C5.48631 1.01478 5.49295 1.00491 5.50137 0.996578C5.50978 0.988249 5.5198 0.981629 5.53085 0.977099C5.5419 0.972569 5.55376 0.970219 5.56575 0.970184ZM9.49008 17.5791C9.47807 17.5791 9.46618 17.5814 9.45509 17.5859C9.444 17.5904 9.43393 17.597 9.42547 17.6053C9.417 17.6136 9.41032 17.6234 9.40579 17.6343C9.40126 17.6451 9.39899 17.6568 9.3991 17.6685V19.5381C9.3991 19.5874 9.43998 19.6274 9.49008 19.6274H22.7223C22.7725 19.6274 22.8133 19.5883 22.8133 19.5381V17.6685C22.8133 17.6192 22.7724 17.5791 22.7223 17.5791H9.49008ZM9.49008 22.0319C9.47807 22.0319 9.46618 22.0342 9.45509 22.0387C9.444 22.0432 9.43393 22.0498 9.42547 22.0581C9.417 22.0664 9.41032 22.0762 9.40579 22.0871C9.40126 22.0979 9.39899 22.1096 9.3991 22.1213V23.9909C9.3991 24.0402 9.43998 24.0802 9.49008 24.0802H22.7223C22.7725 24.0802 22.8133 24.0411 22.8133 23.9909V22.1213C22.8133 22.072 22.7724 22.0319 22.7223 22.0319H9.49008ZM9.44399 7.51581C9.43207 7.51584 9.42027 7.51817 9.40927 7.52265C9.39827 7.52714 9.38828 7.5337 9.37987 7.54195C9.37146 7.5502 9.36481 7.55999 9.36028 7.57076C9.35575 7.58152 9.35343 7.59305 9.35347 7.60468V10.0986C9.35347 10.1477 9.39362 10.1875 9.44399 10.1875H17.8407C17.8526 10.1875 17.8644 10.1851 17.8754 10.1806C17.8864 10.1762 17.8964 10.1696 17.9048 10.1613C17.9132 10.1531 17.9199 10.1433 17.9244 10.1325C17.929 10.1218 17.9313 10.1102 17.9312 10.0986V7.60468C17.9313 7.59303 17.9291 7.58148 17.9246 7.57069C17.92 7.5599 17.9134 7.55008 17.905 7.54182C17.8966 7.53355 17.8865 7.527 17.8755 7.52253C17.8645 7.51807 17.8527 7.51578 17.8407 7.51581H9.44399Z" fill="url(#paint1_linear_266_459)"/>
</g>
<defs>
<linearGradient id="paint0_linear_266_459" x1="4.38014" y1="0.970184" x2="4.38014" y2="8.80712" gradientUnits="userSpaceOnUse">
<stop stop-color="#FE553E"/>
<stop offset="1" stop-color="#252241"/>
</linearGradient>
<linearGradient id="paint1_linear_266_459" x1="16.4256" y1="0.970184" x2="16.4256" y2="31.2493" gradientUnits="userSpaceOnUse">
<stop stop-color="#FE553E"/>
<stop offset="1" stop-color="#252241"/>
</linearGradient>
<clipPath id="clip0_266_459">
<rect width="27.3758" height="30.2791" fill="white" transform="translate(0 0.970184)"/>
</clipPath>
</defs>
</svg>
