<svg width="98" height="111" viewBox="0 0 98 111" fill="none" xmlns="http://www.w3.org/2000/svg">
<g clip-path="url(#clip0_1_1843)">
<path fill-rule="evenodd" clip-rule="evenodd" d="M31.36 0V28.5353H2.61333C1.17175 28.5353 0 27.3735 0 25.9399V10.3774C0 4.64833 4.74059 0 10.4533 0H31.36ZM12.0867 4.86397C8.11767 4.86397 4.9 8.0596 4.9 11.9978V23.0241C4.9 23.3814 5.19367 23.6713 5.55497 23.6713H19.2733V11.9978C19.2733 8.05798 16.0566 4.86397 12.0867 4.86397Z" fill="url(#paint0_linear_1_1843)"/>
<path fill-rule="evenodd" clip-rule="evenodd" d="M33.9724 44.2621C33.9294 44.262 33.8868 44.2703 33.8471 44.2867C33.8074 44.303 33.7714 44.327 33.7411 44.3572C33.7108 44.3875 33.6868 44.4234 33.6706 44.4629C33.6544 44.5024 33.6463 44.5447 33.6467 44.5874V51.395C33.6467 51.5743 33.793 51.7202 33.9724 51.7202H81.341C81.5206 51.7202 81.6667 51.5779 81.6667 51.395V44.5874C81.6667 44.4081 81.5203 44.2621 81.341 44.2621H33.9724ZM19.924 0H87.5486C93.3195 0 98 4.64671 98 10.3781V107.654C98 109.087 96.8296 110.25 95.386 110.25H22.214C21.8705 110.25 21.5305 110.183 21.2132 110.052C20.8959 109.922 20.6076 109.731 20.3648 109.49C20.1221 109.248 19.9296 108.962 19.7983 108.647C19.6671 108.332 19.5997 107.995 19.6 107.654V0.32621C19.5995 0.283623 19.6075 0.241363 19.6236 0.201869C19.6397 0.162376 19.6634 0.126429 19.6936 0.0961028C19.7237 0.0657767 19.7596 0.0416713 19.7991 0.025177C19.8387 0.00868265 19.8811 0.000125808 19.924 0ZM33.9724 60.4754C33.9294 60.4752 33.8868 60.4836 33.8471 60.4999C33.8074 60.5162 33.7714 60.5402 33.7411 60.5705C33.7108 60.6007 33.6868 60.6366 33.6706 60.6761C33.6544 60.7156 33.6463 60.758 33.6467 60.8006V67.6082C33.6467 67.7875 33.793 67.9335 33.9724 67.9335H81.341C81.5206 67.9335 81.6667 67.7911 81.6667 67.6082V60.8006C81.6667 60.6213 81.5203 60.4754 81.341 60.4754H33.9724ZM33.9724 76.6886C33.9294 76.6885 33.8868 76.6968 33.8471 76.7131C33.8074 76.7295 33.7714 76.7534 33.7411 76.7837C33.7108 76.8139 33.6868 76.8499 33.6706 76.8894C33.6544 76.9289 33.6463 76.9712 33.6467 77.0138V83.8215C33.6467 84.0008 33.793 84.1467 33.9724 84.1467H81.341C81.5206 84.1467 81.6667 84.0043 81.6667 83.8215V77.0138C81.6667 76.8345 81.5203 76.6886 81.341 76.6886H33.9724ZM33.8074 23.8335C33.7647 23.8336 33.7225 23.8421 33.6831 23.8584C33.6437 23.8747 33.6079 23.8986 33.5778 23.9286C33.5477 23.9587 33.5239 23.9943 33.5077 24.0335C33.4915 24.0727 33.4832 24.1147 33.4833 24.1571V33.2378C33.4833 33.4165 33.6271 33.5614 33.8074 33.5614H63.8659C63.9086 33.5613 63.9509 33.5528 63.9903 33.5365C64.0296 33.5201 64.0654 33.4963 64.0955 33.4662C64.1256 33.4362 64.1494 33.4005 64.1656 33.3613C64.1819 33.3221 64.1901 33.2802 64.19 33.2378V24.1571C64.1903 24.1146 64.1822 24.0726 64.1661 24.0333C64.1499 23.994 64.1261 23.9583 64.096 23.9282C64.0658 23.8981 64.03 23.8742 63.9905 23.858C63.951 23.8417 63.9087 23.8334 63.8659 23.8335H33.8074Z" fill="url(#paint1_linear_1_1843)"/>
</g>
<defs>
<linearGradient id="paint0_linear_1_1843" x1="15.68" y1="0" x2="15.68" y2="28.5353" gradientUnits="userSpaceOnUse">
<stop stop-color="#FE553E"/>
<stop offset="1" stop-color="#252241"/>
</linearGradient>
<linearGradient id="paint1_linear_1_1843" x1="58.8" y1="0" x2="58.8" y2="110.25" gradientUnits="userSpaceOnUse">
<stop stop-color="#FE553E"/>
<stop offset="1" stop-color="#252241"/>
</linearGradient>
<clipPath id="clip0_1_1843">
<rect width="98" height="110.25" fill="white"/>
</clipPath>
</defs>
</svg>
