<svg width="120" height="42" viewBox="0 0 120 42" fill="none" xmlns="http://www.w3.org/2000/svg">
<g clip-path="url(#clip0_266_446)">
<g clip-path="url(#clip1_266_446)">
<g clip-path="url(#clip2_266_446)">
<g clip-path="url(#clip3_266_446)">
<path d="M47.0892 32.1046H45.2258V16.95H46.9551V18.2788C47.4255 17.8197 47.9704 17.4608 48.5899 17.2022C49.2127 16.9435 49.8802 16.8142 50.5924 16.8142C51.5465 16.8142 52.4128 17.047 53.1913 17.5125C53.9665 17.9781 54.5876 18.6037 55.0547 19.3893C55.5185 20.1749 55.7504 21.0446 55.7504 21.9983C55.7504 22.952 55.5185 23.8233 55.0547 24.6122C54.5876 25.3978 53.9665 26.0234 53.1913 26.4889C52.4128 26.9545 51.5465 27.1872 50.5924 27.1872C49.9133 27.1872 49.2756 27.0692 48.6793 26.8332C48.0797 26.5972 47.5497 26.2707 47.0892 25.8536V32.1046ZM50.3539 25.5336C51.0098 25.5336 51.6045 25.3751 52.1378 25.0583C52.6712 24.7382 53.0969 24.3115 53.4149 23.7781C53.7296 23.2446 53.887 22.6514 53.887 21.9983C53.887 21.3485 53.7296 20.7568 53.4149 20.2234C53.0969 19.69 52.6712 19.2632 52.1378 18.9431C51.6045 18.6231 51.0098 18.463 50.3539 18.463C49.698 18.463 49.1017 18.6231 48.5651 18.9431C48.0317 19.2632 47.606 19.69 47.288 20.2234C46.9733 20.7568 46.8159 21.3485 46.8159 21.9983C46.8159 22.6514 46.9733 23.2446 47.288 23.7781C47.606 24.3115 48.0317 24.7382 48.5651 25.0583C49.1017 25.3751 49.698 25.5336 50.3539 25.5336ZM62.7717 27.1872C61.8309 27.1872 60.9696 26.9545 60.1878 26.4889C59.4026 26.0234 58.7782 25.3978 58.3144 24.6122C57.8473 23.8233 57.6138 22.952 57.6138 21.9983C57.6138 21.0446 57.8473 20.1749 58.3144 19.3893C58.7782 18.6037 59.4026 17.9781 60.1878 17.5125C60.9696 17.047 61.8309 16.8142 62.7717 16.8142C63.4872 16.8142 64.1581 16.9435 64.7842 17.2022C65.4103 17.4608 65.9536 17.8197 66.414 18.2788V16.95H68.1383V27.0514H66.414V25.7227C65.9536 26.1721 65.4103 26.5277 64.7842 26.7896C64.1581 27.0547 63.4872 27.1872 62.7717 27.1872ZM63.0152 25.5336C63.6711 25.5336 64.2657 25.3751 64.7991 25.0583C65.3357 24.7382 65.7614 24.3115 66.0761 23.7781C66.3941 23.2446 66.5532 22.6514 66.5532 21.9983C66.5532 21.3485 66.3941 20.7568 66.0761 20.2234C65.7614 19.69 65.3357 19.2632 64.7991 18.9431C64.2657 18.6231 63.6711 18.463 63.0152 18.463C62.3592 18.463 61.7646 18.6231 61.2313 18.9431C60.6946 19.2632 60.2689 19.69 59.9542 20.2234C59.6362 20.7568 59.4772 21.3485 59.4772 21.9983C59.4772 22.6514 59.6362 23.2446 59.9542 23.7781C60.2689 24.3115 60.6946 24.7382 61.2313 25.0583C61.7646 25.3751 62.3592 25.5336 63.0152 25.5336ZM73.3161 27.0514H71.4527V16.95H73.1769V18.8025C73.5447 18.2076 74.0333 17.7324 74.6428 17.3768C75.2524 17.0244 75.9762 16.8482 76.8143 16.8482L77.2814 18.6667C77.0628 18.5988 76.8094 18.5649 76.5211 18.5649C75.5571 18.5649 74.782 18.8655 74.1956 19.4669C73.6093 20.0682 73.3161 20.9233 73.3161 22.0322V27.0514ZM82.2853 27.0514H80.4219V18.463H78.0765V16.95H80.4716V13.5796H82.2356V16.95H84.8046V18.463H82.2853V27.0514ZM88.8395 27.0514H86.9761V16.95H88.8395V27.0514ZM87.9103 15.1315C87.5625 15.1315 87.2693 15.0134 87.0308 14.7774C86.7889 14.5414 86.668 14.2553 86.668 13.9191C86.668 13.5699 86.7889 13.2806 87.0308 13.051C87.2693 12.8215 87.5625 12.7067 87.9103 12.7067C88.2648 12.7067 88.5596 12.8215 88.7948 13.051C89.0333 13.2806 89.1526 13.5699 89.1526 13.9191C89.1526 14.2553 89.0333 14.5414 88.7948 14.7774C88.5596 15.0134 88.2648 15.1315 87.9103 15.1315ZM96.9143 27.2551C95.9006 27.2551 94.9797 27.0191 94.1515 26.5471C93.3233 26.0751 92.6624 25.4398 92.1688 24.6413C91.6752 23.8459 91.4284 22.965 91.4284 21.9983C91.4284 21.0349 91.6752 20.1539 92.1688 19.3553C92.6624 18.56 93.3233 17.9264 94.1515 17.4543C94.9797 16.9823 95.9006 16.7463 96.9143 16.7463C97.663 16.7463 98.3636 16.8756 99.0162 17.1343C99.6721 17.3929 100.249 17.7356 100.745 18.1624L100.174 20.4513C99.8858 19.8888 99.4518 19.4168 98.8721 19.0353C98.2924 18.6538 97.6331 18.463 96.8944 18.463C96.2285 18.463 95.6223 18.6231 95.0757 18.9431C94.5291 19.2632 94.0951 19.69 93.7738 20.2234C93.4525 20.7568 93.2918 21.3485 93.2918 21.9983C93.2918 22.6384 93.4525 23.2284 93.7738 23.7684C94.0951 24.3083 94.5291 24.7382 95.0757 25.0583C95.6223 25.3751 96.2285 25.5336 96.8944 25.5336C97.6331 25.5336 98.2924 25.3493 98.8721 24.9807C99.4518 24.6089 99.8858 24.1321 100.174 23.5501L100.745 25.8391C100.249 26.2658 99.6721 26.6085 99.0162 26.8672C98.3636 27.1258 97.663 27.2551 96.9143 27.2551ZM104.885 27.0514H103.021V10.8882H104.885V27.0514ZM113.128 27.2551C112.048 27.2551 111.079 27.0191 110.222 26.5471C109.367 26.0751 108.694 25.4317 108.204 24.617C107.714 23.8055 107.469 22.8987 107.469 21.8965C107.469 20.9427 107.705 20.0763 108.179 19.2971C108.65 18.518 109.284 17.8973 110.082 17.4349C110.884 16.9759 111.767 16.7463 112.731 16.7463C113.688 16.7463 114.563 16.9678 115.355 17.4107C116.15 17.8536 116.782 18.4517 117.253 19.205C117.723 19.9583 117.958 20.8118 117.958 21.7655V22.5026H111.195C110.897 22.5026 110.593 22.4929 110.281 22.4735C109.973 22.4509 109.668 22.417 109.367 22.3717C109.496 23.2672 109.913 24.0189 110.619 24.6267C111.328 25.2313 112.171 25.5336 113.148 25.5336C113.804 25.5336 114.414 25.3881 114.977 25.0971C115.54 24.8061 115.994 24.4198 116.338 23.9381L116.855 26.0088C116.362 26.4 115.795 26.7055 115.156 26.9254C114.52 27.1452 113.844 27.2551 113.128 27.2551ZM109.317 21.1399C109.937 21.0397 110.563 20.9896 111.195 20.9896H114.629C114.884 20.9896 115.134 20.9977 115.379 21.0139C115.628 21.03 115.878 21.0494 116.13 21.072C115.971 20.2864 115.568 19.6382 114.922 19.1274C114.28 18.6166 113.549 18.3612 112.731 18.3612C111.893 18.3612 111.157 18.6344 110.525 19.1808C109.892 19.7239 109.489 20.377 109.317 21.1399Z" fill="#252241"/>
</g>
</g>
</g>
</g>
<g clip-path="url(#clip4_266_446)">
<g clip-path="url(#clip5_266_446)">
<path fill-rule="evenodd" clip-rule="evenodd" d="M18.7603 5.97018V13.8071H10.73C10.3273 13.8071 10 13.488 10 13.0943V8.82025C10 7.2468 11.3243 5.97018 12.9201 5.97018H18.7603ZM13.3764 7.30603C12.2676 7.30603 11.3688 8.18367 11.3688 9.26526V12.2935C11.3688 12.3917 11.4508 12.4713 11.5518 12.4713H15.3839V9.26526C15.3839 8.18323 14.4854 7.30603 13.3764 7.30603Z" fill="url(#paint0_linear_266_446)"/>
<path fill-rule="evenodd" clip-rule="evenodd" d="M19.4901 18.1263C19.4781 18.1263 19.4662 18.1286 19.4551 18.1331C19.444 18.1376 19.4339 18.1441 19.4255 18.1525C19.417 18.1608 19.4103 18.1706 19.4058 18.1815C19.4013 18.1923 19.399 18.2039 19.3991 18.2157V20.0853C19.3991 20.1346 19.44 20.1746 19.4901 20.1746H32.7223C32.7725 20.1746 32.8133 20.1355 32.8133 20.0853V18.2157C32.8133 18.1664 32.7724 18.1263 32.7223 18.1263H19.4901ZM15.5657 5.97018H34.4564C36.0684 5.97018 37.3759 7.24636 37.3759 8.82042V35.5362C37.3759 35.9297 37.0489 36.2493 36.6457 36.2493H16.2054C16.1095 36.2493 16.0145 36.2308 15.9259 36.195C15.8372 36.1592 15.7567 36.1067 15.6889 36.0404C15.6211 35.9742 15.5673 35.8956 15.5306 35.8091C15.494 35.7225 15.4751 35.6298 15.4752 35.5362V6.05977C15.4751 6.04808 15.4773 6.03647 15.4818 6.02563C15.4863 6.01478 15.4929 6.00491 15.5014 5.99658C15.5098 5.98825 15.5198 5.98163 15.5309 5.9771C15.5419 5.97257 15.5538 5.97022 15.5657 5.97018ZM19.4901 22.5791C19.4781 22.5791 19.4662 22.5814 19.4551 22.5859C19.444 22.5904 19.4339 22.597 19.4255 22.6053C19.417 22.6136 19.4103 22.6234 19.4058 22.6343C19.4013 22.6451 19.399 22.6568 19.3991 22.6685V24.5381C19.3991 24.5874 19.44 24.6274 19.4901 24.6274H32.7223C32.7725 24.6274 32.8133 24.5883 32.8133 24.5381V22.6685C32.8133 22.6192 32.7724 22.5791 32.7223 22.5791H19.4901ZM19.4901 27.0319C19.4781 27.0319 19.4662 27.0342 19.4551 27.0387C19.444 27.0432 19.4339 27.0498 19.4255 27.0581C19.417 27.0664 19.4103 27.0762 19.4058 27.0871C19.4013 27.0979 19.399 27.1096 19.3991 27.1213V28.9909C19.3991 29.0402 19.44 29.0802 19.4901 29.0802H32.7223C32.7725 29.0802 32.8133 29.0411 32.8133 28.9909V27.1213C32.8133 27.072 32.7724 27.0319 32.7223 27.0319H19.4901ZM19.444 12.5158C19.4321 12.5158 19.4203 12.5182 19.4093 12.5227C19.3983 12.5271 19.3883 12.5337 19.3799 12.5419C19.3715 12.5502 19.3648 12.56 19.3603 12.5708C19.3557 12.5815 19.3534 12.593 19.3535 12.6047V15.0986C19.3535 15.1477 19.3936 15.1875 19.444 15.1875H27.8407C27.8526 15.1875 27.8644 15.1851 27.8754 15.1806C27.8864 15.1762 27.8964 15.1696 27.9048 15.1613C27.9132 15.1531 27.9199 15.1433 27.9244 15.1325C27.929 15.1218 27.9313 15.1102 27.9312 15.0986V12.6047C27.9313 12.593 27.9291 12.5815 27.9246 12.5707C27.92 12.5599 27.9134 12.5501 27.905 12.5418C27.8966 12.5336 27.8865 12.527 27.8755 12.5225C27.8645 12.5181 27.8527 12.5158 27.8407 12.5158H19.444Z" fill="url(#paint1_linear_266_446)"/>
</g>
</g>
<defs>
<linearGradient id="paint0_linear_266_446" x1="14.3801" y1="5.97018" x2="14.3801" y2="13.8071" gradientUnits="userSpaceOnUse">
<stop stop-color="#FE553E"/>
<stop offset="1" stop-color="#252241"/>
</linearGradient>
<linearGradient id="paint1_linear_266_446" x1="26.4256" y1="5.97018" x2="26.4256" y2="36.2493" gradientUnits="userSpaceOnUse">
<stop stop-color="#FE553E"/>
<stop offset="1" stop-color="#252241"/>
</linearGradient>
<clipPath id="clip0_266_446">
<rect width="72.7419" height="30.3476" fill="white" transform="translate(45.3757 5.97018)"/>
</clipPath>
<clipPath id="clip1_266_446">
<rect width="72.7419" height="30.3476" fill="white" transform="translate(45.3757 5.97018)"/>
</clipPath>
<clipPath id="clip2_266_446">
<rect width="72.7419" height="21.2164" fill="white" transform="translate(45.3757 10.8539)"/>
</clipPath>
<clipPath id="clip3_266_446">
<rect width="72.7419" height="21.2164" fill="white" transform="translate(45.2212 10.8882)"/>
</clipPath>
<clipPath id="clip4_266_446">
<rect width="27.3758" height="30.2791" fill="white" transform="translate(10 5.97018)"/>
</clipPath>
<clipPath id="clip5_266_446">
<rect width="27.3758" height="30.2791" fill="white" transform="translate(10 5.97018)"/>
</clipPath>
</defs>
</svg>
