<svg width="18" height="19" viewBox="0 0 18 19" fill="none" xmlns="http://www.w3.org/2000/svg">
<path d="M3.483 4.09998H15.408C16.533 4.09998 17.1 4.63098 17.1 5.71098V13.289C17.1 14.36 16.533 14.9 15.408 14.9H3.483C2.358 14.9 1.791 14.36 1.791 13.289V5.71098C1.791 4.63098 2.358 4.09998 3.483 4.09998ZM9.441 11.84L15.507 6.86298C15.723 6.68298 15.894 6.26898 15.624 5.89998C15.363 5.53098 14.886 5.52198 14.571 5.74698L9.441 9.22097L4.32 5.74698C4.005 5.52198 3.528 5.53098 3.267 5.89998C2.997 6.26898 3.168 6.68298 3.384 6.86298L9.441 11.84Z" fill="#E0E0E0"/>
</svg>
