<svg width="14" height="18" viewBox="0 0 14 18" fill="none" xmlns="http://www.w3.org/2000/svg">
<rect width="14" height="18" fill="#B9B4B4"/>
<g id="HomePage(UPdate)" clip-path="url(#clip0_0_1)">
<rect width="1550" height="2322" transform="translate(-1127 -2108)" fill="white"/>
<rect id="Rectangle 1" x="-1127" y="-2108" width="1550" height="2322" fill="#EBEEF0"/>
<g id="main footer">
<g id="footer">
<rect width="1550" height="325" transform="translate(-1127 -161)" fill="#252241"/>
<g id="Frame 8">
<g id="Frame 4262">
<g id="Frame 17">
<g id="Frame 19">
<g id="Frame 8402">
<g id="fa6-solid:location-dot" clip-path="url(#clip1_0_1)">
<path id="Vector" d="M5.81299 17.55C4.01003 15.293 0 9.82266 0 6.75C0 3.02203 2.96901 0 6.63158 0C10.2928 0 13.2632 3.02203 13.2632 6.75C13.2632 9.82266 9.22204 15.293 7.45016 17.55C7.02533 18.0879 6.23783 18.0879 5.81299 17.55ZM6.63158 9C7.85082 9 8.8421 7.99102 8.8421 6.75C8.8421 5.50899 7.85082 4.5 6.63158 4.5C5.41234 4.5 4.42105 5.50899 4.42105 6.75C4.42105 7.99102 5.41234 9 6.63158 9Z" fill="#E0E0E0"/>
</g>
</g>
</g>
</g>
</g>
</g>
</g>
</g>
</g>
<defs>
<clipPath id="clip0_0_1">
<rect width="1550" height="2322" fill="white" transform="translate(-1127 -2108)"/>
</clipPath>
<clipPath id="clip1_0_1">
<rect width="13.2632" height="18" fill="white"/>
</clipPath>
</defs>
</svg>
