<svg width="18" height="19" viewBox="0 0 18 19" fill="none" xmlns="http://www.w3.org/2000/svg">
<g clip-path="url(#clip0_1_1830)">
<path d="M17.4864 13.2197L13.5489 11.5322C13.3807 11.4605 13.1937 11.4454 13.0162 11.4892C12.8387 11.5329 12.6801 11.6331 12.5645 11.7748L10.8207 13.9052C8.08409 12.6149 5.88171 10.4126 4.59141 7.67591L6.72188 5.93216C6.86379 5.81674 6.96424 5.65822 7.00801 5.4806C7.05178 5.30298 7.03649 5.11594 6.96445 4.94779L5.27695 1.01029C5.19789 0.829024 5.05806 0.681029 4.88157 0.591821C4.70508 0.502614 4.50299 0.477784 4.31016 0.521615L0.653906 1.36536C0.467989 1.4083 0.302114 1.51298 0.183352 1.66232C0.0645909 1.81167 -4.28277e-05 1.99686 2.12914e-08 2.18767C2.12914e-08 11.2052 7.30898 18.5002 16.3125 18.5002C16.5034 18.5003 16.6886 18.4357 16.8381 18.3169C16.9875 18.1982 17.0922 18.0322 17.1352 17.8463L17.9789 14.19C18.0225 13.9962 17.9971 13.7933 17.9072 13.6162C17.8173 13.4391 17.6685 13.2989 17.4864 13.2197Z" fill="#E0E0E0"/>
</g>
<defs>
<clipPath id="clip0_1_1830">
<rect width="18" height="18" fill="white" transform="translate(0 0.5)"/>
</clipPath>
</defs>
</svg>
