<svg width="15" height="15" viewBox="0 0 15 15" fill="none" xmlns="http://www.w3.org/2000/svg">
<path d="M13.3199 3.51404C12.571 3.35384 11.8928 2.95863 11.3843 2.386C10.8757 1.81338 10.5634 1.09329 10.4928 0.330707V0H7.90936V10.2527C7.90776 10.7066 7.76398 11.1485 7.49823 11.5165C7.23248 11.8845 6.85811 12.1599 6.42774 12.3042C5.99736 12.4484 5.53261 12.4542 5.09879 12.3206C4.66498 12.1871 4.2839 11.921 4.00912 11.5597C3.73007 11.1924 3.57527 10.7458 3.56717 10.2845C3.55908 9.82332 3.69811 9.37151 3.9641 8.99463C4.23009 8.61774 4.60921 8.33538 5.04649 8.18849C5.48378 8.0416 5.95648 8.03781 6.39606 8.17768V5.55302C5.41582 5.41752 4.41775 5.59179 3.54144 6.05146C2.66513 6.51113 1.95442 7.23321 1.5087 8.1167C1.06299 9.0002 0.904576 10.0009 1.05562 10.9789C1.20666 11.9568 1.6596 12.8631 2.35108 13.571C3.01052 14.2457 3.85605 14.7086 4.77976 14.9006C5.70346 15.0927 6.66344 15.0051 7.53714 14.6491C8.41085 14.293 9.15864 13.6847 9.68508 12.9018C10.2115 12.1189 10.4927 11.1969 10.4928 10.2534V5.01459C11.5368 5.761 12.7886 6.16122 14.0721 6.15894V3.59203C13.8193 3.59234 13.5672 3.5662 13.3199 3.51404Z" fill="#BDBDBD"/>
</svg>
