<svg width="22" height="15" viewBox="0 0 22 15" fill="none" xmlns="http://www.w3.org/2000/svg">
<path d="M21.5098 2.34699C21.2645 1.42316 20.5416 0.695586 19.6237 0.448672C17.96 0 11.2889 0 11.2889 0C11.2889 0 4.61781 0 2.9541 0.448672C2.03625 0.695625 1.31336 1.42316 1.068 2.34699C0.622223 4.02148 0.622223 7.51516 0.622223 7.51516C0.622223 7.51516 0.622223 11.0088 1.068 12.6833C1.31336 13.6071 2.03625 14.3044 2.9541 14.5513C4.61781 15 11.2889 15 11.2889 15C11.2889 15 17.96 15 19.6237 14.5513C20.5416 14.3044 21.2645 13.6071 21.5098 12.6833C21.9556 11.0088 21.9556 7.51516 21.9556 7.51516C21.9556 7.51516 21.9556 4.02148 21.5098 2.34699ZM9.10707 10.6871V4.34316L14.6828 7.51523L9.10707 10.6871Z" fill="#BDBDBD"/>
</svg>
